#N canvas 702 222 621 547 10;
#X obj 249 -57 inlet options;
#X obj 42 404 outlet triplepacked;
#X obj 286 -35 loadbang;
#X obj 286 -6 dollarg;
#X obj 249 33 param.group;
#X obj 38 109 param.atom engine 0;
#X obj 196 118 param.atom offset 1;
#X obj 371 125 param.atom channels 1;
#X obj 42 332 flow.prepend ChannelReadData;
#X obj 42 289 list.pak.3;
#X obj 9 16 inlet;
#X connect 0 0 4 0;
#X connect 2 0 3 0;
#X connect 3 0 4 1;
#X connect 3 1 4 2;
#X connect 5 0 9 0;
#X connect 6 0 9 1;
#X connect 7 0 9 2;
#X connect 8 0 1 0;
#X connect 9 0 8 0;
#X connect 10 0 9 0;
