#N canvas 26 53 1009 698 10;
#X obj 210 337 speedlim 50;
#X obj 211 366 int;
#X obj 211 453 tabwrite;
#X obj 309 285 inlet channel_number;
#X obj 308 331 - 1;
#X obj 205 284 inlet value;
#X obj 54 282 inlet array_name;
#X connect 0 0 1 0;
#X connect 1 0 2 0;
#X connect 3 0 4 0;
#X connect 4 0 2 1;
#X connect 5 0 0 0;
#X connect 6 0 2 0;
