#N canvas 582 222 1198 554 10;
#X obj 259 -47 inlet options;
#X obj 296 -25 loadbang;
#X obj 296 4 dollarg;
#X obj 259 43 param.group;
#X obj 166 5 route float;
#X obj 48 119 param.atom value 0;
#X obj 52 209 nop;
#X obj 50 247 speedlim 50;
#X obj 51 276 int;
#X obj 51 443 tabwrite;
#X obj 388 180 param.atom channel 1;
#X obj 388 205 - 1;
#X obj 311 83 param.atom array 1;
#X msg 179 156 set array1;
#X msg 199 175 set array2;
#X msg 228 195 set array3;
#X obj 311 109 sel 1 2 3;
#X connect 0 0 4 0;
#X connect 1 0 2 0;
#X connect 2 0 3 1;
#X connect 2 1 3 2;
#X connect 4 0 6 0;
#X connect 4 1 3 0;
#X connect 5 0 6 0;
#X connect 6 0 7 0;
#X connect 7 0 8 0;
#X connect 8 0 9 0;
#X connect 10 0 11 0;
#X connect 11 0 9 1;
#X connect 12 0 16 0;
#X connect 13 0 9 0;
#X connect 14 0 9 0;
#X connect 15 0 9 0;
#X connect 16 0 13 0;
#X connect 16 1 14 0;
#X connect 16 2 15 0;
