#N canvas 769 70 563 527 10;
#X obj 145 -28 flow.@parse;
#X obj 47 -53 inlet options;
#X obj 42 304 pack f f f;
#X obj 42 404 outlet triplepacked;
#X obj 145 -51 dollarg;
#X obj 53 89 init.lf \$1;
#X obj 136 84 init.lf \$2;
#X obj 220 87 init.lf \$3;
#X obj 42 332 flow.prepend EngineGo;
#X obj 48 14 route engine cuelist cuestep;
#X connect 0 0 9 0;
#X connect 1 0 9 0;
#X connect 2 0 8 0;
#X connect 4 0 0 0;
#X connect 5 0 2 0;
#X connect 6 0 2 1;
#X connect 7 0 2 2;
#X connect 8 0 3 0;
#X connect 9 0 5 0;
#X connect 9 1 6 0;
#X connect 9 2 7 0;
