#N canvas 769 70 563 527 10;
#X obj 145 -28 flow.@parse;
#X obj 47 -53 inlet options;
#X obj 53 145 pack f f f;
#X obj 145 -51 dollarg;
#X obj 53 89 init.lf \$1;
#X obj 136 84 init.lf \$2;
#X obj 48 14 route engine fadetime;
#X obj 51 173 flow.prepend EngineSetFadeTime;
#X obj 51 245 outlet doublepacked;
#X connect 0 0 6 0;
#X connect 1 0 6 0;
#X connect 2 0 7 0;
#X connect 3 0 0 0;
#X connect 4 0 2 0;
#X connect 5 0 2 1;
#X connect 6 0 4 0;
#X connect 6 1 5 0;
#X connect 7 0 8 0;
