#N canvas 589 105 621 547 10;
#X obj 249 -57 inlet options;
#X obj 42 404 outlet triplepacked;
#X obj 42 332 flow.prepend ChannelValue;
#X obj 286 -35 loadbang;
#X obj 286 -6 dollarg;
#X obj 249 33 param.group;
#X obj 371 125 param.atom channel 1;
#X obj 38 109 param.atom value 0;
#X obj 196 118 param.atom engine 1;
#X obj 156 -5 route float;
#X obj 42 304 list.pak.3 f f f;
#X obj 42 199 nop;
#X connect 0 0 9 0;
#X connect 2 0 1 0;
#X connect 3 0 4 0;
#X connect 4 0 5 1;
#X connect 4 1 5 2;
#X connect 6 0 10 2;
#X connect 7 0 11 0;
#X connect 8 0 10 1;
#X connect 9 0 11 0;
#X connect 9 1 5 0;
#X connect 10 0 2 0;
#X connect 11 0 10 0;
