#N canvas 769 70 382 344 10;
#X obj 145 -28 flow.@parse;
#X obj 47 -53 inlet options;
#X obj 54 126 pack f f f;
#X obj 145 -51 dollarg;
#X obj 53 89 init.lf \$1;
#X obj 136 84 init.lf \$2;
#X obj 48 14 route engine fading;
#X obj 54 154 flow.prepend EngineSetFading;
#X obj 54 226 outlet doublepacked;
#X connect 0 0 6 0;
#X connect 1 0 6 0;
#X connect 2 0 7 0;
#X connect 3 0 0 0;
#X connect 4 0 2 0;
#X connect 5 0 2 1;
#X connect 6 0 4 0;
#X connect 6 1 5 0;
#X connect 7 0 8 0;
