#N canvas 717 70 563 527 10;
#X obj 155 -3 flow.@parse;
#X obj 57 -43 inlet options;
#X obj 155 -26 dollarg;
#X obj 120 25 route engine;
#X obj 64 154 outlet;
#X obj 64 82 flow.prepend EnginePrevious;
#X obj 155 -51 init.lb;
#X connect 0 0 3 0;
#X connect 1 0 3 0;
#X connect 2 0 0 0;
#X connect 3 0 5 0;
#X connect 5 0 4 0;
#X connect 6 0 2 0;
