#N canvas 561 83 563 527 10;
#X obj 147 9 flow.@parse;
#X obj 47 -53 inlet options;
#X obj 147 -14 dollarg;
#X obj 42 332 flow.prepend EngineSetMixMode;
#X obj 42 404 outlet doublepacked;
#X obj 42 304 list.pak.2 f f;
#X obj 147 -39 loadbang;
#X obj 55 38 route engine mixmode float;
#X obj 128 183 scale.linear 0 255 0 5;
#X connect 0 0 7 0;
#X connect 1 0 7 0;
#X connect 2 0 0 0;
#X connect 3 0 4 0;
#X connect 5 0 3 0;
#X connect 6 0 2 0;
#X connect 7 0 5 0;
#X connect 7 1 8 0;
#X connect 7 2 8 0;
#X connect 8 0 5 1;
