#N canvas 382 29 617 672 10;
#X text 282 285 msgtype layerID msglength16 channeloffset16;
#X obj 114 52 inlet settings;
#X msg 163 201 202;
#X msg 114 202 201;
#X obj 242 171 clip 1 63;
#X obj 242 196 f;
#X obj 352 204 + 6;
#X obj 352 179 clip 0 512;
#X obj 471 183 clip 0 511;
#X obj 45 323 flow.prepend;
#N canvas 0 0 433 506 dynamic-msg-formatting 0;
#X obj 50 31 inlet;
#X obj 67 460 outlet;
#X obj 195 193 % 255;
#X obj 150 194 / 255;
#X obj 150 161 t f f;
#X obj 150 231 i;
#X obj 323 225 % 255;
#X obj 278 226 / 255;
#X obj 278 193 t f f;
#X obj 277 250 i;
#X obj 218 306 list.pak.4;
#X obj 51 57 unpack f f f f;
#X obj 51 238 list.pak.2;
#X obj 67 399 flow.prepend;
#X connect 0 0 11 0;
#X connect 2 0 10 1;
#X connect 3 0 5 0;
#X connect 4 0 3 0;
#X connect 4 1 2 0;
#X connect 5 0 10 0;
#X connect 6 0 10 3;
#X connect 7 0 9 0;
#X connect 8 0 7 0;
#X connect 8 1 6 0;
#X connect 9 0 10 2;
#X connect 10 0 13 0;
#X connect 11 0 12 0;
#X connect 11 1 12 1;
#X connect 11 2 4 0;
#X connect 11 3 8 0;
#X connect 12 0 13 1;
#X connect 13 0 1 0;
#X restore 114 287 pd dynamic-msg-formatting;
#X obj 114 171 relay publish write;
#X obj 45 591 outlet;
#X obj 45 18 inlet value;
#X obj 114 255 list.pak.4;
#X obj 114 79 route type engine channels offset;
#N canvas 551 29 374 564 packetheader 0;
#X obj 14 39 inlet;
#X obj 14 497 outlet;
#X obj 127 275 % 255;
#X obj 83 252 / 255;
#X obj 83 219 t f f;
#X obj 83 289 i;
#X obj 14 82 t l b;
#X obj 14 423 flow.prepend;
#X msg 83 358 \$1 \$2;
#X obj 83 196 count.accum;
#X msg 83 160 1;
#X obj 183 196 sel 255;
#X obj 146 164 init.lb;
#X obj 83 329 pack f f;
#X obj 83 392 flow.prepend 192 183;
#X connect 0 0 6 0;
#X connect 2 0 13 1;
#X connect 3 0 5 0;
#X connect 3 0 11 0;
#X connect 4 0 3 0;
#X connect 4 1 2 0;
#X connect 5 0 13 0;
#X connect 6 0 7 0;
#X connect 6 1 10 0;
#X connect 7 0 1 0;
#X connect 8 0 14 0;
#X connect 9 0 4 0;
#X connect 10 0 9 0;
#X connect 11 0 9 1;
#X connect 12 0 9 1;
#X connect 13 0 8 0;
#X connect 14 0 7 1;
#X restore 45 375 pd packetheader;
#X text 146 374 <- avec le tag mis à jour à chaque paquet;
#X connect 1 0 15 0;
#X connect 2 0 14 0;
#X connect 3 0 14 0;
#X connect 4 0 5 0;
#X connect 5 0 14 1;
#X connect 6 0 14 2;
#X connect 7 0 6 0;
#X connect 8 0 14 3;
#X connect 9 0 16 0;
#X connect 10 0 9 1;
#X connect 11 0 3 0;
#X connect 11 1 2 0;
#X connect 13 0 9 0;
#X connect 14 0 10 0;
#X connect 15 0 11 0;
#X connect 15 1 4 0;
#X connect 15 2 7 0;
#X connect 15 3 8 0;
#X connect 16 0 12 0;
