#N canvas 769 70 563 527 10;
#X obj 145 -28 flow.@parse;
#X obj 47 -53 inlet options;
#X obj 145 -51 dollarg;
#X obj 53 89 init.lf \$1;
#X obj 136 84 init.lf \$2;
#X obj 50 186 flow.prepend EngineSetFadeType;
#X obj 48 14 route engine fadetype;
#X obj 49 258 outlet doublepacked;
#X obj 49 158 pack f f;
#X connect 0 0 6 0;
#X connect 1 0 6 0;
#X connect 2 0 0 0;
#X connect 3 0 8 0;
#X connect 4 0 8 1;
#X connect 5 0 7 0;
#X connect 6 0 3 0;
#X connect 6 1 4 0;
#X connect 8 0 5 0;
