#N canvas 0 0 596 385 10;
#X obj 12 12 cnv 15 450 20 empty empty lanbox.enginego 2 11 1 18 -233017
-66577 0;
#X obj 33 315 tosymbol;
#X symbolatom 33 345 64 0 0 0 - - -;
#X floatatom 33 213 5 0 99 0 - - -;
#X msg 33 238 engine \$1;
#X text 31 67 comment;
#X text 30 83 - engine defaults to 1 \, range: 0-99;
#X floatatom 116 211 5 0 512 0 - - -;
#X floatatom 210 213 5 0 0 0 - - -;
#X obj 33 290 lanbox.enginego 1 1 1;
#X msg 116 236 cuelist \$1;
#X msg 210 238 cuestep \$1;
#X text 15 48 [lanbox.enginego];
#X connect 1 0 2 0;
#X connect 3 0 4 0;
#X connect 4 0 9 0;
#X connect 7 0 10 0;
#X connect 8 0 11 0;
#X connect 9 0 1 0;
#X connect 10 0 9 0;
#X connect 11 0 9 0;
