#N canvas 567 174 497 268 10;
#X obj 144 -16 flow.@parse;
#X obj 47 -53 inlet options;
#X obj 144 -39 dollarg;
#X obj 75 13 route engine;
#X obj 54 144 outlet;
#X obj 54 72 flow.prepend EnginePauze;
#X obj 144 -64 init.lb;
#X connect 0 0 3 0;
#X connect 1 0 3 0;
#X connect 2 0 0 0;
#X connect 3 0 5 0;
#X connect 5 0 4 0;
#X connect 6 0 2 0;
