#N canvas 94 286 1373 370 10;
#X obj 47 37 inlet;
#X obj 42 318 outlet;
#N canvas 695 206 585 593 languts 0;
#X obj 49 11 inlet;
#X msg 5 99 disconnect;
#X text 255 254 keep connection alive;
#X text 171 153 IP and port number of the lanbox;
#X text 57 533 password (ascii value of : 777);
#X obj 50 34 route 0 1;
#X msg 236 236 send 42 54 53 70 70 35 10;
#X obj 56 222 tcpclient;
#X obj 120 431 list2symbol;
#X msg 192 408 symbol _;
#X msg 324 510 connected;
#X obj 120 458 sel 101_110_116_101_114_32_112_97_115_115_119_111_114_100_32_58
99_111_110_110_101_99_116_101_100;
#X msg 56 514 send 55 55 55 10;
#X obj 192 386 loadbang;
#X obj 317 547 print lanbox;
#X obj 434 552 outlet;
#X obj 423 34 inlet keepalive;
#X obj 181 57 symbol \$1;
#X msg 152 130 connect \$1 777;
#X obj 119 65 t b;
#X obj 493 519 s lbx-in;
#X connect 0 0 5 0;
#X connect 1 0 7 0;
#X connect 5 0 1 0;
#X connect 5 1 19 0;
#X connect 5 2 7 0;
#X connect 6 0 7 0;
#X connect 7 0 8 0;
#X connect 7 2 15 0;
#X connect 8 0 11 0;
#X connect 9 0 8 1;
#X connect 10 0 14 0;
#X connect 11 0 12 0;
#X connect 11 1 10 0;
#X connect 11 2 20 0;
#X connect 12 0 7 0;
#X connect 13 0 9 0;
#X connect 16 0 6 0;
#X connect 17 0 18 0;
#X connect 18 0 7 0;
#X connect 19 0 17 0;
#X restore 41 273 pd languts;
#N canvas 849 521 450 300 ChannelSetData 0;
#X obj 97 51 inlet;
#X obj 213 51 inlet;
#X obj 323 56 inlet;
#X obj 119 262 outlet;
#X obj 109 187 pack f f f f f f;
#N canvas 0 22 790 364 i2decascii 0;
#X obj -59 155 / 16;
#X obj -59 182 i;
#X obj 43 156 % 16;
#X obj -59 118 t f f;
#X obj -59 210 moses 9.5;
#X obj -59 263 i;
#X obj 43 210 moses 9.5;
#X obj 43 263 i;
#X obj -59 232 + 48;
#X obj -1 232 + 55;
#X obj 101 232 + 55;
#X obj 43 233 + 48;
#X obj -59 44 inlet;
#X obj -59 287 outlet;
#X obj 43 287 outlet;
#X text 199 13 convert the decimal float to a 2 digit hexadecimal number
;
#X text 258 37 then to 2 ascii char;
#X text 255 59 then to 2 decimal int = ascii value of this 2 chars
;
#X obj -59 68 min 255;
#X obj -59 92 max 0;
#X connect 0 0 1 0;
#X connect 1 0 4 0;
#X connect 2 0 6 0;
#X connect 3 0 0 0;
#X connect 3 1 2 0;
#X connect 4 0 8 0;
#X connect 4 1 9 0;
#X connect 5 0 13 0;
#X connect 6 0 11 0;
#X connect 6 1 10 0;
#X connect 7 0 14 0;
#X connect 8 0 5 0;
#X connect 9 0 5 0;
#X connect 10 0 7 0;
#X connect 11 0 7 0;
#X connect 12 0 18 0;
#X connect 18 0 19 0;
#X connect 19 0 3 0;
#X restore 313 141 pd i2decascii;
#N canvas 0 22 790 364 i2decascii 0;
#X obj -59 155 / 16;
#X obj -59 182 i;
#X obj 43 156 % 16;
#X obj -59 118 t f f;
#X obj -59 210 moses 9.5;
#X obj -59 263 i;
#X obj 43 210 moses 9.5;
#X obj 43 263 i;
#X obj -59 232 + 48;
#X obj -1 232 + 55;
#X obj 101 232 + 55;
#X obj 43 233 + 48;
#X obj -59 44 inlet;
#X obj -59 287 outlet;
#X obj 43 287 outlet;
#X text 199 13 convert the decimal float to a 2 digit hexadecimal number
;
#X text 258 37 then to 2 ascii char;
#X text 255 59 then to 2 decimal int = ascii value of this 2 chars
;
#X obj -59 68 min 255;
#X obj -59 92 max 0;
#X connect 0 0 1 0;
#X connect 1 0 4 0;
#X connect 2 0 6 0;
#X connect 3 0 0 0;
#X connect 3 1 2 0;
#X connect 4 0 8 0;
#X connect 4 1 9 0;
#X connect 5 0 13 0;
#X connect 6 0 11 0;
#X connect 6 1 10 0;
#X connect 7 0 14 0;
#X connect 8 0 5 0;
#X connect 9 0 5 0;
#X connect 10 0 7 0;
#X connect 11 0 7 0;
#X connect 12 0 18 0;
#X connect 18 0 19 0;
#X connect 19 0 3 0;
#X restore 119 137 pd i2decascii;
#N canvas 0 22 790 364 i2decascii 0;
#X obj -59 155 / 16;
#X obj -59 182 i;
#X obj 43 156 % 16;
#X obj -59 118 t f f;
#X obj -59 210 moses 9.5;
#X obj -59 263 i;
#X obj 43 210 moses 9.5;
#X obj 43 263 i;
#X obj -59 232 + 48;
#X obj -1 232 + 55;
#X obj 101 232 + 55;
#X obj 43 233 + 48;
#X obj -59 44 inlet;
#X obj -59 287 outlet;
#X obj 43 287 outlet;
#X text 199 13 convert the decimal float to a 2 digit hexadecimal number
;
#X text 258 37 then to 2 ascii char;
#X text 255 59 then to 2 decimal int = ascii value of this 2 chars
;
#X obj -59 68 min 255;
#X obj -59 92 max 0;
#X connect 0 0 1 0;
#X connect 1 0 4 0;
#X connect 2 0 6 0;
#X connect 3 0 0 0;
#X connect 3 1 2 0;
#X connect 4 0 8 0;
#X connect 4 1 9 0;
#X connect 5 0 13 0;
#X connect 6 0 11 0;
#X connect 6 1 10 0;
#X connect 7 0 14 0;
#X connect 8 0 5 0;
#X connect 9 0 5 0;
#X connect 10 0 7 0;
#X connect 11 0 7 0;
#X connect 12 0 18 0;
#X connect 18 0 19 0;
#X connect 19 0 3 0;
#X restore 213 137 pd i2decascii;
#X msg 109 215 send 42 67 57 \$3 \$4 \$5 \$6 \$1 \$2 35 10;
#X connect 0 0 6 0;
#X connect 1 0 7 0;
#X connect 2 0 5 0;
#X connect 4 0 8 0;
#X connect 5 0 4 4;
#X connect 5 1 4 5;
#X connect 6 0 4 0;
#X connect 6 1 4 1;
#X connect 7 0 4 2;
#X connect 7 1 4 3;
#X connect 8 0 3 0;
#X restore 147 131 pd ChannelSetData 1 1 1;
#X obj 175 75 unpack f f f;
#X obj 311 150 unpack f f f;
#N canvas 847 506 509 311 EngineGo 0;
#X obj 112 278 outlet;
#X obj 116 167 pack f f f f f f;
#N canvas 0 22 790 364 i2decascii 0;
#X obj -59 155 / 16;
#X obj -59 182 i;
#X obj 43 156 % 16;
#X obj -59 118 t f f;
#X obj -59 210 moses 9.5;
#X obj -59 263 i;
#X obj 43 210 moses 9.5;
#X obj 43 263 i;
#X obj -59 232 + 48;
#X obj -1 232 + 55;
#X obj 101 232 + 55;
#X obj 43 233 + 48;
#X obj -59 44 inlet;
#X obj -59 287 outlet;
#X obj 43 287 outlet;
#X text 199 13 convert the decimal float to a 2 digit hexadecimal number
;
#X text 258 37 then to 2 ascii char;
#X text 255 59 then to 2 decimal int = ascii value of this 2 chars
;
#X obj -59 68 min 255;
#X obj -59 92 max 0;
#X connect 0 0 1 0;
#X connect 1 0 4 0;
#X connect 2 0 6 0;
#X connect 3 0 0 0;
#X connect 3 1 2 0;
#X connect 4 0 8 0;
#X connect 4 1 9 0;
#X connect 5 0 13 0;
#X connect 6 0 11 0;
#X connect 6 1 10 0;
#X connect 7 0 14 0;
#X connect 8 0 5 0;
#X connect 9 0 5 0;
#X connect 10 0 7 0;
#X connect 11 0 7 0;
#X connect 12 0 18 0;
#X connect 18 0 19 0;
#X connect 19 0 3 0;
#X restore 313 141 pd i2decascii;
#N canvas 0 22 790 364 i2decascii 0;
#X obj -59 155 / 16;
#X obj -59 182 i;
#X obj 43 156 % 16;
#X obj -59 118 t f f;
#X obj -59 210 moses 9.5;
#X obj -59 263 i;
#X obj 43 210 moses 9.5;
#X obj 43 263 i;
#X obj -59 232 + 48;
#X obj -1 232 + 55;
#X obj 101 232 + 55;
#X obj 43 233 + 48;
#X obj -59 44 inlet;
#X obj -59 287 outlet;
#X obj 43 287 outlet;
#X text 199 13 convert the decimal float to a 2 digit hexadecimal number
;
#X text 258 37 then to 2 ascii char;
#X text 255 59 then to 2 decimal int = ascii value of this 2 chars
;
#X obj -59 68 min 255;
#X obj -59 92 max 0;
#X connect 0 0 1 0;
#X connect 1 0 4 0;
#X connect 2 0 6 0;
#X connect 3 0 0 0;
#X connect 3 1 2 0;
#X connect 4 0 8 0;
#X connect 4 1 9 0;
#X connect 5 0 13 0;
#X connect 6 0 11 0;
#X connect 6 1 10 0;
#X connect 7 0 14 0;
#X connect 8 0 5 0;
#X connect 9 0 5 0;
#X connect 10 0 7 0;
#X connect 11 0 7 0;
#X connect 12 0 18 0;
#X connect 18 0 19 0;
#X connect 19 0 3 0;
#X restore 119 137 pd i2decascii;
#X obj 323 56 inlet cuestep;
#X obj 213 51 inlet cuelist;
#X obj 92 24 inlet engine;
#X msg 112 221 send 42 53 54 \$1 \$2 48 48 \$3 \$4 \$5 \$6 35 10;
#N canvas 0 22 790 364 i2decascii 0;
#X obj -59 155 / 16;
#X obj -59 182 i;
#X obj 43 156 % 16;
#X obj -59 118 t f f;
#X obj -59 210 moses 9.5;
#X obj -59 263 i;
#X obj 43 210 moses 9.5;
#X obj 43 263 i;
#X obj -59 232 + 48;
#X obj -1 232 + 55;
#X obj 101 232 + 55;
#X obj 43 233 + 48;
#X obj -59 44 inlet;
#X obj -59 287 outlet;
#X obj 43 287 outlet;
#X text 199 13 convert the decimal float to a 2 digit hexadecimal number
;
#X text 258 37 then to 2 ascii char;
#X text 255 59 then to 2 decimal int = ascii value of this 2 chars
;
#X obj -59 68 min 255;
#X obj -59 92 max 0;
#X connect 0 0 1 0;
#X connect 1 0 4 0;
#X connect 2 0 6 0;
#X connect 3 0 0 0;
#X connect 3 1 2 0;
#X connect 4 0 8 0;
#X connect 4 1 9 0;
#X connect 5 0 13 0;
#X connect 6 0 11 0;
#X connect 6 1 10 0;
#X connect 7 0 14 0;
#X connect 8 0 5 0;
#X connect 9 0 5 0;
#X connect 10 0 7 0;
#X connect 11 0 7 0;
#X connect 12 0 18 0;
#X connect 18 0 19 0;
#X connect 19 0 3 0;
#X restore 215 135 pd i2decascii;
#X connect 1 0 7 0;
#X connect 2 0 1 4;
#X connect 2 1 1 5;
#X connect 3 0 1 0;
#X connect 3 1 1 1;
#X connect 4 0 2 0;
#X connect 5 0 8 0;
#X connect 6 0 3 0;
#X connect 7 0 0 0;
#X connect 8 0 1 2;
#X connect 8 1 1 3;
#X restore 287 186 pd EngineGo 1 1 0;
#X obj 175 12 inlet;
#N canvas 241 136 509 311 EngineNext 0;
#X obj 112 278 outlet;
#N canvas 74 34 790 364 i2decascii 0;
#X obj -59 155 / 16;
#X obj -59 182 i;
#X obj 43 156 % 16;
#X obj -59 118 t f f;
#X obj -59 210 moses 9.5;
#X obj -59 263 i;
#X obj 43 210 moses 9.5;
#X obj 43 263 i;
#X obj -59 232 + 48;
#X obj -1 232 + 55;
#X obj 101 232 + 55;
#X obj 43 233 + 48;
#X obj -59 44 inlet;
#X obj -59 287 outlet;
#X obj 43 287 outlet;
#X text 199 13 convert the decimal float to a 2 digit hexadecimal number
;
#X text 258 37 then to 2 ascii char;
#X text 255 59 then to 2 decimal int = ascii value of this 2 chars
;
#X obj -59 68 min 255;
#X obj -59 92 max 0;
#X connect 0 0 1 0;
#X connect 1 0 4 0;
#X connect 2 0 6 0;
#X connect 3 0 0 0;
#X connect 3 1 2 0;
#X connect 4 0 8 0;
#X connect 4 1 9 0;
#X connect 5 0 13 0;
#X connect 6 0 11 0;
#X connect 6 1 10 0;
#X connect 7 0 14 0;
#X connect 8 0 5 0;
#X connect 9 0 5 0;
#X connect 10 0 7 0;
#X connect 11 0 7 0;
#X connect 12 0 18 0;
#X connect 18 0 19 0;
#X connect 19 0 3 0;
#X restore 119 137 pd i2decascii;
#X obj 92 24 inlet engine;
#X obj 117 167 pack f f;
#X msg 112 221 send 42 53 65 \$1 \$2 35 10;
#X connect 1 0 3 0;
#X connect 1 1 3 1;
#X connect 2 0 1 0;
#X connect 3 0 4 0;
#X connect 4 0 0 0;
#X restore 434 151 pd EngineNext;
#N canvas 400 504 345 319 EnginePrevious 0;
#X obj 122 288 outlet;
#N canvas 0 22 790 364 i2decascii 0;
#X obj -59 155 / 16;
#X obj -59 182 i;
#X obj 43 156 % 16;
#X obj -59 118 t f f;
#X obj -59 210 moses 9.5;
#X obj -59 263 i;
#X obj 43 210 moses 9.5;
#X obj 43 263 i;
#X obj -59 232 + 48;
#X obj -1 232 + 55;
#X obj 101 232 + 55;
#X obj 43 233 + 48;
#X obj -59 44 inlet;
#X obj -59 287 outlet;
#X obj 43 287 outlet;
#X text 199 13 convert the decimal float to a 2 digit hexadecimal number
;
#X text 258 37 then to 2 ascii char;
#X text 255 59 then to 2 decimal int = ascii value of this 2 chars
;
#X obj -59 68 min 255;
#X obj -59 92 max 0;
#X connect 0 0 1 0;
#X connect 1 0 4 0;
#X connect 2 0 6 0;
#X connect 3 0 0 0;
#X connect 3 1 2 0;
#X connect 4 0 8 0;
#X connect 4 1 9 0;
#X connect 5 0 13 0;
#X connect 6 0 11 0;
#X connect 6 1 10 0;
#X connect 7 0 14 0;
#X connect 8 0 5 0;
#X connect 9 0 5 0;
#X connect 10 0 7 0;
#X connect 11 0 7 0;
#X connect 12 0 18 0;
#X connect 18 0 19 0;
#X connect 19 0 3 0;
#X restore 129 147 pd i2decascii;
#X obj 102 34 inlet engine;
#X obj 127 177 pack f f;
#X msg 120 232 send 42 53 66 \$1 \$2 35 10;
#X connect 1 0 3 0;
#X connect 1 1 3 1;
#X connect 2 0 1 0;
#X connect 3 0 4 0;
#X connect 4 0 0 0;
#X restore 527 147 pd EnginePrevious;
#X obj 528 279 nop;
#X obj 175 43 route ChannelValue EngineGo EngineNext EnginePrevious
;
#N canvas 771 506 509 311 EngineClear 0;
#X obj 122 288 outlet;
#N canvas 0 22 790 364 i2decascii 0;
#X obj -59 155 / 16;
#X obj -59 182 i;
#X obj 43 156 % 16;
#X obj -59 118 t f f;
#X obj -59 210 moses 9.5;
#X obj -59 263 i;
#X obj 43 210 moses 9.5;
#X obj 43 263 i;
#X obj -59 232 + 48;
#X obj -1 232 + 55;
#X obj 101 232 + 55;
#X obj 43 233 + 48;
#X obj -59 44 inlet;
#X obj -59 287 outlet;
#X obj 43 287 outlet;
#X text 199 13 convert the decimal float to a 2 digit hexadecimal number
;
#X text 258 37 then to 2 ascii char;
#X text 255 59 then to 2 decimal int = ascii value of this 2 chars
;
#X obj -59 68 min 255;
#X obj -59 92 max 0;
#X connect 0 0 1 0;
#X connect 1 0 4 0;
#X connect 2 0 6 0;
#X connect 3 0 0 0;
#X connect 3 1 2 0;
#X connect 4 0 8 0;
#X connect 4 1 9 0;
#X connect 5 0 13 0;
#X connect 6 0 11 0;
#X connect 6 1 10 0;
#X connect 7 0 14 0;
#X connect 8 0 5 0;
#X connect 9 0 5 0;
#X connect 10 0 7 0;
#X connect 11 0 7 0;
#X connect 12 0 18 0;
#X connect 18 0 19 0;
#X connect 19 0 3 0;
#X restore 129 147 pd i2decascii;
#X obj 102 34 inlet engine;
#X obj 127 177 pack f f;
#X msg 120 232 send 42 53 55 \$1 \$2 35 10;
#X connect 1 0 3 0;
#X connect 1 1 3 1;
#X connect 2 0 1 0;
#X connect 3 0 4 0;
#X connect 4 0 0 0;
#X restore 668 97 pd EngineClear;
#X obj 770 71 unpack;
#N canvas 847 506 509 311 EngineSetFading 0;
#X obj 112 278 outlet;
#N canvas 0 22 790 364 i2decascii 0;
#X obj -59 155 / 16;
#X obj -59 182 i;
#X obj 43 156 % 16;
#X obj -59 118 t f f;
#X obj -59 210 moses 9.5;
#X obj -59 263 i;
#X obj 43 210 moses 9.5;
#X obj 43 263 i;
#X obj -59 232 + 48;
#X obj -1 232 + 55;
#X obj 101 232 + 55;
#X obj 43 233 + 48;
#X obj -59 44 inlet;
#X obj -59 287 outlet;
#X obj 43 287 outlet;
#X text 199 13 convert the decimal float to a 2 digit hexadecimal number
;
#X text 258 37 then to 2 ascii char;
#X text 255 59 then to 2 decimal int = ascii value of this 2 chars
;
#X obj -59 68 min 255;
#X obj -59 92 max 0;
#X connect 0 0 1 0;
#X connect 1 0 4 0;
#X connect 2 0 6 0;
#X connect 3 0 0 0;
#X connect 3 1 2 0;
#X connect 4 0 8 0;
#X connect 4 1 9 0;
#X connect 5 0 13 0;
#X connect 6 0 11 0;
#X connect 6 1 10 0;
#X connect 7 0 14 0;
#X connect 8 0 5 0;
#X connect 9 0 5 0;
#X connect 10 0 7 0;
#X connect 11 0 7 0;
#X connect 12 0 18 0;
#X connect 18 0 19 0;
#X connect 19 0 3 0;
#X restore 108 101 pd i2decascii;
#X obj 92 24 inlet engine;
#N canvas 0 22 790 364 i2decascii 0;
#X obj -59 155 / 16;
#X obj -59 182 i;
#X obj 43 156 % 16;
#X obj -59 118 t f f;
#X obj -59 210 moses 9.5;
#X obj -59 263 i;
#X obj 43 210 moses 9.5;
#X obj 43 263 i;
#X obj -59 232 + 48;
#X obj -1 232 + 55;
#X obj 101 232 + 55;
#X obj 43 233 + 48;
#X obj -59 44 inlet;
#X obj -59 287 outlet;
#X obj 43 287 outlet;
#X text 199 13 convert the decimal float to a 2 digit hexadecimal number
;
#X text 258 37 then to 2 ascii char;
#X text 255 59 then to 2 decimal int = ascii value of this 2 chars
;
#X obj -59 68 min 255;
#X obj -59 92 max 0;
#X connect 0 0 1 0;
#X connect 1 0 4 0;
#X connect 2 0 6 0;
#X connect 3 0 0 0;
#X connect 3 1 2 0;
#X connect 4 0 8 0;
#X connect 4 1 9 0;
#X connect 5 0 13 0;
#X connect 6 0 11 0;
#X connect 6 1 10 0;
#X connect 7 0 14 0;
#X connect 8 0 5 0;
#X connect 9 0 5 0;
#X connect 10 0 7 0;
#X connect 11 0 7 0;
#X connect 12 0 18 0;
#X connect 18 0 19 0;
#X connect 19 0 3 0;
#X restore 215 135 pd i2decascii;
#X msg 113 221 send 42 52 54 \$1 \$2 \$3 \$4 35 10;
#X obj 213 51 inlet onoff;
#X obj 116 167 pack f f f f;
#X connect 1 0 6 0;
#X connect 1 1 6 1;
#X connect 2 0 1 0;
#X connect 3 0 6 2;
#X connect 3 1 6 3;
#X connect 4 0 0 0;
#X connect 5 0 3 0;
#X connect 6 0 4 0;
#X restore 769 99 pd EngineSetFading;
#X obj 891 77 unpack;
#N canvas 771 506 509 311 EngineSetFadeType 0;
#X obj 112 278 outlet;
#N canvas 0 22 790 364 i2decascii 0;
#X obj -59 155 / 16;
#X obj -59 182 i;
#X obj 43 156 % 16;
#X obj -59 118 t f f;
#X obj -59 210 moses 9.5;
#X obj -59 263 i;
#X obj 43 210 moses 9.5;
#X obj 43 263 i;
#X obj -59 232 + 48;
#X obj -1 232 + 55;
#X obj 101 232 + 55;
#X obj 43 233 + 48;
#X obj -59 44 inlet;
#X obj -59 287 outlet;
#X obj 43 287 outlet;
#X text 199 13 convert the decimal float to a 2 digit hexadecimal number
;
#X text 258 37 then to 2 ascii char;
#X text 255 59 then to 2 decimal int = ascii value of this 2 chars
;
#X obj -59 68 min 255;
#X obj -59 92 max 0;
#X connect 0 0 1 0;
#X connect 1 0 4 0;
#X connect 2 0 6 0;
#X connect 3 0 0 0;
#X connect 3 1 2 0;
#X connect 4 0 8 0;
#X connect 4 1 9 0;
#X connect 5 0 13 0;
#X connect 6 0 11 0;
#X connect 6 1 10 0;
#X connect 7 0 14 0;
#X connect 8 0 5 0;
#X connect 9 0 5 0;
#X connect 10 0 7 0;
#X connect 11 0 7 0;
#X connect 12 0 18 0;
#X connect 18 0 19 0;
#X connect 19 0 3 0;
#X restore 108 101 pd i2decascii;
#X obj 92 24 inlet engine;
#N canvas 0 22 790 364 i2decascii 0;
#X obj -59 155 / 16;
#X obj -59 182 i;
#X obj 43 156 % 16;
#X obj -59 118 t f f;
#X obj -59 210 moses 9.5;
#X obj -59 263 i;
#X obj 43 210 moses 9.5;
#X obj 43 263 i;
#X obj -59 232 + 48;
#X obj -1 232 + 55;
#X obj 101 232 + 55;
#X obj 43 233 + 48;
#X obj -59 44 inlet;
#X obj -59 287 outlet;
#X obj 43 287 outlet;
#X text 199 13 convert the decimal float to a 2 digit hexadecimal number
;
#X text 258 37 then to 2 ascii char;
#X text 255 59 then to 2 decimal int = ascii value of this 2 chars
;
#X obj -59 68 min 255;
#X obj -59 92 max 0;
#X connect 0 0 1 0;
#X connect 1 0 4 0;
#X connect 2 0 6 0;
#X connect 3 0 0 0;
#X connect 3 1 2 0;
#X connect 4 0 8 0;
#X connect 4 1 9 0;
#X connect 5 0 13 0;
#X connect 6 0 11 0;
#X connect 6 1 10 0;
#X connect 7 0 14 0;
#X connect 8 0 5 0;
#X connect 9 0 5 0;
#X connect 10 0 7 0;
#X connect 11 0 7 0;
#X connect 12 0 18 0;
#X connect 18 0 19 0;
#X connect 19 0 3 0;
#X restore 211 109 pd i2decascii;
#X obj 116 167 pack f f f f;
#X msg 113 221 send 42 52 68 \$1 \$2 \$3 \$4 35 10;
#X obj 225 29 inlet fadetype;
#X obj 227 64 clip 0 7;
#X connect 1 0 4 0;
#X connect 1 1 4 1;
#X connect 2 0 1 0;
#X connect 3 0 4 2;
#X connect 3 1 4 3;
#X connect 4 0 5 0;
#X connect 5 0 0 0;
#X connect 6 0 7 0;
#X connect 7 0 3 0;
#X restore 891 118 pd EngineSetFadeType;
#X obj 671 45 route EngineClear EngineSetFading EngineSetFadeType;
#X obj 1050 100 unpack;
#N canvas 771 506 509 311 EngineSetFadeTime 0;
#X obj 112 278 outlet;
#N canvas 0 22 790 364 i2decascii 0;
#X obj -59 155 / 16;
#X obj -59 182 i;
#X obj 43 156 % 16;
#X obj -59 118 t f f;
#X obj -59 210 moses 9.5;
#X obj -59 263 i;
#X obj 43 210 moses 9.5;
#X obj 43 263 i;
#X obj -59 232 + 48;
#X obj -1 232 + 55;
#X obj 101 232 + 55;
#X obj 43 233 + 48;
#X obj -59 44 inlet;
#X obj -59 287 outlet;
#X obj 43 287 outlet;
#X text 199 13 convert the decimal float to a 2 digit hexadecimal number
;
#X text 258 37 then to 2 ascii char;
#X text 255 59 then to 2 decimal int = ascii value of this 2 chars
;
#X obj -59 68 min 255;
#X obj -59 92 max 0;
#X connect 0 0 1 0;
#X connect 1 0 4 0;
#X connect 2 0 6 0;
#X connect 3 0 0 0;
#X connect 3 1 2 0;
#X connect 4 0 8 0;
#X connect 4 1 9 0;
#X connect 5 0 13 0;
#X connect 6 0 11 0;
#X connect 6 1 10 0;
#X connect 7 0 14 0;
#X connect 8 0 5 0;
#X connect 9 0 5 0;
#X connect 10 0 7 0;
#X connect 11 0 7 0;
#X connect 12 0 18 0;
#X connect 18 0 19 0;
#X connect 19 0 3 0;
#X restore 108 101 pd i2decascii;
#X obj 92 24 inlet engine;
#N canvas 0 22 790 364 i2decascii 0;
#X obj -59 155 / 16;
#X obj -59 182 i;
#X obj 43 156 % 16;
#X obj -59 118 t f f;
#X obj -59 210 moses 9.5;
#X obj -59 263 i;
#X obj 43 210 moses 9.5;
#X obj 43 263 i;
#X obj -59 232 + 48;
#X obj -1 232 + 55;
#X obj 101 232 + 55;
#X obj 43 233 + 48;
#X obj -59 44 inlet;
#X obj -59 287 outlet;
#X obj 43 287 outlet;
#X text 199 13 convert the decimal float to a 2 digit hexadecimal number
;
#X text 258 37 then to 2 ascii char;
#X text 255 59 then to 2 decimal int = ascii value of this 2 chars
;
#X obj -59 68 min 255;
#X obj -59 92 max 0;
#X connect 0 0 1 0;
#X connect 1 0 4 0;
#X connect 2 0 6 0;
#X connect 3 0 0 0;
#X connect 3 1 2 0;
#X connect 4 0 8 0;
#X connect 4 1 9 0;
#X connect 5 0 13 0;
#X connect 6 0 11 0;
#X connect 6 1 10 0;
#X connect 7 0 14 0;
#X connect 8 0 5 0;
#X connect 9 0 5 0;
#X connect 10 0 7 0;
#X connect 11 0 7 0;
#X connect 12 0 18 0;
#X connect 18 0 19 0;
#X connect 19 0 3 0;
#X restore 211 101 pd i2decascii;
#X obj 116 167 pack f f f f;
#X obj 211 49 clip 0 91;
#X obj 211 21 inlet fadetime;
#X msg 113 221 send 42 52 69 \$1 \$2 \$3 \$4 35 10;
#X connect 1 0 4 0;
#X connect 1 1 4 1;
#X connect 2 0 1 0;
#X connect 3 0 4 2;
#X connect 3 1 4 3;
#X connect 4 0 7 0;
#X connect 5 0 3 0;
#X connect 6 0 5 0;
#X connect 7 0 0 0;
#X restore 1050 141 pd EngineSetFadeTime;
#X obj 1199 102 unpack;
#N canvas 771 506 509 311 EngineSetMixMode 0;
#X obj 112 278 outlet;
#N canvas 0 22 790 364 i2decascii 0;
#X obj -59 155 / 16;
#X obj -59 182 i;
#X obj 43 156 % 16;
#X obj -59 118 t f f;
#X obj -59 210 moses 9.5;
#X obj -59 263 i;
#X obj 43 210 moses 9.5;
#X obj 43 263 i;
#X obj -59 232 + 48;
#X obj -1 232 + 55;
#X obj 101 232 + 55;
#X obj 43 233 + 48;
#X obj -59 44 inlet;
#X obj -59 287 outlet;
#X obj 43 287 outlet;
#X text 199 13 convert the decimal float to a 2 digit hexadecimal number
;
#X text 258 37 then to 2 ascii char;
#X text 255 59 then to 2 decimal int = ascii value of this 2 chars
;
#X obj -59 68 min 255;
#X obj -59 92 max 0;
#X connect 0 0 1 0;
#X connect 1 0 4 0;
#X connect 2 0 6 0;
#X connect 3 0 0 0;
#X connect 3 1 2 0;
#X connect 4 0 8 0;
#X connect 4 1 9 0;
#X connect 5 0 13 0;
#X connect 6 0 11 0;
#X connect 6 1 10 0;
#X connect 7 0 14 0;
#X connect 8 0 5 0;
#X connect 9 0 5 0;
#X connect 10 0 7 0;
#X connect 11 0 7 0;
#X connect 12 0 18 0;
#X connect 18 0 19 0;
#X connect 19 0 3 0;
#X restore 108 101 pd i2decascii;
#X obj 92 24 inlet engine;
#N canvas 0 22 790 364 i2decascii 0;
#X obj -59 155 / 16;
#X obj -59 182 i;
#X obj 43 156 % 16;
#X obj -59 118 t f f;
#X obj -59 210 moses 9.5;
#X obj -59 263 i;
#X obj 43 210 moses 9.5;
#X obj 43 263 i;
#X obj -59 232 + 48;
#X obj -1 232 + 55;
#X obj 101 232 + 55;
#X obj 43 233 + 48;
#X obj -59 44 inlet;
#X obj -59 287 outlet;
#X obj 43 287 outlet;
#X text 199 13 convert the decimal float to a 2 digit hexadecimal number
;
#X text 258 37 then to 2 ascii char;
#X text 255 59 then to 2 decimal int = ascii value of this 2 chars
;
#X obj -59 68 min 255;
#X obj -59 92 max 0;
#X connect 0 0 1 0;
#X connect 1 0 4 0;
#X connect 2 0 6 0;
#X connect 3 0 0 0;
#X connect 3 1 2 0;
#X connect 4 0 8 0;
#X connect 4 1 9 0;
#X connect 5 0 13 0;
#X connect 6 0 11 0;
#X connect 6 1 10 0;
#X connect 7 0 14 0;
#X connect 8 0 5 0;
#X connect 9 0 5 0;
#X connect 10 0 7 0;
#X connect 11 0 7 0;
#X connect 12 0 18 0;
#X connect 18 0 19 0;
#X connect 19 0 3 0;
#X restore 211 109 pd i2decascii;
#X obj 116 167 pack f f f f;
#X obj 225 29 inlet fadetype;
#X obj 227 64 clip 0 7;
#X msg 113 221 send 42 52 55 \$1 \$2 \$3 \$4 35 10;
#X connect 1 0 4 0;
#X connect 1 1 4 1;
#X connect 2 0 1 0;
#X connect 3 0 4 2;
#X connect 3 1 4 3;
#X connect 4 0 7 0;
#X connect 5 0 6 0;
#X connect 6 0 3 0;
#X connect 7 0 0 0;
#X restore 1199 143 pd EngineSetMixMode;
#N canvas 356 483 509 311 EnginePauze 0;
#X obj 132 281 outlet;
#N canvas 0 22 790 364 i2decascii 0;
#X obj -59 155 / 16;
#X obj -59 182 i;
#X obj 43 156 % 16;
#X obj -59 118 t f f;
#X obj -59 210 moses 9.5;
#X obj -59 263 i;
#X obj 43 210 moses 9.5;
#X obj 43 263 i;
#X obj -59 232 + 48;
#X obj -1 232 + 55;
#X obj 101 232 + 55;
#X obj 43 233 + 48;
#X obj -59 44 inlet;
#X obj -59 287 outlet;
#X obj 43 287 outlet;
#X text 199 13 convert the decimal float to a 2 digit hexadecimal number
;
#X text 258 37 then to 2 ascii char;
#X text 255 59 then to 2 decimal int = ascii value of this 2 chars
;
#X obj -59 68 min 255;
#X obj -59 92 max 0;
#X connect 0 0 1 0;
#X connect 1 0 4 0;
#X connect 2 0 6 0;
#X connect 3 0 0 0;
#X connect 3 1 2 0;
#X connect 4 0 8 0;
#X connect 4 1 9 0;
#X connect 5 0 13 0;
#X connect 6 0 11 0;
#X connect 6 1 10 0;
#X connect 7 0 14 0;
#X connect 8 0 5 0;
#X connect 9 0 5 0;
#X connect 10 0 7 0;
#X connect 11 0 7 0;
#X connect 12 0 18 0;
#X connect 18 0 19 0;
#X connect 19 0 3 0;
#X restore 139 157 pd i2decascii;
#X obj 112 44 inlet engine;
#X obj 137 187 pack f f;
#X msg 132 241 send 42 53 56 \$1 \$2 35 10;
#X connect 1 0 3 0;
#X connect 1 1 3 1;
#X connect 2 0 1 0;
#X connect 3 0 4 0;
#X connect 4 0 0 0;
#X restore 1055 218 pd EnginePauze;
#N canvas 741 536 509 311 EngineResume 0;
#X obj 68 183 outlet;
#X obj 92 24 inlet engine;
#N canvas 0 22 790 364 i2decascii 0;
#X obj -59 155 / 16;
#X obj -59 182 i;
#X obj 43 156 % 16;
#X obj -59 118 t f f;
#X obj -59 210 moses 9.5;
#X obj -59 263 i;
#X obj 43 210 moses 9.5;
#X obj 43 263 i;
#X obj -59 232 + 48;
#X obj -1 232 + 55;
#X obj 101 232 + 55;
#X obj 43 233 + 48;
#X obj -59 44 inlet;
#X obj -59 287 outlet;
#X obj 43 287 outlet;
#X text 199 13 convert the decimal float to a 2 digit hexadecimal number
;
#X text 258 37 then to 2 ascii char;
#X text 255 59 then to 2 decimal int = ascii value of this 2 chars
;
#X obj -59 68 min 255;
#X obj -59 92 max 0;
#X connect 0 0 1 0;
#X connect 1 0 4 0;
#X connect 2 0 6 0;
#X connect 3 0 0 0;
#X connect 3 1 2 0;
#X connect 4 0 8 0;
#X connect 4 1 9 0;
#X connect 5 0 13 0;
#X connect 6 0 11 0;
#X connect 6 1 10 0;
#X connect 7 0 14 0;
#X connect 8 0 5 0;
#X connect 9 0 5 0;
#X connect 10 0 7 0;
#X connect 11 0 7 0;
#X connect 12 0 18 0;
#X connect 18 0 19 0;
#X connect 19 0 3 0;
#X restore 78 65 pd i2decascii;
#X obj 76 95 pack f f;
#X msg 68 150 send 42 53 57 \$1 \$2 35 10;
#X connect 1 0 2 0;
#X connect 2 0 3 0;
#X connect 2 1 3 1;
#X connect 3 0 4 0;
#X connect 4 0 0 0;
#X restore 1148 219 pd EngineResume;
#X obj 1324 294 print Warning;
#X obj 1332 248 flow.prepend lanbox.main unknow message:;
#X obj 1055 193 route EnginePauze EngineResume ChannelReadData;
#N canvas 741 536 509 311 ChannelReadData 0;
#X obj 68 183 outlet;
#X obj 82 14 inlet engine;
#N canvas 0 22 790 364 i2decascii 0;
#X obj -59 155 / 16;
#X obj -59 182 i;
#X obj 43 156 % 16;
#X obj -59 118 t f f;
#X obj -59 210 moses 9.5;
#X obj -59 263 i;
#X obj 43 210 moses 9.5;
#X obj 43 263 i;
#X obj -59 232 + 48;
#X obj -1 232 + 55;
#X obj 101 232 + 55;
#X obj 43 233 + 48;
#X obj -59 44 inlet;
#X obj -59 287 outlet;
#X obj 43 287 outlet;
#X text 199 13 convert the decimal float to a 2 digit hexadecimal number
;
#X text 258 37 then to 2 ascii char;
#X text 255 59 then to 2 decimal int = ascii value of this 2 chars
;
#X obj -59 68 min 255;
#X obj -59 92 max 0;
#X connect 0 0 1 0;
#X connect 1 0 4 0;
#X connect 2 0 6 0;
#X connect 3 0 0 0;
#X connect 3 1 2 0;
#X connect 4 0 8 0;
#X connect 4 1 9 0;
#X connect 5 0 13 0;
#X connect 6 0 11 0;
#X connect 6 1 10 0;
#X connect 7 0 14 0;
#X connect 8 0 5 0;
#X connect 9 0 5 0;
#X connect 10 0 7 0;
#X connect 11 0 7 0;
#X connect 12 0 18 0;
#X connect 18 0 19 0;
#X connect 19 0 3 0;
#X restore 78 65 pd i2decascii;
#N canvas 0 22 790 364 i2decascii 0;
#X obj -59 155 / 16;
#X obj -59 182 i;
#X obj 43 156 % 16;
#X obj -59 118 t f f;
#X obj -59 210 moses 9.5;
#X obj -59 263 i;
#X obj 43 210 moses 9.5;
#X obj 43 263 i;
#X obj -59 232 + 48;
#X obj -1 232 + 55;
#X obj 101 232 + 55;
#X obj 43 233 + 48;
#X obj -59 44 inlet;
#X obj -59 287 outlet;
#X obj 43 287 outlet;
#X text 199 13 convert the decimal float to a 2 digit hexadecimal number
;
#X text 258 37 then to 2 ascii char;
#X text 255 59 then to 2 decimal int = ascii value of this 2 chars
;
#X obj -59 68 min 255;
#X obj -59 92 max 0;
#X connect 0 0 1 0;
#X connect 1 0 4 0;
#X connect 2 0 6 0;
#X connect 3 0 0 0;
#X connect 3 1 2 0;
#X connect 4 0 8 0;
#X connect 4 1 9 0;
#X connect 5 0 13 0;
#X connect 6 0 11 0;
#X connect 6 1 10 0;
#X connect 7 0 14 0;
#X connect 8 0 5 0;
#X connect 9 0 5 0;
#X connect 10 0 7 0;
#X connect 11 0 7 0;
#X connect 12 0 18 0;
#X connect 18 0 19 0;
#X connect 19 0 3 0;
#X restore 219 68 pd i2decascii;
#N canvas 0 22 790 364 i2decascii 0;
#X obj -59 155 / 16;
#X obj -59 182 i;
#X obj 43 156 % 16;
#X obj -59 118 t f f;
#X obj -59 210 moses 9.5;
#X obj -59 263 i;
#X obj 43 210 moses 9.5;
#X obj 43 263 i;
#X obj -59 232 + 48;
#X obj -1 232 + 55;
#X obj 101 232 + 55;
#X obj 43 233 + 48;
#X obj -59 44 inlet;
#X obj -59 287 outlet;
#X obj 43 287 outlet;
#X text 199 13 convert the decimal float to a 2 digit hexadecimal number
;
#X text 258 37 then to 2 ascii char;
#X text 255 59 then to 2 decimal int = ascii value of this 2 chars
;
#X obj -59 68 min 255;
#X obj -59 92 max 0;
#X connect 0 0 1 0;
#X connect 1 0 4 0;
#X connect 2 0 6 0;
#X connect 3 0 0 0;
#X connect 3 1 2 0;
#X connect 4 0 8 0;
#X connect 4 1 9 0;
#X connect 5 0 13 0;
#X connect 6 0 11 0;
#X connect 6 1 10 0;
#X connect 7 0 14 0;
#X connect 8 0 5 0;
#X connect 9 0 5 0;
#X connect 10 0 7 0;
#X connect 11 0 7 0;
#X connect 12 0 18 0;
#X connect 18 0 19 0;
#X connect 19 0 3 0;
#X restore 330 63 pd i2decascii;
#X obj 86 118 pack f f f f f f;
#X obj 331 23 inlet channel number;
#X obj 196 20 inlet channel offset;
#X msg 68 150 send 42 67 68 \$1 \$2 \$3 \$4 \$5 \$6 35 10;
#X connect 1 0 2 0;
#X connect 2 0 5 0;
#X connect 2 1 5 1;
#X connect 3 0 5 2;
#X connect 3 1 5 3;
#X connect 4 0 5 4;
#X connect 4 1 5 5;
#X connect 5 0 8 0;
#X connect 6 0 4 0;
#X connect 7 0 3 0;
#X connect 8 0 0 0;
#X restore 1189 271 pd ChannelReadData;
#X obj 1195 244 unpack f f f;
#X obj 1050 45 route EngineSetFadeTime EngineSetMixMode EngineSetTransparencyDepth
;
#X obj 1343 96 unpack;
#N canvas 771 76 509 311 EngineSetTransparencyDepth 0;
#X obj 112 278 outlet;
#N canvas 0 22 790 364 i2decascii 0;
#X obj -59 155 / 16;
#X obj -59 182 i;
#X obj 43 156 % 16;
#X obj -59 118 t f f;
#X obj -59 210 moses 9.5;
#X obj -59 263 i;
#X obj 43 210 moses 9.5;
#X obj 43 263 i;
#X obj -59 232 + 48;
#X obj -1 232 + 55;
#X obj 101 232 + 55;
#X obj 43 233 + 48;
#X obj -59 44 inlet;
#X obj -59 287 outlet;
#X obj 43 287 outlet;
#X text 199 13 convert the decimal float to a 2 digit hexadecimal number
;
#X text 258 37 then to 2 ascii char;
#X text 255 59 then to 2 decimal int = ascii value of this 2 chars
;
#X obj -59 68 min 255;
#X obj -59 92 max 0;
#X connect 0 0 1 0;
#X connect 1 0 4 0;
#X connect 2 0 6 0;
#X connect 3 0 0 0;
#X connect 3 1 2 0;
#X connect 4 0 8 0;
#X connect 4 1 9 0;
#X connect 5 0 13 0;
#X connect 6 0 11 0;
#X connect 6 1 10 0;
#X connect 7 0 14 0;
#X connect 8 0 5 0;
#X connect 9 0 5 0;
#X connect 10 0 7 0;
#X connect 11 0 7 0;
#X connect 12 0 18 0;
#X connect 18 0 19 0;
#X connect 19 0 3 0;
#X restore 108 101 pd i2decascii;
#X obj 92 24 inlet engine;
#N canvas 0 22 790 364 i2decascii 0;
#X obj -59 155 / 16;
#X obj -59 182 i;
#X obj 43 156 % 16;
#X obj -59 118 t f f;
#X obj -59 210 moses 9.5;
#X obj -59 263 i;
#X obj 43 210 moses 9.5;
#X obj 43 263 i;
#X obj -59 232 + 48;
#X obj -1 232 + 55;
#X obj 101 232 + 55;
#X obj 43 233 + 48;
#X obj -59 44 inlet;
#X obj -59 287 outlet;
#X obj 43 287 outlet;
#X text 199 13 convert the decimal float to a 2 digit hexadecimal number
;
#X text 258 37 then to 2 ascii char;
#X text 255 59 then to 2 decimal int = ascii value of this 2 chars
;
#X obj -59 68 min 255;
#X obj -59 92 max 0;
#X connect 0 0 1 0;
#X connect 1 0 4 0;
#X connect 2 0 6 0;
#X connect 3 0 0 0;
#X connect 3 1 2 0;
#X connect 4 0 8 0;
#X connect 4 1 9 0;
#X connect 5 0 13 0;
#X connect 6 0 11 0;
#X connect 6 1 10 0;
#X connect 7 0 14 0;
#X connect 8 0 5 0;
#X connect 9 0 5 0;
#X connect 10 0 7 0;
#X connect 11 0 7 0;
#X connect 12 0 18 0;
#X connect 18 0 19 0;
#X connect 19 0 3 0;
#X restore 211 109 pd i2decascii;
#X obj 226 29 inlet transparency;
#X obj 116 167 list.pak.4 f f f f;
#X msg 112 221 send 42 54 51 \$1 \$2 \$3 \$4 35 10;
#X connect 1 0 5 0;
#X connect 1 1 5 1;
#X connect 2 0 1 0;
#X connect 3 0 5 2;
#X connect 3 1 5 3;
#X connect 4 0 3 0;
#X connect 5 0 6 0;
#X connect 6 0 0 0;
#X restore 1343 134 pd EngineSetTransparencyDepth;
#X connect 0 0 2 0;
#X connect 2 0 1 0;
#X connect 3 0 2 0;
#X connect 4 0 3 0;
#X connect 4 1 3 1;
#X connect 4 2 3 2;
#X connect 5 0 6 0;
#X connect 5 1 6 1;
#X connect 5 2 6 2;
#X connect 6 0 2 0;
#X connect 7 0 11 0;
#X connect 8 0 10 0;
#X connect 9 0 10 0;
#X connect 10 0 2 0;
#X connect 11 0 4 0;
#X connect 11 1 5 0;
#X connect 11 2 8 0;
#X connect 11 3 9 0;
#X connect 11 4 17 0;
#X connect 12 0 10 0;
#X connect 13 0 14 0;
#X connect 13 1 14 1;
#X connect 14 0 10 0;
#X connect 15 0 16 0;
#X connect 15 1 16 1;
#X connect 16 0 10 0;
#X connect 17 0 12 0;
#X connect 17 1 13 0;
#X connect 17 2 15 0;
#X connect 17 3 29 0;
#X connect 18 0 19 0;
#X connect 18 1 19 1;
#X connect 19 0 10 0;
#X connect 20 0 21 0;
#X connect 20 1 21 1;
#X connect 21 0 10 0;
#X connect 22 0 10 0;
#X connect 23 0 10 0;
#X connect 25 0 24 0;
#X connect 26 0 22 0;
#X connect 26 1 23 0;
#X connect 26 2 28 0;
#X connect 26 3 25 0;
#X connect 27 0 10 0;
#X connect 28 0 27 0;
#X connect 28 1 27 1;
#X connect 28 2 27 2;
#X connect 29 0 18 0;
#X connect 29 1 20 0;
#X connect 29 2 30 0;
#X connect 29 3 26 0;
#X connect 30 0 31 0;
#X connect 30 1 31 1;
#X connect 31 0 10 0;
