#N canvas 2102 113 1429 789 10;
#X obj 10 -351 inlet;
#X obj 40 1062 outlet;
#N canvas 2114 48 1440 815 languts 0;
#X obj 49 11 inlet;
#X msg -45 85 disconnect;
#X text 142 134 IP and port number of the lanbox;
#X text 57 533 password (ascii value of : 777);
#X obj 50 34 route 0 1;
#X msg 470 36 send 42 54 53 70 70 35 10;
#X obj 120 431 list2symbol;
#X msg 192 408 symbol _;
#X msg 295 509 connected;
#X obj 120 458 sel 101_110_116_101_114_32_112_97_115_115_119_111_114_100_32_58
99_111_110_110_101_99_116_101_100;
#X msg 56 514 send 55 55 55 10;
#X obj 192 386 loadbang;
#X obj 295 534 print lanbox;
#X obj 428 566 outlet;
#X obj 36 109 symbol \$1;
#X msg 36 133 connect \$1 777;
#X obj 36 86 t b;
#X obj 498 517 s lbx-in;
#X obj 21 215 mrpeach/tcpclient;
#N canvas 789 286 450 300 route_for_answers 0;
#X obj 81 32 inlet;
#X obj 106 245 outlet;
#X obj 81 55 route CommonGetCurveTable;
#X obj 57 244 outlet;
#X obj 82 82 t b a b;
#X msg 110 103 symbol CommonGetCurveTable;
#X connect 0 0 2 0;
#X connect 2 0 4 0;
#X connect 2 1 1 0;
#X connect 4 1 1 0;
#X connect 4 2 5 0;
#X connect 5 0 3 0;
#X restore 465 89 pd route_for_answers;
#X obj 421 345 pack s s s;
#X obj 446 382 list2symbol;
#X obj 528 358 loadbang;
#X obj 421 297 t s b b;
#X msg 528 380 symbol -;
#X msg 448 323 symbol lbx;
#X msg 527 323 symbol in;
#X obj 413 406 send;
#N canvas 128 196 541 480 translate-asw 0;
#X obj 171 7 inlet;
#X obj 175 287 outlet;
#X obj 171 60 list split 1;
#X obj 205 86 list split 2;
#X obj 299 86 list;
#N canvas 666 123 482 400 decascii2i 0;
#X obj 78 12 inlet;
#X obj 107 277 outlet;
#X obj 78 33 unpack f f;
#X obj 78 177 - 48;
#X obj 78 206 * 16;
#X obj 78 101 moses 57.5;
#X obj 113 177 - 55;
#X obj 153 178 - 48;
#X obj 188 178 - 55;
#X obj 107 241 +;
#X obj 86 124 moses 64.5;
#X obj 153 97 moses 57.5;
#X obj 161 120 moses 64.5;
#X obj 78 55 max 48;
#X obj 153 55 max 48;
#X obj 78 78 min 70;
#X obj 153 77 min 70;
#X connect 0 0 2 0;
#X connect 2 0 13 0;
#X connect 2 1 14 0;
#X connect 3 0 4 0;
#X connect 4 0 9 0;
#X connect 5 0 3 0;
#X connect 5 1 10 0;
#X connect 6 0 4 0;
#X connect 7 0 9 1;
#X connect 8 0 9 1;
#X connect 9 0 1 0;
#X connect 10 1 6 0;
#X connect 11 0 7 0;
#X connect 11 1 12 0;
#X connect 12 1 8 0;
#X connect 13 0 15 0;
#X connect 14 0 16 0;
#X connect 15 0 5 0;
#X connect 16 0 11 0;
#X restore 250 133 pd decascii2i;
#X obj 303 155 list;
#X obj 205 111 route 35;
#X obj 183 112 bng 15 250 50 0 empty empty empty 17 7 0 10 -262144
-1 -1;
#X msg 292 15 bang;
#X obj 284 191 list;
#X obj 250 155 t b b f;
#X obj 171 32 t l b;
#X obj 175 261 list;
#X text 331 16 empty the lists;
#X text 335 86 remaining list to translate;
#X text 210 260 store current list;
#X text 336 154 already translated list;
#X text 318 191 newly translated list;
#X connect 0 0 12 0;
#X connect 2 1 3 0;
#X connect 3 0 7 0;
#X connect 3 1 4 1;
#X connect 4 0 3 0;
#X connect 5 0 11 0;
#X connect 6 0 10 0;
#X connect 7 0 8 0;
#X connect 7 1 5 0;
#X connect 8 0 13 0;
#X connect 9 0 4 1;
#X connect 9 0 6 1;
#X connect 10 0 6 1;
#X connect 10 0 13 1;
#X connect 11 0 4 0;
#X connect 11 1 6 0;
#X connect 11 2 10 1;
#X connect 12 0 2 0;
#X connect 12 1 9 0;
#X connect 13 0 1 0;
#X restore 413 271 pd translate-asw;
#X obj 463 408 print X;
#X obj -220 586 print tcpclient-output-languts;
#X text 413 210 tranlates ASCII-incoded HEX-answer into decimal values
and sends answer to CmdName-lbx-in in case of routing_for_answer implemented.
von mrpeach/tcpclient verbuden;
#X text 104 51 all commands start not with 0 or 1;
#X text 96 11 (disconnect/connect/command);
#X obj -226 205 r lbx-answer;
#X obj -220 275 prepend;
#X obj -189 232 route 62 63 42;
#X obj -159 275 print >;
#X obj -104 275 print ?;
#N canvas 668 22 736 680 lbx-answers 0;
#X obj 61 30 inlet;
#X obj 61 57 route CommonGetAppID CommonReadData CommonReadStatus;
#N canvas 387 192 927 327 asw-CoomonGetAppID 0;
#X obj 68 20 inlet;
#X obj 68 45 route 70;
#X obj 68 71 route 56 57;
#X obj 68 99 route 70;
#X obj 174 123 route 48;
#X obj 69 123 route 66 68 70;
#X obj 138 263 print LCX;
#X obj 204 264 print LXM;
#X obj 273 265 print LCE;
#X obj 69 262 print LC+;
#X obj 567 181 unpack f f;
#N canvas 372 442 874 332 asciihex2deci-8 0;
#X obj 380 24 inlet;
#X obj 527 22 inlet;
#X obj 527 45 moses 48;
#X obj 572 68 moses 58;
#X obj 572 92 - 48;
#X obj 618 91 moses 65;
#X obj 380 48 moses 48;
#X obj 425 71 moses 58;
#X obj 425 95 - 48;
#X obj 471 94 moses 65;
#X obj 445 163 * 16;
#X obj 526 206 +;
#X obj 526 230 outlet;
#X floatatom 405 130 5 0 0 0 - - -, f 5;
#X obj 516 116 - 55;
#X obj 663 113 - 55;
#X obj 191 225 print invalid ascii code for hexa-decimal number;
#X connect 0 0 6 0;
#X connect 1 0 2 0;
#X connect 2 0 16 0;
#X connect 2 1 3 0;
#X connect 3 0 4 0;
#X connect 3 1 5 0;
#X connect 4 0 11 1;
#X connect 5 0 16 0;
#X connect 5 1 15 0;
#X connect 6 0 16 0;
#X connect 6 1 7 0;
#X connect 7 0 8 0;
#X connect 7 1 9 0;
#X connect 8 0 10 0;
#X connect 8 0 13 0;
#X connect 9 0 16 0;
#X connect 9 1 14 0;
#X connect 10 0 11 0;
#X connect 11 0 12 0;
#X connect 14 0 10 0;
#X connect 15 0 11 1;
#X restore 567 205 pd asciihex2deci-8;
#N canvas 372 442 874 332 asciihex2deci-16 0;
#X obj 380 24 inlet;
#X obj 527 22 inlet;
#X obj 527 45 moses 48;
#X obj 572 68 moses 58;
#X obj 572 92 - 48;
#X obj 618 91 moses 65;
#X obj 380 48 moses 48;
#X obj 425 71 moses 58;
#X obj 425 95 - 48;
#X obj 471 94 moses 65;
#X obj 445 163 * 16;
#X obj 526 206 +;
#X obj 516 116 - 55;
#X obj 663 113 - 55;
#X obj 246 26 inlet;
#X obj 246 50 moses 48;
#X obj 291 73 moses 58;
#X obj 291 97 - 48;
#X obj 337 96 moses 65;
#X obj 382 118 - 55;
#X obj 112 30 inlet;
#X obj 112 54 moses 48;
#X obj 157 77 moses 58;
#X obj 157 101 - 48;
#X obj 203 100 moses 65;
#X obj 248 122 - 55;
#X obj 341 158 * 256;
#X obj 199 160 * 4096;
#X obj 275 201 +;
#X obj 381 241 +;
#X obj 381 268 outlet;
#X connect 0 0 6 0;
#X connect 1 0 2 0;
#X connect 2 1 3 0;
#X connect 3 0 4 0;
#X connect 3 1 5 0;
#X connect 4 0 11 1;
#X connect 5 1 13 0;
#X connect 6 1 7 0;
#X connect 7 0 8 0;
#X connect 7 1 9 0;
#X connect 8 0 10 0;
#X connect 9 1 12 0;
#X connect 10 0 11 0;
#X connect 11 0 29 1;
#X connect 12 0 10 0;
#X connect 13 0 11 1;
#X connect 14 0 15 0;
#X connect 15 1 16 0;
#X connect 16 0 17 0;
#X connect 16 1 18 0;
#X connect 17 0 26 0;
#X connect 18 1 19 0;
#X connect 19 0 26 0;
#X connect 20 0 21 0;
#X connect 21 1 22 0;
#X connect 22 0 23 0;
#X connect 22 1 24 0;
#X connect 23 0 27 0;
#X connect 24 1 25 0;
#X connect 25 0 27 0;
#X connect 26 0 28 1;
#X connect 27 0 28 0;
#X connect 28 0 29 0;
#X connect 29 0 30 0;
#X restore -27 203 pd asciihex2deci-16;
#X obj -26 176 unpack f f f f;
#N canvas 372 442 874 332 asciihex2deci-16 0;
#X obj 380 24 inlet;
#X obj 527 22 inlet;
#X obj 527 45 moses 48;
#X obj 572 68 moses 58;
#X obj 572 92 - 48;
#X obj 618 91 moses 65;
#X obj 380 48 moses 48;
#X obj 425 71 moses 58;
#X obj 425 95 - 48;
#X obj 471 94 moses 65;
#X obj 445 163 * 16;
#X obj 526 206 +;
#X obj 516 116 - 55;
#X obj 663 113 - 55;
#X obj 246 26 inlet;
#X obj 246 50 moses 48;
#X obj 291 73 moses 58;
#X obj 291 97 - 48;
#X obj 337 96 moses 65;
#X obj 382 118 - 55;
#X obj 112 30 inlet;
#X obj 112 54 moses 48;
#X obj 157 77 moses 58;
#X obj 157 101 - 48;
#X obj 203 100 moses 65;
#X obj 248 122 - 55;
#X obj 341 158 * 256;
#X obj 199 160 * 4096;
#X obj 275 201 +;
#X obj 381 241 +;
#X obj 381 268 outlet;
#X connect 0 0 6 0;
#X connect 1 0 2 0;
#X connect 2 1 3 0;
#X connect 3 0 4 0;
#X connect 3 1 5 0;
#X connect 4 0 11 1;
#X connect 5 1 13 0;
#X connect 6 1 7 0;
#X connect 7 0 8 0;
#X connect 7 1 9 0;
#X connect 8 0 10 0;
#X connect 9 1 12 0;
#X connect 10 0 11 0;
#X connect 11 0 29 1;
#X connect 12 0 10 0;
#X connect 13 0 11 1;
#X connect 14 0 15 0;
#X connect 15 1 16 0;
#X connect 16 0 17 0;
#X connect 16 1 18 0;
#X connect 17 0 26 0;
#X connect 18 1 19 0;
#X connect 19 0 26 0;
#X connect 20 0 21 0;
#X connect 21 1 22 0;
#X connect 22 0 23 0;
#X connect 22 1 24 0;
#X connect 23 0 27 0;
#X connect 24 1 25 0;
#X connect 25 0 27 0;
#X connect 26 0 28 1;
#X connect 27 0 28 0;
#X connect 28 0 29 0;
#X connect 29 0 30 0;
#X restore 104 203 pd asciihex2deci-16;
#X obj 105 176 unpack f f f f;
#N canvas 372 442 874 332 asciihex2deci-16 0;
#X obj 380 24 inlet;
#X obj 527 22 inlet;
#X obj 527 45 moses 48;
#X obj 572 68 moses 58;
#X obj 572 92 - 48;
#X obj 618 91 moses 65;
#X obj 380 48 moses 48;
#X obj 425 71 moses 58;
#X obj 425 95 - 48;
#X obj 471 94 moses 65;
#X obj 445 163 * 16;
#X obj 526 206 +;
#X obj 516 116 - 55;
#X obj 663 113 - 55;
#X obj 246 26 inlet;
#X obj 246 50 moses 48;
#X obj 291 73 moses 58;
#X obj 291 97 - 48;
#X obj 337 96 moses 65;
#X obj 382 118 - 55;
#X obj 112 30 inlet;
#X obj 112 54 moses 48;
#X obj 157 77 moses 58;
#X obj 157 101 - 48;
#X obj 203 100 moses 65;
#X obj 248 122 - 55;
#X obj 341 158 * 256;
#X obj 199 160 * 4096;
#X obj 275 201 +;
#X obj 381 241 +;
#X obj 381 268 outlet;
#X connect 0 0 6 0;
#X connect 1 0 2 0;
#X connect 2 1 3 0;
#X connect 3 0 4 0;
#X connect 3 1 5 0;
#X connect 4 0 11 1;
#X connect 5 1 13 0;
#X connect 6 1 7 0;
#X connect 7 0 8 0;
#X connect 7 1 9 0;
#X connect 8 0 10 0;
#X connect 9 1 12 0;
#X connect 10 0 11 0;
#X connect 11 0 29 1;
#X connect 12 0 10 0;
#X connect 13 0 11 1;
#X connect 14 0 15 0;
#X connect 15 1 16 0;
#X connect 16 0 17 0;
#X connect 16 1 18 0;
#X connect 17 0 26 0;
#X connect 18 1 19 0;
#X connect 19 0 26 0;
#X connect 20 0 21 0;
#X connect 21 1 22 0;
#X connect 22 0 23 0;
#X connect 22 1 24 0;
#X connect 23 0 27 0;
#X connect 24 1 25 0;
#X connect 25 0 27 0;
#X connect 26 0 28 1;
#X connect 27 0 28 0;
#X connect 28 0 29 0;
#X connect 29 0 30 0;
#X restore 235 202 pd asciihex2deci-16;
#X obj 236 175 unpack f f f f;
#N canvas 372 442 874 332 asciihex2deci-16 0;
#X obj 380 24 inlet;
#X obj 527 22 inlet;
#X obj 527 45 moses 48;
#X obj 572 68 moses 58;
#X obj 572 92 - 48;
#X obj 618 91 moses 65;
#X obj 380 48 moses 48;
#X obj 425 71 moses 58;
#X obj 425 95 - 48;
#X obj 471 94 moses 65;
#X obj 445 163 * 16;
#X obj 526 206 +;
#X obj 516 116 - 55;
#X obj 663 113 - 55;
#X obj 246 26 inlet;
#X obj 246 50 moses 48;
#X obj 291 73 moses 58;
#X obj 291 97 - 48;
#X obj 337 96 moses 65;
#X obj 382 118 - 55;
#X obj 112 30 inlet;
#X obj 112 54 moses 48;
#X obj 157 77 moses 58;
#X obj 157 101 - 48;
#X obj 203 100 moses 65;
#X obj 248 122 - 55;
#X obj 341 158 * 256;
#X obj 199 160 * 4096;
#X obj 275 201 +;
#X obj 381 241 +;
#X obj 381 268 outlet;
#X obj 53 265 print invalid ascii code for hexa-decimal number;
#X connect 0 0 6 0;
#X connect 1 0 2 0;
#X connect 2 0 31 0;
#X connect 2 1 3 0;
#X connect 3 0 4 0;
#X connect 3 1 5 0;
#X connect 4 0 11 1;
#X connect 5 0 31 0;
#X connect 5 1 13 0;
#X connect 6 0 31 0;
#X connect 6 1 7 0;
#X connect 7 0 8 0;
#X connect 7 1 9 0;
#X connect 8 0 10 0;
#X connect 9 0 31 0;
#X connect 9 1 12 0;
#X connect 10 0 11 0;
#X connect 11 0 29 1;
#X connect 12 0 10 0;
#X connect 13 0 11 1;
#X connect 14 0 15 0;
#X connect 15 0 31 0;
#X connect 15 1 16 0;
#X connect 16 0 17 0;
#X connect 16 1 18 0;
#X connect 17 0 26 0;
#X connect 18 0 31 0;
#X connect 18 1 19 0;
#X connect 19 0 26 0;
#X connect 20 0 21 0;
#X connect 21 0 31 0;
#X connect 21 1 22 0;
#X connect 22 0 23 0;
#X connect 22 1 24 0;
#X connect 23 0 27 0;
#X connect 24 0 31 0;
#X connect 24 1 25 0;
#X connect 25 0 27 0;
#X connect 26 0 28 1;
#X connect 27 0 28 0;
#X connect 28 0 29 0;
#X connect 29 0 30 0;
#X restore 365 203 pd asciihex2deci-16;
#X obj 366 176 unpack f f f f;
#X obj 280 111 print unkown AppID;
#X obj -27 229 / 100;
#X obj 104 226 / 100;
#X obj 218 229 / 100;
#X obj 364 226 / 100;
#X connect 0 0 1 0;
#X connect 1 0 2 0;
#X connect 1 1 20 0;
#X connect 2 0 3 0;
#X connect 2 1 4 0;
#X connect 2 2 20 0;
#X connect 3 0 5 0;
#X connect 4 0 19 0;
#X connect 4 1 20 0;
#X connect 5 0 13 0;
#X connect 5 1 15 0;
#X connect 5 2 17 0;
#X connect 5 3 20 0;
#X connect 10 0 11 0;
#X connect 10 1 11 1;
#X connect 12 0 21 0;
#X connect 13 0 12 0;
#X connect 13 1 12 1;
#X connect 13 2 12 2;
#X connect 13 3 12 3;
#X connect 14 0 22 0;
#X connect 15 0 14 0;
#X connect 15 1 14 1;
#X connect 15 2 14 2;
#X connect 15 3 14 3;
#X connect 16 0 23 0;
#X connect 17 0 16 0;
#X connect 17 1 16 1;
#X connect 17 2 16 2;
#X connect 17 3 16 3;
#X connect 18 0 24 0;
#X connect 19 0 18 0;
#X connect 19 1 18 1;
#X connect 19 2 18 2;
#X connect 19 3 18 3;
#X connect 21 0 9 0;
#X connect 22 0 6 0;
#X connect 23 0 7 0;
#X connect 24 0 8 0;
#X restore 61 96 pd asw-CoomonGetAppID;
#X connect 0 0 1 0;
#X connect 1 0 2 0;
#X restore -221 313 pd lbx-answers;
#X text 558 515 Not in use?;
#X obj 34 158 t b a;
#X text 637 48 comment;
#X text 636 35 ensures 16-Bit mode with every (re-)connection;
#X obj -158 128 r lbx-answer-onoff;
#X obj -190 171 spigot;
#X obj -158 152 tgl 15 0 empty empty empty 17 7 0 10 -262144 -1 -1
1 1;
#X obj 216 98 del 100;
#X connect 0 0 4 0;
#X connect 1 0 18 0;
#X connect 4 0 1 0;
#X connect 4 1 16 0;
#X connect 4 2 18 0;
#X connect 5 0 18 0;
#X connect 6 0 9 0;
#X connect 7 0 6 1;
#X connect 8 0 12 0;
#X connect 9 0 10 0;
#X connect 9 1 8 0;
#X connect 9 2 17 0;
#X connect 10 0 18 0;
#X connect 11 0 7 0;
#X connect 14 0 15 0;
#X connect 15 0 41 0;
#X connect 16 0 14 0;
#X connect 18 0 6 0;
#X connect 18 0 45 0;
#X connect 18 2 13 0;
#X connect 19 0 23 0;
#X connect 19 1 18 0;
#X connect 20 0 21 0;
#X connect 21 0 27 1;
#X connect 22 0 24 0;
#X connect 23 0 20 0;
#X connect 23 1 25 0;
#X connect 23 2 26 0;
#X connect 24 0 21 1;
#X connect 25 0 20 1;
#X connect 26 0 20 2;
#X connect 28 0 27 0;
#X connect 35 0 39 0;
#X connect 36 0 37 0;
#X connect 36 1 38 0;
#X connect 36 2 35 0;
#X connect 41 0 47 0;
#X connect 41 1 18 0;
#X connect 44 0 46 0;
#X connect 45 0 36 0;
#X connect 46 0 45 1;
#X connect 47 0 5 0;
#X restore 39 1017 pd languts;
#N canvas 352 22 802 606 ChannelSetData 0;
#X obj 109 68 inlet;
#X obj 203 68 inlet;
#X obj 320 68 inlet;
#X obj 110 274 outlet;
#N canvas 412 327 790 364 i2decascii 0;
#X obj -59 155 / 16;
#X obj -59 182 i;
#X obj 43 156 % 16;
#X obj -59 118 t f f;
#X obj -59 210 moses 9.5;
#X obj -59 263 i;
#X obj 43 210 moses 9.5;
#X obj 43 263 i;
#X obj -59 232 + 48;
#X obj -1 232 + 55;
#X obj 101 232 + 55;
#X obj 43 233 + 48;
#X obj -59 44 inlet;
#X obj -59 287 outlet;
#X obj 43 287 outlet;
#X text 199 13 convert the decimal float to a 2 digit hexadecimal number
;
#X text 258 37 then to 2 ascii char;
#X text 255 59 then to 2 decimal int = ascii value of this 2 chars
;
#X obj -59 68 min 255;
#X obj -59 92 max 0;
#X connect 0 0 1 0;
#X connect 1 0 4 0;
#X connect 2 0 6 0;
#X connect 3 0 0 0;
#X connect 3 1 2 0;
#X connect 4 0 8 0;
#X connect 4 1 9 0;
#X connect 5 0 13 0;
#X connect 6 0 11 0;
#X connect 6 1 10 0;
#X connect 7 0 14 0;
#X connect 8 0 5 0;
#X connect 9 0 5 0;
#X connect 10 0 7 0;
#X connect 11 0 7 0;
#X connect 12 0 18 0;
#X connect 18 0 19 0;
#X connect 19 0 3 0;
#X restore 109 137 pd i2decascii;
#N canvas 0 22 790 364 i2decascii 0;
#X obj -59 155 / 16;
#X obj -59 182 i;
#X obj 43 156 % 16;
#X obj -59 118 t f f;
#X obj -59 210 moses 9.5;
#X obj -59 263 i;
#X obj 43 210 moses 9.5;
#X obj 43 263 i;
#X obj -59 232 + 48;
#X obj -1 232 + 55;
#X obj 101 232 + 55;
#X obj 43 233 + 48;
#X obj -59 44 inlet;
#X obj -59 287 outlet;
#X obj 43 287 outlet;
#X text 199 13 convert the decimal float to a 2 digit hexadecimal number
;
#X text 258 37 then to 2 ascii char;
#X text 255 59 then to 2 decimal int = ascii value of this 2 chars
;
#X obj -59 68 min 255;
#X obj -59 92 max 0;
#X connect 0 0 1 0;
#X connect 1 0 4 0;
#X connect 2 0 6 0;
#X connect 3 0 0 0;
#X connect 3 1 2 0;
#X connect 4 0 8 0;
#X connect 4 1 9 0;
#X connect 5 0 13 0;
#X connect 6 0 11 0;
#X connect 6 1 10 0;
#X connect 7 0 14 0;
#X connect 8 0 5 0;
#X connect 9 0 5 0;
#X connect 10 0 7 0;
#X connect 11 0 7 0;
#X connect 12 0 18 0;
#X connect 18 0 19 0;
#X connect 19 0 3 0;
#X restore 203 137 pd i2decascii;
#X obj 308 112 div 256;
#X obj 419 112 mod 256;
#N canvas 0 22 790 364 i2decascii 0;
#X obj -59 155 / 16;
#X obj -59 182 i;
#X obj 43 156 % 16;
#X obj -59 118 t f f;
#X obj -59 210 moses 9.5;
#X obj -59 263 i;
#X obj 43 210 moses 9.5;
#X obj 43 263 i;
#X obj -59 232 + 48;
#X obj -1 232 + 55;
#X obj 101 232 + 55;
#X obj 43 233 + 48;
#X obj -59 44 inlet;
#X obj -59 287 outlet;
#X obj 43 287 outlet;
#X text 199 13 convert the decimal float to a 2 digit hexadecimal number
;
#X text 258 37 then to 2 ascii char;
#X text 255 59 then to 2 decimal int = ascii value of this 2 chars
;
#X obj -59 68 min 255;
#X obj -59 92 max 0;
#X connect 0 0 1 0;
#X connect 1 0 4 0;
#X connect 2 0 6 0;
#X connect 3 0 0 0;
#X connect 3 1 2 0;
#X connect 4 0 8 0;
#X connect 4 1 9 0;
#X connect 5 0 13 0;
#X connect 6 0 11 0;
#X connect 6 1 10 0;
#X connect 7 0 14 0;
#X connect 8 0 5 0;
#X connect 9 0 5 0;
#X connect 10 0 7 0;
#X connect 11 0 7 0;
#X connect 12 0 18 0;
#X connect 18 0 19 0;
#X connect 19 0 3 0;
#X restore 308 138 pd i2decascii;
#N canvas 0 22 790 364 i2decascii 0;
#X obj -59 155 / 16;
#X obj -59 182 i;
#X obj 43 156 % 16;
#X obj -59 118 t f f;
#X obj -59 210 moses 9.5;
#X obj -59 263 i;
#X obj 43 210 moses 9.5;
#X obj 43 263 i;
#X obj -59 232 + 48;
#X obj -1 232 + 55;
#X obj 101 232 + 55;
#X obj 43 233 + 48;
#X obj -59 44 inlet;
#X obj -59 287 outlet;
#X obj 43 287 outlet;
#X text 199 13 convert the decimal float to a 2 digit hexadecimal number
;
#X text 258 37 then to 2 ascii char;
#X text 255 59 then to 2 decimal int = ascii value of this 2 chars
;
#X obj -59 68 min 255;
#X obj -59 92 max 0;
#X connect 0 0 1 0;
#X connect 1 0 4 0;
#X connect 2 0 6 0;
#X connect 3 0 0 0;
#X connect 3 1 2 0;
#X connect 4 0 8 0;
#X connect 4 1 9 0;
#X connect 5 0 13 0;
#X connect 6 0 11 0;
#X connect 6 1 10 0;
#X connect 7 0 14 0;
#X connect 8 0 5 0;
#X connect 9 0 5 0;
#X connect 10 0 7 0;
#X connect 11 0 7 0;
#X connect 12 0 18 0;
#X connect 18 0 19 0;
#X connect 19 0 3 0;
#X restore 419 139 pd i2decascii;
#X obj 109 187 pack f f f f f f f f;
#X text 202 48 Layer (8bit);
#X text 107 47 Value (8bit);
#X msg 109 215 send 42 67 57 \$3 \$4 \$5 \$6 \$7 \$8 \$1 \$2 35 10
;
#X text 318 46 Channel (16bit);
#X text 142 235 * C9 LA CHA1 V1 CHA2 V2 … CHAn Vn#;
#X text 108 11 16-Bit Mode;
#X connect 0 0 4 0;
#X connect 1 0 5 0;
#X connect 2 0 6 0;
#X connect 2 0 7 0;
#X connect 4 0 10 0;
#X connect 4 1 10 1;
#X connect 5 0 10 2;
#X connect 5 1 10 3;
#X connect 6 0 8 0;
#X connect 7 0 9 0;
#X connect 8 0 10 4;
#X connect 8 1 10 5;
#X connect 9 0 10 6;
#X connect 9 1 10 7;
#X connect 10 0 13 0;
#X connect 13 0 3 0;
#X restore 361 -200 pd ChannelSetData 1 1 1;
#X obj 361 -228 unpack f f f;
#X obj 71 110 unpack f f f;
#N canvas 94 91 509 311 EngineGo 0;
#X obj 112 278 outlet;
#X obj 116 167 pack f f f f f f;
#N canvas 0 22 790 364 i2decascii 0;
#X obj -59 155 / 16;
#X obj -59 182 i;
#X obj 43 156 % 16;
#X obj -59 118 t f f;
#X obj -59 210 moses 9.5;
#X obj -59 263 i;
#X obj 43 210 moses 9.5;
#X obj 43 263 i;
#X obj -59 232 + 48;
#X obj -1 232 + 55;
#X obj 101 232 + 55;
#X obj 43 233 + 48;
#X obj -59 44 inlet;
#X obj -59 287 outlet;
#X obj 43 287 outlet;
#X text 199 13 convert the decimal float to a 2 digit hexadecimal number
;
#X text 258 37 then to 2 ascii char;
#X text 255 59 then to 2 decimal int = ascii value of this 2 chars
;
#X obj -59 68 min 255;
#X obj -59 92 max 0;
#X connect 0 0 1 0;
#X connect 1 0 4 0;
#X connect 2 0 6 0;
#X connect 3 0 0 0;
#X connect 3 1 2 0;
#X connect 4 0 8 0;
#X connect 4 1 9 0;
#X connect 5 0 13 0;
#X connect 6 0 11 0;
#X connect 6 1 10 0;
#X connect 7 0 14 0;
#X connect 8 0 5 0;
#X connect 9 0 5 0;
#X connect 10 0 7 0;
#X connect 11 0 7 0;
#X connect 12 0 18 0;
#X connect 18 0 19 0;
#X connect 19 0 3 0;
#X restore 313 141 pd i2decascii;
#N canvas 0 22 790 364 i2decascii 0;
#X obj -59 155 / 16;
#X obj -59 182 i;
#X obj 43 156 % 16;
#X obj -59 118 t f f;
#X obj -59 210 moses 9.5;
#X obj -59 263 i;
#X obj 43 210 moses 9.5;
#X obj 43 263 i;
#X obj -59 232 + 48;
#X obj -1 232 + 55;
#X obj 101 232 + 55;
#X obj 43 233 + 48;
#X obj -59 44 inlet;
#X obj -59 287 outlet;
#X obj 43 287 outlet;
#X text 199 13 convert the decimal float to a 2 digit hexadecimal number
;
#X text 258 37 then to 2 ascii char;
#X text 255 59 then to 2 decimal int = ascii value of this 2 chars
;
#X obj -59 68 min 255;
#X obj -59 92 max 0;
#X connect 0 0 1 0;
#X connect 1 0 4 0;
#X connect 2 0 6 0;
#X connect 3 0 0 0;
#X connect 3 1 2 0;
#X connect 4 0 8 0;
#X connect 4 1 9 0;
#X connect 5 0 13 0;
#X connect 6 0 11 0;
#X connect 6 1 10 0;
#X connect 7 0 14 0;
#X connect 8 0 5 0;
#X connect 9 0 5 0;
#X connect 10 0 7 0;
#X connect 11 0 7 0;
#X connect 12 0 18 0;
#X connect 18 0 19 0;
#X connect 19 0 3 0;
#X restore 119 137 pd i2decascii;
#X obj 323 56 inlet cuestep;
#X obj 213 51 inlet cuelist;
#X obj 95 46 inlet engine;
#X msg 112 221 send 42 53 54 \$1 \$2 48 48 \$3 \$4 \$5 \$6 35 10;
#N canvas 187 22 790 364 i2decascii 0;
#X obj -59 155 / 16;
#X obj -59 182 i;
#X obj 43 156 % 16;
#X obj -59 118 t f f;
#X obj -59 210 moses 9.5;
#X obj -59 263 i;
#X obj 43 210 moses 9.5;
#X obj 43 263 i;
#X obj -59 232 + 48;
#X obj -1 232 + 55;
#X obj 101 232 + 55;
#X obj 43 233 + 48;
#X obj -59 44 inlet;
#X obj -59 287 outlet;
#X obj 43 287 outlet;
#X text 199 13 convert the decimal float to a 2 digit hexadecimal number
;
#X text 258 37 then to 2 ascii char;
#X text 255 59 then to 2 decimal int = ascii value of this 2 chars
;
#X obj -59 68 min 255;
#X obj -59 92 max 0;
#X connect 0 0 1 0;
#X connect 1 0 4 0;
#X connect 2 0 6 0;
#X connect 3 0 0 0;
#X connect 3 1 2 0;
#X connect 4 0 8 0;
#X connect 4 1 9 0;
#X connect 5 0 13 0;
#X connect 6 0 11 0;
#X connect 6 1 10 0;
#X connect 7 0 14 0;
#X connect 8 0 5 0;
#X connect 9 0 5 0;
#X connect 10 0 7 0;
#X connect 11 0 7 0;
#X connect 12 0 18 0;
#X connect 18 0 19 0;
#X connect 19 0 3 0;
#X restore 215 135 pd i2decascii;
#X connect 1 0 7 0;
#X connect 2 0 1 4;
#X connect 2 1 1 5;
#X connect 3 0 1 0;
#X connect 3 1 1 1;
#X connect 4 0 2 0;
#X connect 5 0 8 0;
#X connect 6 0 3 0;
#X connect 7 0 0 0;
#X connect 8 0 1 2;
#X connect 8 1 1 3;
#X restore 71 136 pd EngineGo 1 1 0;
#X obj 66 -351 inlet;
#N canvas 241 136 509 311 EngineNext 0;
#X obj 112 278 outlet;
#N canvas 74 34 790 364 i2decascii 0;
#X obj -59 155 / 16;
#X obj -59 182 i;
#X obj 43 156 % 16;
#X obj -59 118 t f f;
#X obj -59 210 moses 9.5;
#X obj -59 263 i;
#X obj 43 210 moses 9.5;
#X obj 43 263 i;
#X obj -59 232 + 48;
#X obj -1 232 + 55;
#X obj 101 232 + 55;
#X obj 43 233 + 48;
#X obj -59 44 inlet;
#X obj -59 287 outlet;
#X obj 43 287 outlet;
#X text 199 13 convert the decimal float to a 2 digit hexadecimal number
;
#X text 258 37 then to 2 ascii char;
#X text 255 59 then to 2 decimal int = ascii value of this 2 chars
;
#X obj -59 68 min 255;
#X obj -59 92 max 0;
#X connect 0 0 1 0;
#X connect 1 0 4 0;
#X connect 2 0 6 0;
#X connect 3 0 0 0;
#X connect 3 1 2 0;
#X connect 4 0 8 0;
#X connect 4 1 9 0;
#X connect 5 0 13 0;
#X connect 6 0 11 0;
#X connect 6 1 10 0;
#X connect 7 0 14 0;
#X connect 8 0 5 0;
#X connect 9 0 5 0;
#X connect 10 0 7 0;
#X connect 11 0 7 0;
#X connect 12 0 18 0;
#X connect 18 0 19 0;
#X connect 19 0 3 0;
#X restore 119 137 pd i2decascii;
#X obj 92 24 inlet engine;
#X obj 117 167 pack f f;
#X msg 112 221 send 42 53 65 \$1 \$2 35 10;
#X connect 1 0 3 0;
#X connect 1 1 3 1;
#X connect 2 0 1 0;
#X connect 3 0 4 0;
#X connect 4 0 0 0;
#X restore 208 96 pd EngineNext;
#N canvas 400 504 345 319 EnginePrevious 0;
#X obj 122 288 outlet;
#N canvas 0 22 790 364 i2decascii 0;
#X obj -59 155 / 16;
#X obj -59 182 i;
#X obj 43 156 % 16;
#X obj -59 118 t f f;
#X obj -59 210 moses 9.5;
#X obj -59 263 i;
#X obj 43 210 moses 9.5;
#X obj 43 263 i;
#X obj -59 232 + 48;
#X obj -1 232 + 55;
#X obj 101 232 + 55;
#X obj 43 233 + 48;
#X obj -59 44 inlet;
#X obj -59 287 outlet;
#X obj 43 287 outlet;
#X text 199 13 convert the decimal float to a 2 digit hexadecimal number
;
#X text 258 37 then to 2 ascii char;
#X text 255 59 then to 2 decimal int = ascii value of this 2 chars
;
#X obj -59 68 min 255;
#X obj -59 92 max 0;
#X connect 0 0 1 0;
#X connect 1 0 4 0;
#X connect 2 0 6 0;
#X connect 3 0 0 0;
#X connect 3 1 2 0;
#X connect 4 0 8 0;
#X connect 4 1 9 0;
#X connect 5 0 13 0;
#X connect 6 0 11 0;
#X connect 6 1 10 0;
#X connect 7 0 14 0;
#X connect 8 0 5 0;
#X connect 9 0 5 0;
#X connect 10 0 7 0;
#X connect 11 0 7 0;
#X connect 12 0 18 0;
#X connect 18 0 19 0;
#X connect 19 0 3 0;
#X restore 129 147 pd i2decascii;
#X obj 102 34 inlet engine;
#X obj 127 177 pack f f;
#X msg 120 232 send 42 53 66 \$1 \$2 35 10;
#X connect 1 0 3 0;
#X connect 1 1 3 1;
#X connect 2 0 1 0;
#X connect 3 0 4 0;
#X connect 4 0 0 0;
#X restore 242 127 pd EnginePrevious;
#X obj 348 295 nop;
#N canvas 771 506 509 311 EngineClear 0;
#X obj 122 288 outlet;
#N canvas 0 22 790 364 i2decascii 0;
#X obj -59 155 / 16;
#X obj -59 182 i;
#X obj 43 156 % 16;
#X obj -59 118 t f f;
#X obj -59 210 moses 9.5;
#X obj -59 263 i;
#X obj 43 210 moses 9.5;
#X obj 43 263 i;
#X obj -59 232 + 48;
#X obj -1 232 + 55;
#X obj 101 232 + 55;
#X obj 43 233 + 48;
#X obj -59 44 inlet;
#X obj -59 287 outlet;
#X obj 43 287 outlet;
#X text 199 13 convert the decimal float to a 2 digit hexadecimal number
;
#X text 258 37 then to 2 ascii char;
#X text 255 59 then to 2 decimal int = ascii value of this 2 chars
;
#X obj -59 68 min 255;
#X obj -59 92 max 0;
#X connect 0 0 1 0;
#X connect 1 0 4 0;
#X connect 2 0 6 0;
#X connect 3 0 0 0;
#X connect 3 1 2 0;
#X connect 4 0 8 0;
#X connect 4 1 9 0;
#X connect 5 0 13 0;
#X connect 6 0 11 0;
#X connect 6 1 10 0;
#X connect 7 0 14 0;
#X connect 8 0 5 0;
#X connect 9 0 5 0;
#X connect 10 0 7 0;
#X connect 11 0 7 0;
#X connect 12 0 18 0;
#X connect 18 0 19 0;
#X connect 19 0 3 0;
#X restore 129 147 pd i2decascii;
#X obj 102 34 inlet engine;
#X obj 127 177 pack f f;
#X msg 120 232 send 42 53 55 \$1 \$2 35 10;
#X connect 1 0 3 0;
#X connect 1 1 3 1;
#X connect 2 0 1 0;
#X connect 3 0 4 0;
#X connect 4 0 0 0;
#X restore 102 167 pd EngineClear;
#X obj 866 -106 unpack;
#N canvas 847 506 509 311 EngineSetFading 0;
#X obj 112 278 outlet;
#N canvas 0 22 790 364 i2decascii 0;
#X obj -59 155 / 16;
#X obj -59 182 i;
#X obj 43 156 % 16;
#X obj -59 118 t f f;
#X obj -59 210 moses 9.5;
#X obj -59 263 i;
#X obj 43 210 moses 9.5;
#X obj 43 263 i;
#X obj -59 232 + 48;
#X obj -1 232 + 55;
#X obj 101 232 + 55;
#X obj 43 233 + 48;
#X obj -59 44 inlet;
#X obj -59 287 outlet;
#X obj 43 287 outlet;
#X text 199 13 convert the decimal float to a 2 digit hexadecimal number
;
#X text 258 37 then to 2 ascii char;
#X text 255 59 then to 2 decimal int = ascii value of this 2 chars
;
#X obj -59 68 min 255;
#X obj -59 92 max 0;
#X connect 0 0 1 0;
#X connect 1 0 4 0;
#X connect 2 0 6 0;
#X connect 3 0 0 0;
#X connect 3 1 2 0;
#X connect 4 0 8 0;
#X connect 4 1 9 0;
#X connect 5 0 13 0;
#X connect 6 0 11 0;
#X connect 6 1 10 0;
#X connect 7 0 14 0;
#X connect 8 0 5 0;
#X connect 9 0 5 0;
#X connect 10 0 7 0;
#X connect 11 0 7 0;
#X connect 12 0 18 0;
#X connect 18 0 19 0;
#X connect 19 0 3 0;
#X restore 108 101 pd i2decascii;
#X obj 92 24 inlet engine;
#N canvas 0 22 790 364 i2decascii 0;
#X obj -59 155 / 16;
#X obj -59 182 i;
#X obj 43 156 % 16;
#X obj -59 118 t f f;
#X obj -59 210 moses 9.5;
#X obj -59 263 i;
#X obj 43 210 moses 9.5;
#X obj 43 263 i;
#X obj -59 232 + 48;
#X obj -1 232 + 55;
#X obj 101 232 + 55;
#X obj 43 233 + 48;
#X obj -59 44 inlet;
#X obj -59 287 outlet;
#X obj 43 287 outlet;
#X text 199 13 convert the decimal float to a 2 digit hexadecimal number
;
#X text 258 37 then to 2 ascii char;
#X text 255 59 then to 2 decimal int = ascii value of this 2 chars
;
#X obj -59 68 min 255;
#X obj -59 92 max 0;
#X connect 0 0 1 0;
#X connect 1 0 4 0;
#X connect 2 0 6 0;
#X connect 3 0 0 0;
#X connect 3 1 2 0;
#X connect 4 0 8 0;
#X connect 4 1 9 0;
#X connect 5 0 13 0;
#X connect 6 0 11 0;
#X connect 6 1 10 0;
#X connect 7 0 14 0;
#X connect 8 0 5 0;
#X connect 9 0 5 0;
#X connect 10 0 7 0;
#X connect 11 0 7 0;
#X connect 12 0 18 0;
#X connect 18 0 19 0;
#X connect 19 0 3 0;
#X restore 215 135 pd i2decascii;
#X msg 113 221 send 42 52 54 \$1 \$2 \$3 \$4 35 10;
#X obj 213 51 inlet onoff;
#X obj 116 167 pack f f f f;
#X connect 1 0 6 0;
#X connect 1 1 6 1;
#X connect 2 0 1 0;
#X connect 3 0 6 2;
#X connect 3 1 6 3;
#X connect 4 0 0 0;
#X connect 5 0 3 0;
#X connect 6 0 4 0;
#X restore 866 -82 pd EngineSetFading;
#X obj 523 132 unpack;
#N canvas 771 506 509 311 EngineSetFadeType 0;
#X obj 112 278 outlet;
#N canvas 0 22 790 364 i2decascii 0;
#X obj -59 155 / 16;
#X obj -59 182 i;
#X obj 43 156 % 16;
#X obj -59 118 t f f;
#X obj -59 210 moses 9.5;
#X obj -59 263 i;
#X obj 43 210 moses 9.5;
#X obj 43 263 i;
#X obj -59 232 + 48;
#X obj -1 232 + 55;
#X obj 101 232 + 55;
#X obj 43 233 + 48;
#X obj -59 44 inlet;
#X obj -59 287 outlet;
#X obj 43 287 outlet;
#X text 199 13 convert the decimal float to a 2 digit hexadecimal number
;
#X text 258 37 then to 2 ascii char;
#X text 255 59 then to 2 decimal int = ascii value of this 2 chars
;
#X obj -59 68 min 255;
#X obj -59 92 max 0;
#X connect 0 0 1 0;
#X connect 1 0 4 0;
#X connect 2 0 6 0;
#X connect 3 0 0 0;
#X connect 3 1 2 0;
#X connect 4 0 8 0;
#X connect 4 1 9 0;
#X connect 5 0 13 0;
#X connect 6 0 11 0;
#X connect 6 1 10 0;
#X connect 7 0 14 0;
#X connect 8 0 5 0;
#X connect 9 0 5 0;
#X connect 10 0 7 0;
#X connect 11 0 7 0;
#X connect 12 0 18 0;
#X connect 18 0 19 0;
#X connect 19 0 3 0;
#X restore 108 101 pd i2decascii;
#X obj 92 24 inlet engine;
#N canvas 0 22 790 364 i2decascii 0;
#X obj -59 155 / 16;
#X obj -59 182 i;
#X obj 43 156 % 16;
#X obj -59 118 t f f;
#X obj -59 210 moses 9.5;
#X obj -59 263 i;
#X obj 43 210 moses 9.5;
#X obj 43 263 i;
#X obj -59 232 + 48;
#X obj -1 232 + 55;
#X obj 101 232 + 55;
#X obj 43 233 + 48;
#X obj -59 44 inlet;
#X obj -59 287 outlet;
#X obj 43 287 outlet;
#X text 199 13 convert the decimal float to a 2 digit hexadecimal number
;
#X text 258 37 then to 2 ascii char;
#X text 255 59 then to 2 decimal int = ascii value of this 2 chars
;
#X obj -59 68 min 255;
#X obj -59 92 max 0;
#X connect 0 0 1 0;
#X connect 1 0 4 0;
#X connect 2 0 6 0;
#X connect 3 0 0 0;
#X connect 3 1 2 0;
#X connect 4 0 8 0;
#X connect 4 1 9 0;
#X connect 5 0 13 0;
#X connect 6 0 11 0;
#X connect 6 1 10 0;
#X connect 7 0 14 0;
#X connect 8 0 5 0;
#X connect 9 0 5 0;
#X connect 10 0 7 0;
#X connect 11 0 7 0;
#X connect 12 0 18 0;
#X connect 18 0 19 0;
#X connect 19 0 3 0;
#X restore 211 109 pd i2decascii;
#X obj 116 167 pack f f f f;
#X msg 113 221 send 42 52 68 \$1 \$2 \$3 \$4 35 10;
#X obj 225 29 inlet fadetype;
#X obj 227 64 clip 0 7;
#X connect 1 0 4 0;
#X connect 1 1 4 1;
#X connect 2 0 1 0;
#X connect 3 0 4 2;
#X connect 3 1 4 3;
#X connect 4 0 5 0;
#X connect 5 0 0 0;
#X connect 6 0 7 0;
#X connect 7 0 3 0;
#X restore 523 156 pd EngineSetFadeType;
#X obj 612 193 unpack;
#N canvas 771 506 509 311 EngineSetFadeTime 0;
#X obj 112 278 outlet;
#N canvas 0 22 790 364 i2decascii 0;
#X obj -59 155 / 16;
#X obj -59 182 i;
#X obj 43 156 % 16;
#X obj -59 118 t f f;
#X obj -59 210 moses 9.5;
#X obj -59 263 i;
#X obj 43 210 moses 9.5;
#X obj 43 263 i;
#X obj -59 232 + 48;
#X obj -1 232 + 55;
#X obj 101 232 + 55;
#X obj 43 233 + 48;
#X obj -59 44 inlet;
#X obj -59 287 outlet;
#X obj 43 287 outlet;
#X text 199 13 convert the decimal float to a 2 digit hexadecimal number
;
#X text 258 37 then to 2 ascii char;
#X text 255 59 then to 2 decimal int = ascii value of this 2 chars
;
#X obj -59 68 min 255;
#X obj -59 92 max 0;
#X connect 0 0 1 0;
#X connect 1 0 4 0;
#X connect 2 0 6 0;
#X connect 3 0 0 0;
#X connect 3 1 2 0;
#X connect 4 0 8 0;
#X connect 4 1 9 0;
#X connect 5 0 13 0;
#X connect 6 0 11 0;
#X connect 6 1 10 0;
#X connect 7 0 14 0;
#X connect 8 0 5 0;
#X connect 9 0 5 0;
#X connect 10 0 7 0;
#X connect 11 0 7 0;
#X connect 12 0 18 0;
#X connect 18 0 19 0;
#X connect 19 0 3 0;
#X restore 108 101 pd i2decascii;
#X obj 92 24 inlet engine;
#N canvas 0 22 790 364 i2decascii 0;
#X obj -59 155 / 16;
#X obj -59 182 i;
#X obj 43 156 % 16;
#X obj -59 118 t f f;
#X obj -59 210 moses 9.5;
#X obj -59 263 i;
#X obj 43 210 moses 9.5;
#X obj 43 263 i;
#X obj -59 232 + 48;
#X obj -1 232 + 55;
#X obj 101 232 + 55;
#X obj 43 233 + 48;
#X obj -59 44 inlet;
#X obj -59 287 outlet;
#X obj 43 287 outlet;
#X text 199 13 convert the decimal float to a 2 digit hexadecimal number
;
#X text 258 37 then to 2 ascii char;
#X text 255 59 then to 2 decimal int = ascii value of this 2 chars
;
#X obj -59 68 min 255;
#X obj -59 92 max 0;
#X connect 0 0 1 0;
#X connect 1 0 4 0;
#X connect 2 0 6 0;
#X connect 3 0 0 0;
#X connect 3 1 2 0;
#X connect 4 0 8 0;
#X connect 4 1 9 0;
#X connect 5 0 13 0;
#X connect 6 0 11 0;
#X connect 6 1 10 0;
#X connect 7 0 14 0;
#X connect 8 0 5 0;
#X connect 9 0 5 0;
#X connect 10 0 7 0;
#X connect 11 0 7 0;
#X connect 12 0 18 0;
#X connect 18 0 19 0;
#X connect 19 0 3 0;
#X restore 211 101 pd i2decascii;
#X obj 116 167 pack f f f f;
#X obj 211 49 clip 0 91;
#X obj 211 21 inlet fadetime;
#X msg 113 221 send 42 52 69 \$1 \$2 \$3 \$4 35 10;
#X connect 1 0 4 0;
#X connect 1 1 4 1;
#X connect 2 0 1 0;
#X connect 3 0 4 2;
#X connect 3 1 4 3;
#X connect 4 0 7 0;
#X connect 5 0 3 0;
#X connect 6 0 5 0;
#X connect 7 0 0 0;
#X restore 612 215 pd EngineSetFadeTime;
#X obj 1058 -73 unpack;
#N canvas 621 277 734 345 EngineSetMixMode 0;
#X obj 112 278 outlet;
#N canvas 0 22 790 364 i2decascii 0;
#X obj -59 155 / 16;
#X obj -59 182 i;
#X obj 43 156 % 16;
#X obj -59 118 t f f;
#X obj -59 210 moses 9.5;
#X obj -59 263 i;
#X obj 43 210 moses 9.5;
#X obj 43 263 i;
#X obj -59 232 + 48;
#X obj -1 232 + 55;
#X obj 101 232 + 55;
#X obj 43 233 + 48;
#X obj -59 44 inlet;
#X obj -59 287 outlet;
#X obj 43 287 outlet;
#X text 199 13 convert the decimal float to a 2 digit hexadecimal number
;
#X text 258 37 then to 2 ascii char;
#X text 255 59 then to 2 decimal int = ascii value of this 2 chars
;
#X obj -59 68 min 255;
#X obj -59 92 max 0;
#X connect 0 0 1 0;
#X connect 1 0 4 0;
#X connect 2 0 6 0;
#X connect 3 0 0 0;
#X connect 3 1 2 0;
#X connect 4 0 8 0;
#X connect 4 1 9 0;
#X connect 5 0 13 0;
#X connect 6 0 11 0;
#X connect 6 1 10 0;
#X connect 7 0 14 0;
#X connect 8 0 5 0;
#X connect 9 0 5 0;
#X connect 10 0 7 0;
#X connect 11 0 7 0;
#X connect 12 0 18 0;
#X connect 18 0 19 0;
#X connect 19 0 3 0;
#X restore 108 101 pd i2decascii;
#X obj 92 24 inlet engine;
#N canvas 0 22 790 364 i2decascii 0;
#X obj -59 155 / 16;
#X obj -59 182 i;
#X obj 43 156 % 16;
#X obj -59 118 t f f;
#X obj -59 210 moses 9.5;
#X obj -59 263 i;
#X obj 43 210 moses 9.5;
#X obj 43 263 i;
#X obj -59 232 + 48;
#X obj -1 232 + 55;
#X obj 101 232 + 55;
#X obj 43 233 + 48;
#X obj -59 44 inlet;
#X obj -59 287 outlet;
#X obj 43 287 outlet;
#X text 199 13 convert the decimal float to a 2 digit hexadecimal number
;
#X text 258 37 then to 2 ascii char;
#X text 255 59 then to 2 decimal int = ascii value of this 2 chars
;
#X obj -59 68 min 255;
#X obj -59 92 max 0;
#X connect 0 0 1 0;
#X connect 1 0 4 0;
#X connect 2 0 6 0;
#X connect 3 0 0 0;
#X connect 3 1 2 0;
#X connect 4 0 8 0;
#X connect 4 1 9 0;
#X connect 5 0 13 0;
#X connect 6 0 11 0;
#X connect 6 1 10 0;
#X connect 7 0 14 0;
#X connect 8 0 5 0;
#X connect 9 0 5 0;
#X connect 10 0 7 0;
#X connect 11 0 7 0;
#X connect 12 0 18 0;
#X connect 18 0 19 0;
#X connect 19 0 3 0;
#X restore 211 109 pd i2decascii;
#X obj 116 167 pack f f f f;
#X obj 225 29 inlet fadetype;
#X msg 113 221 send 42 52 55 \$1 \$2 \$3 \$4 35 10;
#X text 328 107 0 Off 1 Copy 2 HTP 3 LTP 4 Transparent 5 Add;
#X obj 227 64 clip 0 5;
#X text 296 63 was 7 instead of 5;
#X connect 1 0 4 0;
#X connect 1 1 4 1;
#X connect 2 0 1 0;
#X connect 3 0 4 2;
#X connect 3 1 4 3;
#X connect 4 0 6 0;
#X connect 5 0 8 0;
#X connect 6 0 0 0;
#X connect 8 0 3 0;
#X restore 1058 -48 pd EngineSetMixMode;
#N canvas 741 536 509 311 EngineResume 0;
#X obj 68 183 outlet;
#X obj 92 24 inlet engine;
#N canvas 0 22 790 364 i2decascii 0;
#X obj -59 155 / 16;
#X obj -59 182 i;
#X obj 43 156 % 16;
#X obj -59 118 t f f;
#X obj -59 210 moses 9.5;
#X obj -59 263 i;
#X obj 43 210 moses 9.5;
#X obj 43 263 i;
#X obj -59 232 + 48;
#X obj -1 232 + 55;
#X obj 101 232 + 55;
#X obj 43 233 + 48;
#X obj -59 44 inlet;
#X obj -59 287 outlet;
#X obj 43 287 outlet;
#X text 199 13 convert the decimal float to a 2 digit hexadecimal number
;
#X text 258 37 then to 2 ascii char;
#X text 255 59 then to 2 decimal int = ascii value of this 2 chars
;
#X obj -59 68 min 255;
#X obj -59 92 max 0;
#X connect 0 0 1 0;
#X connect 1 0 4 0;
#X connect 2 0 6 0;
#X connect 3 0 0 0;
#X connect 3 1 2 0;
#X connect 4 0 8 0;
#X connect 4 1 9 0;
#X connect 5 0 13 0;
#X connect 6 0 11 0;
#X connect 6 1 10 0;
#X connect 7 0 14 0;
#X connect 8 0 5 0;
#X connect 9 0 5 0;
#X connect 10 0 7 0;
#X connect 11 0 7 0;
#X connect 12 0 18 0;
#X connect 18 0 19 0;
#X connect 19 0 3 0;
#X restore 78 65 pd i2decascii;
#X obj 76 95 pack f f;
#X msg 68 150 send 42 53 57 \$1 \$2 35 10;
#X connect 1 0 2 0;
#X connect 2 0 3 0;
#X connect 2 1 3 1;
#X connect 3 0 4 0;
#X connect 4 0 0 0;
#X restore 182 258 pd EngineResume;
#X obj 1281 1012 print Warning;
#X obj 1281 985 flow.prepend lanbox.main unknow message:;
#N canvas 731 22 569 691 ChannelReadData 0;
#X obj 81 561 outlet;
#X text 106 415 * CD LA STCH NR #;
#N canvas 0 22 790 364 i2decascii 0;
#X obj -59 155 / 16;
#X obj -59 182 i;
#X obj 43 156 % 16;
#X obj -59 118 t f f;
#X obj -59 210 moses 9.5;
#X obj -59 263 i;
#X obj 43 210 moses 9.5;
#X obj 43 263 i;
#X obj -59 232 + 48;
#X obj -1 232 + 55;
#X obj 101 232 + 55;
#X obj 43 233 + 48;
#X obj -59 44 inlet;
#X obj -59 287 outlet;
#X obj 43 287 outlet;
#X text 199 13 convert the decimal float to a 2 digit hexadecimal number
;
#X text 258 37 then to 2 ascii char;
#X text 255 59 then to 2 decimal int = ascii value of this 2 chars
;
#X obj -59 68 min 255;
#X obj -59 92 max 0;
#X connect 0 0 1 0;
#X connect 1 0 4 0;
#X connect 2 0 6 0;
#X connect 3 0 0 0;
#X connect 3 1 2 0;
#X connect 4 0 8 0;
#X connect 4 1 9 0;
#X connect 5 0 13 0;
#X connect 6 0 11 0;
#X connect 6 1 10 0;
#X connect 7 0 14 0;
#X connect 8 0 5 0;
#X connect 9 0 5 0;
#X connect 10 0 7 0;
#X connect 11 0 7 0;
#X connect 12 0 18 0;
#X connect 18 0 19 0;
#X connect 19 0 3 0;
#X restore 63 288 pd i2decascii;
#X obj 66 195 inlet;
#X obj 178 195 inlet;
#X obj 181 259 div 256;
#X obj 275 261 mod 256;
#N canvas 56 22 790 364 i2decascii 0;
#X obj -59 155 / 16;
#X obj -59 182 i;
#X obj 43 156 % 16;
#X obj -59 118 t f f;
#X obj -59 210 moses 9.5;
#X obj -59 263 i;
#X obj 43 210 moses 9.5;
#X obj 43 263 i;
#X obj -59 232 + 48;
#X obj -1 232 + 55;
#X obj 101 232 + 55;
#X obj 43 233 + 48;
#X obj -59 44 inlet;
#X obj -59 287 outlet;
#X obj 43 287 outlet;
#X text 199 13 convert the decimal float to a 2 digit hexadecimal number
;
#X text 258 37 then to 2 ascii char;
#X text 255 59 then to 2 decimal int = ascii value of this 2 chars
;
#X obj -59 68 min 255;
#X obj -59 92 max 0;
#X connect 0 0 1 0;
#X connect 1 0 4 0;
#X connect 2 0 6 0;
#X connect 3 0 0 0;
#X connect 3 1 2 0;
#X connect 4 0 8 0;
#X connect 4 1 9 0;
#X connect 5 0 13 0;
#X connect 6 0 11 0;
#X connect 6 1 10 0;
#X connect 7 0 14 0;
#X connect 8 0 5 0;
#X connect 9 0 5 0;
#X connect 10 0 7 0;
#X connect 11 0 7 0;
#X connect 12 0 18 0;
#X connect 18 0 19 0;
#X connect 19 0 3 0;
#X restore 181 285 pd i2decascii;
#N canvas 0 22 790 364 i2decascii 0;
#X obj -59 155 / 16;
#X obj -59 182 i;
#X obj 43 156 % 16;
#X obj -59 118 t f f;
#X obj -59 210 moses 9.5;
#X obj -59 263 i;
#X obj 43 210 moses 9.5;
#X obj 43 263 i;
#X obj -59 232 + 48;
#X obj -1 232 + 55;
#X obj 101 232 + 55;
#X obj 43 233 + 48;
#X obj -59 44 inlet;
#X obj -59 287 outlet;
#X obj 43 287 outlet;
#X text 199 13 convert the decimal float to a 2 digit hexadecimal number
;
#X text 258 37 then to 2 ascii char;
#X text 255 59 then to 2 decimal int = ascii value of this 2 chars
;
#X obj -59 68 min 255;
#X obj -59 92 max 0;
#X connect 0 0 1 0;
#X connect 1 0 4 0;
#X connect 2 0 6 0;
#X connect 3 0 0 0;
#X connect 3 1 2 0;
#X connect 4 0 8 0;
#X connect 4 1 9 0;
#X connect 5 0 13 0;
#X connect 6 0 11 0;
#X connect 6 1 10 0;
#X connect 7 0 14 0;
#X connect 8 0 5 0;
#X connect 9 0 5 0;
#X connect 10 0 7 0;
#X connect 11 0 7 0;
#X connect 12 0 18 0;
#X connect 18 0 19 0;
#X connect 19 0 3 0;
#X restore 275 288 pd i2decascii;
#X text 176 173 Channel Offset (16bit);
#X text 390 173 Number Of Channels (8bit);
#N canvas 0 22 790 364 i2decascii 0;
#X obj -59 155 / 16;
#X obj -59 182 i;
#X obj 43 156 % 16;
#X obj -59 118 t f f;
#X obj -59 210 moses 9.5;
#X obj -59 263 i;
#X obj 43 210 moses 9.5;
#X obj 43 263 i;
#X obj -59 232 + 48;
#X obj -1 232 + 55;
#X obj 101 232 + 55;
#X obj 43 233 + 48;
#X obj -59 44 inlet;
#X obj -59 287 outlet;
#X obj 43 287 outlet;
#X text 199 13 convert the decimal float to a 2 digit hexadecimal number
;
#X text 258 37 then to 2 ascii char;
#X text 255 59 then to 2 decimal int = ascii value of this 2 chars
;
#X obj -59 68 min 255;
#X obj -59 92 max 0;
#X connect 0 0 1 0;
#X connect 1 0 4 0;
#X connect 2 0 6 0;
#X connect 3 0 0 0;
#X connect 3 1 2 0;
#X connect 4 0 8 0;
#X connect 4 1 9 0;
#X connect 5 0 13 0;
#X connect 6 0 11 0;
#X connect 6 1 10 0;
#X connect 7 0 14 0;
#X connect 8 0 5 0;
#X connect 9 0 5 0;
#X connect 10 0 7 0;
#X connect 11 0 7 0;
#X connect 12 0 18 0;
#X connect 18 0 19 0;
#X connect 19 0 3 0;
#X restore 393 288 pd i2decascii;
#X obj 395 201 inlet;
#X text 61 173 Layer (8 Bit);
#X obj 92 365 pack f f f f f f f f;
#X msg 75 399 send 42 67 68 \$1 \$2 \$3 \$4 \$5 \$6 \$7 \$8 35 10;
#X text 52 43 16-Bit Mode;
#X obj 81 499 t a b;
#X msg 137 526 ChannelReadData;
#X obj 137 552 s lbx-answer;
#X connect 2 0 14 0;
#X connect 2 1 14 1;
#X connect 3 0 2 0;
#X connect 4 0 5 0;
#X connect 4 0 6 0;
#X connect 5 0 7 0;
#X connect 6 0 8 0;
#X connect 7 0 14 2;
#X connect 7 1 14 3;
#X connect 8 0 14 4;
#X connect 8 1 14 5;
#X connect 11 0 14 6;
#X connect 11 1 14 7;
#X connect 12 0 11 0;
#X connect 14 0 15 0;
#X connect 15 0 17 0;
#X connect 17 0 0 0;
#X connect 17 1 18 0;
#X connect 18 0 19 0;
#X restore 412 -143 pd ChannelReadData;
#X obj 412 -167 unpack f f f;
#N canvas 884 38 509 311 EngineSetTransparencyDepth 0;
#X obj 112 278 outlet;
#N canvas 0 22 790 364 i2decascii 0;
#X obj -59 155 / 16;
#X obj -59 182 i;
#X obj 43 156 % 16;
#X obj -59 118 t f f;
#X obj -59 210 moses 9.5;
#X obj -59 263 i;
#X obj 43 210 moses 9.5;
#X obj 43 263 i;
#X obj -59 232 + 48;
#X obj -1 232 + 55;
#X obj 101 232 + 55;
#X obj 43 233 + 48;
#X obj -59 44 inlet;
#X obj -59 287 outlet;
#X obj 43 287 outlet;
#X text 199 13 convert the decimal float to a 2 digit hexadecimal number
;
#X text 258 37 then to 2 ascii char;
#X text 255 59 then to 2 decimal int = ascii value of this 2 chars
;
#X obj -59 68 min 255;
#X obj -59 92 max 0;
#X connect 0 0 1 0;
#X connect 1 0 4 0;
#X connect 2 0 6 0;
#X connect 3 0 0 0;
#X connect 3 1 2 0;
#X connect 4 0 8 0;
#X connect 4 1 9 0;
#X connect 5 0 13 0;
#X connect 6 0 11 0;
#X connect 6 1 10 0;
#X connect 7 0 14 0;
#X connect 8 0 5 0;
#X connect 9 0 5 0;
#X connect 10 0 7 0;
#X connect 11 0 7 0;
#X connect 12 0 18 0;
#X connect 18 0 19 0;
#X connect 19 0 3 0;
#X restore 108 101 pd i2decascii;
#X obj 92 24 inlet engine;
#N canvas 0 22 790 364 i2decascii 0;
#X obj -59 155 / 16;
#X obj -59 182 i;
#X obj 43 156 % 16;
#X obj -59 118 t f f;
#X obj -59 210 moses 9.5;
#X obj -59 263 i;
#X obj 43 210 moses 9.5;
#X obj 43 263 i;
#X obj -59 232 + 48;
#X obj -1 232 + 55;
#X obj 101 232 + 55;
#X obj 43 233 + 48;
#X obj -59 44 inlet;
#X obj -59 287 outlet;
#X obj 43 287 outlet;
#X text 199 13 convert the decimal float to a 2 digit hexadecimal number
;
#X text 258 37 then to 2 ascii char;
#X text 255 59 then to 2 decimal int = ascii value of this 2 chars
;
#X obj -59 68 min 255;
#X obj -59 92 max 0;
#X connect 0 0 1 0;
#X connect 1 0 4 0;
#X connect 2 0 6 0;
#X connect 3 0 0 0;
#X connect 3 1 2 0;
#X connect 4 0 8 0;
#X connect 4 1 9 0;
#X connect 5 0 13 0;
#X connect 6 0 11 0;
#X connect 6 1 10 0;
#X connect 7 0 14 0;
#X connect 8 0 5 0;
#X connect 9 0 5 0;
#X connect 10 0 7 0;
#X connect 11 0 7 0;
#X connect 12 0 18 0;
#X connect 18 0 19 0;
#X connect 19 0 3 0;
#X restore 211 109 pd i2decascii;
#X obj 226 29 inlet transparency;
#X obj 116 167 list.pak.4 f f f f;
#X msg 112 221 send 42 54 51 \$1 \$2 \$3 \$4 35 10;
#X text 144 239 * 63 LA TD #;
#X connect 1 0 5 0;
#X connect 1 1 5 1;
#X connect 2 0 1 0;
#X connect 3 0 5 2;
#X connect 3 1 5 3;
#X connect 4 0 3 0;
#X connect 5 0 6 0;
#X connect 6 0 0 0;
#X restore 1092 -107 pd EngineSetTransparencyDepth;
#N canvas 395 389 458 362 EngineSetOutput 0;
#X obj 122 288 outlet;
#N canvas 0 22 790 364 i2decascii 0;
#X obj -59 155 / 16;
#X obj -59 182 i;
#X obj 43 156 % 16;
#X obj -59 118 t f f;
#X obj -59 210 moses 9.5;
#X obj -59 263 i;
#X obj 43 210 moses 9.5;
#X obj 43 263 i;
#X obj -59 232 + 48;
#X obj -1 232 + 55;
#X obj 101 232 + 55;
#X obj 43 233 + 48;
#X obj -59 44 inlet;
#X obj -59 287 outlet;
#X obj 43 287 outlet;
#X text 199 13 convert the decimal float to a 2 digit hexadecimal number
;
#X text 258 37 then to 2 ascii char;
#X text 255 59 then to 2 decimal int = ascii value of this 2 chars
;
#X obj -59 68 min 255;
#X obj -59 92 max 0;
#X connect 0 0 1 0;
#X connect 1 0 4 0;
#X connect 2 0 6 0;
#X connect 3 0 0 0;
#X connect 3 1 2 0;
#X connect 4 0 8 0;
#X connect 4 1 9 0;
#X connect 5 0 13 0;
#X connect 6 0 11 0;
#X connect 6 1 10 0;
#X connect 7 0 14 0;
#X connect 8 0 5 0;
#X connect 9 0 5 0;
#X connect 10 0 7 0;
#X connect 11 0 7 0;
#X connect 12 0 18 0;
#X connect 18 0 19 0;
#X connect 19 0 3 0;
#X restore 118 111 pd i2decascii;
#X obj 102 34 inlet engine;
#N canvas 95 22 790 364 i2decascii 0;
#X obj -59 155 / 16;
#X obj -59 182 i;
#X obj 43 156 % 16;
#X obj -59 118 t f f;
#X obj -59 210 moses 9.5;
#X obj -59 263 i;
#X obj 43 210 moses 9.5;
#X obj 43 263 i;
#X obj -59 232 + 48;
#X obj -1 232 + 55;
#X obj 101 232 + 55;
#X obj 43 233 + 48;
#X obj -59 44 inlet;
#X obj -59 287 outlet;
#X obj 43 287 outlet;
#X text 199 13 convert the decimal float to a 2 digit hexadecimal number
;
#X text 258 37 then to 2 ascii char;
#X text 255 59 then to 2 decimal int = ascii value of this 2 chars
;
#X obj -59 68 min 255;
#X obj -59 92 max 0;
#X connect 0 0 1 0;
#X connect 1 0 4 0;
#X connect 2 0 6 0;
#X connect 3 0 0 0;
#X connect 3 1 2 0;
#X connect 4 0 8 0;
#X connect 4 1 9 0;
#X connect 5 0 13 0;
#X connect 6 0 11 0;
#X connect 6 1 10 0;
#X connect 7 0 14 0;
#X connect 8 0 5 0;
#X connect 9 0 5 0;
#X connect 10 0 7 0;
#X connect 11 0 7 0;
#X connect 12 0 18 0;
#X connect 18 0 19 0;
#X connect 19 0 3 0;
#X restore 221 119 pd i2decascii;
#X obj 126 177 pack f f f f;
#X obj 235 39 inlet output;
#N canvas 0 22 790 364 i2decascii 0;
#X obj -59 155 / 16;
#X obj -59 182 i;
#X obj 43 156 % 16;
#X obj -59 118 t f f;
#X obj -59 210 moses 9.5;
#X obj -59 263 i;
#X obj 43 210 moses 9.5;
#X obj 43 263 i;
#X obj -59 232 + 48;
#X obj -1 232 + 55;
#X obj 101 232 + 55;
#X obj 43 233 + 48;
#X obj -59 44 inlet;
#X obj -59 287 outlet;
#X obj 43 287 outlet;
#X text 199 13 convert the decimal float to a 2 digit hexadecimal number
;
#X text 258 37 then to 2 ascii char;
#X text 255 59 then to 2 decimal int = ascii value of this 2 chars
;
#X obj -59 68 min 255;
#X obj -59 92 max 0;
#X connect 0 0 1 0;
#X connect 1 0 4 0;
#X connect 2 0 6 0;
#X connect 3 0 0 0;
#X connect 3 1 2 0;
#X connect 4 0 8 0;
#X connect 4 1 9 0;
#X connect 5 0 13 0;
#X connect 6 0 11 0;
#X connect 6 1 10 0;
#X connect 7 0 14 0;
#X connect 8 0 5 0;
#X connect 9 0 5 0;
#X connect 10 0 7 0;
#X connect 11 0 7 0;
#X connect 12 0 18 0;
#X connect 18 0 19 0;
#X connect 19 0 3 0;
#X restore 333 228 pd i2decascii;
#X floatatom 333 259 5 0 0 0 - - -, f 5;
#X floatatom 408 261 5 0 0 0 - - -, f 5;
#X msg 334 197 72;
#X msg 376 196 0;
#X msg 123 231 send 42 52 56 \$1 \$2 \$3 \$4 35 10;
#X connect 1 0 4 0;
#X connect 1 1 4 1;
#X connect 2 0 1 0;
#X connect 3 0 4 2;
#X connect 3 1 4 3;
#X connect 4 0 11 0;
#X connect 5 0 3 0;
#X connect 6 0 7 0;
#X connect 6 1 8 0;
#X connect 9 0 6 0;
#X connect 10 0 6 0;
#X connect 11 0 0 0;
#X restore 818 -49 pd EngineSetOutput;
#X obj 818 -72 unpack;
#X obj 939 -57 unpack;
#N canvas 395 389 458 362 EngineSetSolo 0;
#X obj 122 288 outlet;
#N canvas 0 22 790 364 i2decascii 0;
#X obj -59 155 / 16;
#X obj -59 182 i;
#X obj 43 156 % 16;
#X obj -59 118 t f f;
#X obj -59 210 moses 9.5;
#X obj -59 263 i;
#X obj 43 210 moses 9.5;
#X obj 43 263 i;
#X obj -59 232 + 48;
#X obj -1 232 + 55;
#X obj 101 232 + 55;
#X obj 43 233 + 48;
#X obj -59 44 inlet;
#X obj -59 287 outlet;
#X obj 43 287 outlet;
#X text 199 13 convert the decimal float to a 2 digit hexadecimal number
;
#X text 258 37 then to 2 ascii char;
#X text 255 59 then to 2 decimal int = ascii value of this 2 chars
;
#X obj -59 68 min 255;
#X obj -59 92 max 0;
#X connect 0 0 1 0;
#X connect 1 0 4 0;
#X connect 2 0 6 0;
#X connect 3 0 0 0;
#X connect 3 1 2 0;
#X connect 4 0 8 0;
#X connect 4 1 9 0;
#X connect 5 0 13 0;
#X connect 6 0 11 0;
#X connect 6 1 10 0;
#X connect 7 0 14 0;
#X connect 8 0 5 0;
#X connect 9 0 5 0;
#X connect 10 0 7 0;
#X connect 11 0 7 0;
#X connect 12 0 18 0;
#X connect 18 0 19 0;
#X connect 19 0 3 0;
#X restore 118 111 pd i2decascii;
#X obj 102 34 inlet engine;
#N canvas 95 22 790 364 i2decascii 0;
#X obj -59 155 / 16;
#X obj -59 182 i;
#X obj 43 156 % 16;
#X obj -59 118 t f f;
#X obj -59 210 moses 9.5;
#X obj -59 263 i;
#X obj 43 210 moses 9.5;
#X obj 43 263 i;
#X obj -59 232 + 48;
#X obj -1 232 + 55;
#X obj 101 232 + 55;
#X obj 43 233 + 48;
#X obj -59 44 inlet;
#X obj -59 287 outlet;
#X obj 43 287 outlet;
#X text 199 13 convert the decimal float to a 2 digit hexadecimal number
;
#X text 258 37 then to 2 ascii char;
#X text 255 59 then to 2 decimal int = ascii value of this 2 chars
;
#X obj -59 68 min 255;
#X obj -59 92 max 0;
#X connect 0 0 1 0;
#X connect 1 0 4 0;
#X connect 2 0 6 0;
#X connect 3 0 0 0;
#X connect 3 1 2 0;
#X connect 4 0 8 0;
#X connect 4 1 9 0;
#X connect 5 0 13 0;
#X connect 6 0 11 0;
#X connect 6 1 10 0;
#X connect 7 0 14 0;
#X connect 8 0 5 0;
#X connect 9 0 5 0;
#X connect 10 0 7 0;
#X connect 11 0 7 0;
#X connect 12 0 18 0;
#X connect 18 0 19 0;
#X connect 19 0 3 0;
#X restore 221 119 pd i2decascii;
#X obj 126 177 pack f f f f;
#X obj 235 39 inlet output;
#N canvas 0 22 790 364 i2decascii 0;
#X obj -59 155 / 16;
#X obj -59 182 i;
#X obj 43 156 % 16;
#X obj -59 118 t f f;
#X obj -59 210 moses 9.5;
#X obj -59 263 i;
#X obj 43 210 moses 9.5;
#X obj 43 263 i;
#X obj -59 232 + 48;
#X obj -1 232 + 55;
#X obj 101 232 + 55;
#X obj 43 233 + 48;
#X obj -59 44 inlet;
#X obj -59 287 outlet;
#X obj 43 287 outlet;
#X text 199 13 convert the decimal float to a 2 digit hexadecimal number
;
#X text 258 37 then to 2 ascii char;
#X text 255 59 then to 2 decimal int = ascii value of this 2 chars
;
#X obj -59 68 min 255;
#X obj -59 92 max 0;
#X connect 0 0 1 0;
#X connect 1 0 4 0;
#X connect 2 0 6 0;
#X connect 3 0 0 0;
#X connect 3 1 2 0;
#X connect 4 0 8 0;
#X connect 4 1 9 0;
#X connect 5 0 13 0;
#X connect 6 0 11 0;
#X connect 6 1 10 0;
#X connect 7 0 14 0;
#X connect 8 0 5 0;
#X connect 9 0 5 0;
#X connect 10 0 7 0;
#X connect 11 0 7 0;
#X connect 12 0 18 0;
#X connect 18 0 19 0;
#X connect 19 0 3 0;
#X restore 333 228 pd i2decascii;
#X floatatom 333 259 5 0 0 0 - - -, f 5;
#X floatatom 408 261 5 0 0 0 - - -, f 5;
#X msg 376 196 0;
#X msg 334 197 74;
#X msg 123 231 send 42 52 65 \$1 \$2 \$3 \$4 35 10;
#X connect 1 0 4 0;
#X connect 1 1 4 1;
#X connect 2 0 1 0;
#X connect 3 0 4 2;
#X connect 3 1 4 3;
#X connect 4 0 11 0;
#X connect 5 0 3 0;
#X connect 6 0 7 0;
#X connect 6 1 8 0;
#X connect 9 0 6 0;
#X connect 10 0 6 0;
#X connect 11 0 0 0;
#X restore 939 -32 pd EngineSetSolo;
#X msg 6 -188 send 42 54 53 48 48 35 10;
#X text 5 -208 Command for 8-biy channel mode;
#X text 3 -171 16-bit channel mode: 42 54 53 70 70 35 10;
#N canvas 595 22 493 477 CommonGetCurveTable 0;
#X obj 57 64 inlet;
#X obj 56 259 outlet;
#N canvas 653 22 790 364 i2decascii 0;
#X obj -59 155 / 16;
#X obj -59 182 i;
#X obj 43 156 % 16;
#X obj -59 118 t f f;
#X obj -59 210 moses 9.5;
#X obj -59 263 i;
#X obj 43 210 moses 9.5;
#X obj 43 263 i;
#X obj -59 232 + 48;
#X obj -1 232 + 55;
#X obj 101 232 + 55;
#X obj 43 233 + 48;
#X obj -59 44 inlet;
#X obj -59 287 outlet;
#X obj 43 287 outlet;
#X text 199 13 convert the decimal float to a 2 digit hexadecimal number
;
#X text 258 37 then to 2 ascii char;
#X text 255 59 then to 2 decimal int = ascii value of this 2 chars
;
#X obj -59 68 min 255;
#X obj -59 92 max 0;
#X connect 0 0 1 0;
#X connect 1 0 4 0;
#X connect 2 0 6 0;
#X connect 3 0 0 0;
#X connect 3 1 2 0;
#X connect 4 0 8 0;
#X connect 4 1 9 0;
#X connect 5 0 13 0;
#X connect 6 0 11 0;
#X connect 6 1 10 0;
#X connect 7 0 14 0;
#X connect 8 0 5 0;
#X connect 9 0 5 0;
#X connect 10 0 7 0;
#X connect 11 0 7 0;
#X connect 12 0 18 0;
#X connect 18 0 19 0;
#X connect 19 0 3 0;
#X restore 57 125 pd i2decascii;
#X text 56 41 Start Channel (16bit);
#X obj 57 90 div 256;
#X obj 112 90 mod 256;
#N canvas 0 22 790 364 i2decascii 0;
#X obj -59 155 / 16;
#X obj -59 182 i;
#X obj 43 156 % 16;
#X obj -59 118 t f f;
#X obj -59 210 moses 9.5;
#X obj -59 263 i;
#X obj 43 210 moses 9.5;
#X obj 43 263 i;
#X obj -59 232 + 48;
#X obj -1 232 + 55;
#X obj 101 232 + 55;
#X obj 43 233 + 48;
#X obj -59 44 inlet;
#X obj -59 287 outlet;
#X obj 43 287 outlet;
#X text 199 13 convert the decimal float to a 2 digit hexadecimal number
;
#X text 258 37 then to 2 ascii char;
#X text 255 59 then to 2 decimal int = ascii value of this 2 chars
;
#X obj -59 68 min 255;
#X obj -59 92 max 0;
#X connect 0 0 1 0;
#X connect 1 0 4 0;
#X connect 2 0 6 0;
#X connect 3 0 0 0;
#X connect 3 1 2 0;
#X connect 4 0 8 0;
#X connect 4 1 9 0;
#X connect 5 0 13 0;
#X connect 6 0 11 0;
#X connect 6 1 10 0;
#X connect 7 0 14 0;
#X connect 8 0 5 0;
#X connect 9 0 5 0;
#X connect 10 0 7 0;
#X connect 11 0 7 0;
#X connect 12 0 18 0;
#X connect 18 0 19 0;
#X connect 19 0 3 0;
#X restore 146 125 pd i2decascii;
#X obj 243 66 inlet;
#X text 241 42 No of Channels (8bit);
#N canvas 0 22 790 364 i2decascii 0;
#X obj -59 155 / 16;
#X obj -59 182 i;
#X obj 43 156 % 16;
#X obj -59 118 t f f;
#X obj -59 210 moses 9.5;
#X obj -59 263 i;
#X obj 43 210 moses 9.5;
#X obj 43 263 i;
#X obj -59 232 + 48;
#X obj -1 232 + 55;
#X obj 101 232 + 55;
#X obj 43 233 + 48;
#X obj -59 44 inlet;
#X obj -59 287 outlet;
#X obj 43 287 outlet;
#X text 199 13 convert the decimal float to a 2 digit hexadecimal number
;
#X text 258 37 then to 2 ascii char;
#X text 255 59 then to 2 decimal int = ascii value of this 2 chars
;
#X obj -59 68 min 255;
#X obj -59 92 max 0;
#X connect 0 0 1 0;
#X connect 1 0 4 0;
#X connect 2 0 6 0;
#X connect 3 0 0 0;
#X connect 3 1 2 0;
#X connect 4 0 8 0;
#X connect 4 1 9 0;
#X connect 5 0 13 0;
#X connect 6 0 11 0;
#X connect 6 1 10 0;
#X connect 7 0 14 0;
#X connect 8 0 5 0;
#X connect 9 0 5 0;
#X connect 10 0 7 0;
#X connect 11 0 7 0;
#X connect 12 0 18 0;
#X connect 18 0 19 0;
#X connect 19 0 3 0;
#X restore 242 126 pd i2decascii;
#X obj 57 155 pack f f f f f f;
#X msg 63 236 CommonGetCurveTable send 42 56 52 \$1 \$2 \$3 \$4 \$5
\$6 35 10;
#X obj 56 284 r CommonGetCurveTable-lbx-in;
#X text 55 375 Could implement some kind of list formate: DMX1 Curve1
\, DMX2 Curve 2 \, ...;
#X obj 56 307 print CurveTable;
#X msg 47 211 send 42 54 53 70 70 35 10;
#X obj 57 179 t a b;
#X text 210 210 16-bit mode;
#X connect 0 0 4 0;
#X connect 0 0 5 0;
#X connect 2 0 10 0;
#X connect 2 1 10 1;
#X connect 4 0 2 0;
#X connect 5 0 6 0;
#X connect 6 0 10 2;
#X connect 6 1 10 3;
#X connect 7 0 9 0;
#X connect 9 0 10 4;
#X connect 9 1 10 5;
#X connect 10 0 16 0;
#X connect 11 0 1 0;
#X connect 12 0 14 0;
#X connect 15 0 1 0;
#X connect 16 0 11 0;
#X connect 16 1 15 0;
#X restore 1079 628 pd CommonGetCurveTable;
#N canvas 617 120 714 517 CommonSetCurveTable 0;
#X obj 67 4 inlet;
#X obj 72 433 outlet;
#X obj 66 66 list split 2;
#X obj 148 66 list;
#X obj 66 90 unpack f f;
#X obj 123 112 min 7;
#X obj 66 111 min 512;
#X text 416 31 wirklich auf 512 begrenzen?;
#X obj 68 278 list prepend;
#X obj 154 279 list;
#X obj 68 301 t b l;
#X obj 72 343 list;
#X obj 197 197 + 48;
#N canvas 653 22 790 364 i2decascii 0;
#X obj -59 155 / 16;
#X obj -59 182 i;
#X obj 43 156 % 16;
#X obj -59 118 t f f;
#X obj -59 210 moses 9.5;
#X obj -59 263 i;
#X obj 43 210 moses 9.5;
#X obj 43 263 i;
#X obj -59 232 + 48;
#X obj -1 232 + 55;
#X obj 101 232 + 55;
#X obj 43 233 + 48;
#X obj -59 44 inlet;
#X obj -59 287 outlet;
#X obj 43 287 outlet;
#X text 199 13 convert the decimal float to a 2 digit hexadecimal number
;
#X text 258 37 then to 2 ascii char;
#X text 255 59 then to 2 decimal int = ascii value of this 2 chars
;
#X obj -59 68 min 255;
#X obj -59 92 max 0;
#X connect 0 0 1 0;
#X connect 1 0 4 0;
#X connect 2 0 6 0;
#X connect 3 0 0 0;
#X connect 3 1 2 0;
#X connect 4 0 8 0;
#X connect 4 1 9 0;
#X connect 5 0 13 0;
#X connect 6 0 11 0;
#X connect 6 1 10 0;
#X connect 7 0 14 0;
#X connect 8 0 5 0;
#X connect 9 0 5 0;
#X connect 10 0 7 0;
#X connect 11 0 7 0;
#X connect 12 0 18 0;
#X connect 18 0 19 0;
#X connect 19 0 3 0;
#X restore 8 228 pd i2decascii;
#X obj 8 206 div 256;
#X obj 63 206 mod 256;
#N canvas 0 22 790 364 i2decascii 0;
#X obj -59 155 / 16;
#X obj -59 182 i;
#X obj 43 156 % 16;
#X obj -59 118 t f f;
#X obj -59 210 moses 9.5;
#X obj -59 263 i;
#X obj 43 210 moses 9.5;
#X obj 43 263 i;
#X obj -59 232 + 48;
#X obj -1 232 + 55;
#X obj 101 232 + 55;
#X obj 43 233 + 48;
#X obj -59 44 inlet;
#X obj -59 287 outlet;
#X obj 43 287 outlet;
#X text 199 13 convert the decimal float to a 2 digit hexadecimal number
;
#X text 258 37 then to 2 ascii char;
#X text 255 59 then to 2 decimal int = ascii value of this 2 chars
;
#X obj -59 68 min 255;
#X obj -59 92 max 0;
#X connect 0 0 1 0;
#X connect 1 0 4 0;
#X connect 2 0 6 0;
#X connect 3 0 0 0;
#X connect 3 1 2 0;
#X connect 4 0 8 0;
#X connect 4 1 9 0;
#X connect 5 0 13 0;
#X connect 6 0 11 0;
#X connect 6 1 10 0;
#X connect 7 0 14 0;
#X connect 8 0 5 0;
#X connect 9 0 5 0;
#X connect 10 0 7 0;
#X connect 11 0 7 0;
#X connect 12 0 18 0;
#X connect 18 0 19 0;
#X connect 19 0 3 0;
#X restore 97 228 pd i2decascii;
#X obj 66 132 max 1;
#X obj 67 41 t a b b;
#X msg 128 40 bang;
#X obj 72 367 list append;
#X obj 123 132 max 0;
#X obj 10 90 print Y;
#X obj 5 291 print Z;
#X obj 64 157 t f f;
#X obj 72 392 list trim;
#X obj 170 175 t b f;
#X obj 64 254 pack f f f f f f;
#X msg 166 198 48;
#X msg 135 343 35 10;
#X msg 185 252 send 42 56 53;
#X text 288 344 Note: LCedit doesnt update the curve numbers in the
patch field. In order to get the current curve tables there one has
to "Reconnect Interface";
#X obj 187 41 s sixteen-bits;
#X connect 0 0 18 0;
#X connect 2 0 4 0;
#X connect 2 0 22 0;
#X connect 2 1 3 1;
#X connect 2 2 11 0;
#X connect 3 0 2 0;
#X connect 4 0 6 0;
#X connect 4 1 5 0;
#X connect 5 0 21 0;
#X connect 6 0 17 0;
#X connect 8 0 10 0;
#X connect 9 0 8 1;
#X connect 9 0 11 1;
#X connect 10 0 3 0;
#X connect 10 1 9 0;
#X connect 11 0 20 0;
#X connect 12 0 27 5;
#X connect 13 0 27 0;
#X connect 13 1 27 1;
#X connect 14 0 13 0;
#X connect 15 0 16 0;
#X connect 16 0 27 2;
#X connect 16 1 27 3;
#X connect 17 0 24 0;
#X connect 18 0 2 0;
#X connect 18 1 30 0;
#X connect 18 2 19 0;
#X connect 18 2 29 0;
#X connect 18 2 32 0;
#X connect 19 0 3 1;
#X connect 19 0 9 1;
#X connect 19 0 11 1;
#X connect 20 0 25 0;
#X connect 21 0 26 0;
#X connect 24 0 14 0;
#X connect 24 1 15 0;
#X connect 25 0 1 0;
#X connect 26 0 28 0;
#X connect 26 1 12 0;
#X connect 27 0 8 0;
#X connect 27 0 23 0;
#X connect 28 0 27 4;
#X connect 29 0 20 1;
#X connect 30 0 8 1;
#X restore 1132 572 pd CommonSetCurveTable;
#N canvas 52 546 450 300 CommonGetCurve 0;
#X obj 104 27 inlet;
#X restore 1234 635 pd CommonGetCurve;
#N canvas 715 511 450 300 CommonSetCurve 0;
#X obj 90 39 inlet;
#X restore 1274 667 pd CommonSetCurve;
#X obj 1079 602 unpack f f;
#X msg 4 -129 send 42 54 53 70 70 35 10;
#X text 33 1096 Todo: Antworten der Lanbox Kommandogemaess auswerten.
Momentan nur je nach Einstieg.;
#X obj 4 -151 r sixteen-bits;
#N canvas 406 382 468 394 EngineSetChaseSpeed 0;
#X obj 122 288 outlet;
#N canvas 0 22 790 364 i2decascii 0;
#X obj -59 155 / 16;
#X obj -59 182 i;
#X obj 43 156 % 16;
#X obj -59 118 t f f;
#X obj -59 210 moses 9.5;
#X obj -59 263 i;
#X obj 43 210 moses 9.5;
#X obj 43 263 i;
#X obj -59 232 + 48;
#X obj -1 232 + 55;
#X obj 101 232 + 55;
#X obj 43 233 + 48;
#X obj -59 44 inlet;
#X obj -59 287 outlet;
#X obj 43 287 outlet;
#X text 199 13 convert the decimal float to a 2 digit hexadecimal number
;
#X text 258 37 then to 2 ascii char;
#X text 255 59 then to 2 decimal int = ascii value of this 2 chars
;
#X obj -59 68 min 255;
#X obj -59 92 max 0;
#X connect 0 0 1 0;
#X connect 1 0 4 0;
#X connect 2 0 6 0;
#X connect 3 0 0 0;
#X connect 3 1 2 0;
#X connect 4 0 8 0;
#X connect 4 1 9 0;
#X connect 5 0 13 0;
#X connect 6 0 11 0;
#X connect 6 1 10 0;
#X connect 7 0 14 0;
#X connect 8 0 5 0;
#X connect 9 0 5 0;
#X connect 10 0 7 0;
#X connect 11 0 7 0;
#X connect 12 0 18 0;
#X connect 18 0 19 0;
#X connect 19 0 3 0;
#X restore 118 111 pd i2decascii;
#X obj 102 34 inlet engine;
#N canvas 0 22 790 364 i2decascii 0;
#X obj -59 155 / 16;
#X obj -59 182 i;
#X obj 43 156 % 16;
#X obj -59 118 t f f;
#X obj -59 210 moses 9.5;
#X obj -59 263 i;
#X obj 43 210 moses 9.5;
#X obj 43 263 i;
#X obj -59 232 + 48;
#X obj -1 232 + 55;
#X obj 101 232 + 55;
#X obj 43 233 + 48;
#X obj -59 44 inlet;
#X obj -59 287 outlet;
#X obj 43 287 outlet;
#X text 199 13 convert the decimal float to a 2 digit hexadecimal number
;
#X text 258 37 then to 2 ascii char;
#X text 255 59 then to 2 decimal int = ascii value of this 2 chars
;
#X obj -59 68 min 255;
#X obj -59 92 max 0;
#X connect 0 0 1 0;
#X connect 1 0 4 0;
#X connect 2 0 6 0;
#X connect 3 0 0 0;
#X connect 3 1 2 0;
#X connect 4 0 8 0;
#X connect 4 1 9 0;
#X connect 5 0 13 0;
#X connect 6 0 11 0;
#X connect 6 1 10 0;
#X connect 7 0 14 0;
#X connect 8 0 5 0;
#X connect 9 0 5 0;
#X connect 10 0 7 0;
#X connect 11 0 7 0;
#X connect 12 0 18 0;
#X connect 18 0 19 0;
#X connect 19 0 3 0;
#X restore 221 119 pd i2decascii;
#X obj 126 177 list.pak.4 f f f f;
#X obj 236 39 inlet speed;
#X msg 122 231 send 42 52 67 \$1 \$2 \$3 \$4 35 10;
#X connect 1 0 4 0;
#X connect 1 1 4 1;
#X connect 2 0 1 0;
#X connect 3 0 4 2;
#X connect 3 1 4 3;
#X connect 4 0 6 0;
#X connect 5 0 3 0;
#X connect 6 0 0 0;
#X restore 436 188 pd EngineSetChaseSpeed;
#X obj 436 166 unpack f f;
#X obj 284 -85 nop;
#X obj 682 -219 route CommonGetLayers LayerGetStatus LayerSetID LayerSetOutput
LayerSetFading LayerSetSolo;
#X obj 67 23 route LayerGo LayerClear LayerPause LayerResume LayerNextStep
LayerPreviousStep LayerNextCue LayerPreviousCue;
#X obj 346 75 route LayerSetChaseMode LayerSetChaseSpeed LayerSetFadeType
LayerSetFadeTime;
#X obj 682 -38 nop;
#X obj 1579 39 nop;
#X obj 697 134 route LayerSetEditRunMode LayerUsesCueList CueListCreate
LayerInsertStep LayerReplaceStep LayerSetCueStepType LayerSetCueStepParameters
;
#X obj 71 362 route LayerSetDeviceID LayerSetSustain LayerIgnoreNoteOff
;
#X obj 412 404 route CueListGetDirectory CueListRemove CueListRead
CueSceneRead CueListWrite CueSceneWrite CueListRemoveStep;
#X obj 755 463 route CommonSetMIDIMode CommonMIDIBeat CommonGetPatcher
CommonSetPatcher CommonGetGain CommonSetGain;
#X obj 1080 508 route CommonGetCurveTable CommonSetCurveTable 8E9092949698CommonGetCurve
8F9193959799CommonSetCurve CommonGetSlope CommonSetSlope;
#N canvas 356 483 509 311 EnginePause 0;
#X obj 132 281 outlet;
#N canvas 0 22 790 364 i2decascii 0;
#X obj -59 155 / 16;
#X obj -59 182 i;
#X obj 43 156 % 16;
#X obj -59 118 t f f;
#X obj -59 210 moses 9.5;
#X obj -59 263 i;
#X obj 43 210 moses 9.5;
#X obj 43 263 i;
#X obj -59 232 + 48;
#X obj -1 232 + 55;
#X obj 101 232 + 55;
#X obj 43 233 + 48;
#X obj -59 44 inlet;
#X obj -59 287 outlet;
#X obj 43 287 outlet;
#X text 199 13 convert the decimal float to a 2 digit hexadecimal number
;
#X text 258 37 then to 2 ascii char;
#X text 255 59 then to 2 decimal int = ascii value of this 2 chars
;
#X obj -59 68 min 255;
#X obj -59 92 max 0;
#X connect 0 0 1 0;
#X connect 1 0 4 0;
#X connect 2 0 6 0;
#X connect 3 0 0 0;
#X connect 3 1 2 0;
#X connect 4 0 8 0;
#X connect 4 1 9 0;
#X connect 5 0 13 0;
#X connect 6 0 11 0;
#X connect 6 1 10 0;
#X connect 7 0 14 0;
#X connect 8 0 5 0;
#X connect 9 0 5 0;
#X connect 10 0 7 0;
#X connect 11 0 7 0;
#X connect 12 0 18 0;
#X connect 18 0 19 0;
#X connect 19 0 3 0;
#X restore 139 157 pd i2decascii;
#X obj 112 44 inlet engine;
#X obj 137 187 pack f f;
#X msg 132 241 send 42 53 56 \$1 \$2 35 10;
#X connect 1 0 3 0;
#X connect 1 1 3 1;
#X connect 2 0 1 0;
#X connect 3 0 4 0;
#X connect 4 0 0 0;
#X restore 144 232 pd EnginePause;
#X obj 66 692 route CommonGetGlobalData CommonSetBaudRate CommonSetDMXOffset
CommonSetNumDMXChannels CommonSetName CommonSetPassword;
#X obj 404 761 route CommonSetIpConfig CommonSetDmxIn CommonSetUdpIn
CommonSetUdpOut CommonSetTime CommonGet16BitTable;
#X obj 723 806 route CommonSet16BitTable CommonStore16BitTable CommonGetMIDIMapping
CommonSetMIDIMapping CommonStoreMIDIMapping CommonGetDigOutPatcher
CommonSetDigOutPatcher;
#X obj 1006 889 route CommonResetNonVolatile DebugGetTotalUsage DebugGetFreeList
DebugGetCuelistUsage;
#X obj 66 -315 route CommonGetAppID Common16BitMode CommonReboot CommonSaveData
;
#X obj -8 -15 nop;
#X obj 963 14 nop;
#X obj 74 279 nop;
#X obj 64 -94 nop;
#X obj -7 324 nop;
#X obj 693 284 nop;
#X obj 1037 312 nop;
#X text 450 149 ?;
#X text 1297 617 ?;
#X text 1361 646 ?;
#X obj 413 551 nop;
#X obj 751 574 nop;
#X obj 1076 681 nop;
#X obj -6 663 nop;
#X obj 61 545 nop;
#X obj -7 956 nop;
#X obj 62 877 nop;
#X obj 402 902 nop;
#X obj 713 951 nop;
#X obj 997 976 nop;
#X obj 1395 704 nop;
#N canvas 813 22 625 545 ChannelSetActive 0;
#X obj 47 78 inlet;
#X obj 159 80 inlet;
#X obj 283 80 inlet;
#X text 41 51 Layer (8bit);
#X text 155 50 Channel (16bit);
#X text 283 53 On/Off (8bit);
#X obj 67 331 outlet;
#N canvas 412 327 790 364 i2decascii 0;
#X obj -59 155 / 16;
#X obj -59 182 i;
#X obj 43 156 % 16;
#X obj -59 118 t f f;
#X obj -59 210 moses 9.5;
#X obj -59 263 i;
#X obj 43 210 moses 9.5;
#X obj 43 263 i;
#X obj -59 232 + 48;
#X obj -1 232 + 55;
#X obj 101 232 + 55;
#X obj 43 233 + 48;
#X obj -59 44 inlet;
#X obj -59 287 outlet;
#X obj 43 287 outlet;
#X text 199 13 convert the decimal float to a 2 digit hexadecimal number
;
#X text 258 37 then to 2 ascii char;
#X text 255 59 then to 2 decimal int = ascii value of this 2 chars
;
#X obj -59 68 min 255;
#X obj -59 92 max 0;
#X connect 0 0 1 0;
#X connect 1 0 4 0;
#X connect 2 0 6 0;
#X connect 3 0 0 0;
#X connect 3 1 2 0;
#X connect 4 0 8 0;
#X connect 4 1 9 0;
#X connect 5 0 13 0;
#X connect 6 0 11 0;
#X connect 6 1 10 0;
#X connect 7 0 14 0;
#X connect 8 0 5 0;
#X connect 9 0 5 0;
#X connect 10 0 7 0;
#X connect 11 0 7 0;
#X connect 12 0 18 0;
#X connect 18 0 19 0;
#X connect 19 0 3 0;
#X restore 370 179 pd i2decascii;
#N canvas 100 22 790 364 i2decascii 0;
#X obj -59 155 / 16;
#X obj -59 182 i;
#X obj 43 156 % 16;
#X obj -59 118 t f f;
#X obj -59 210 moses 9.5;
#X obj -59 263 i;
#X obj 43 210 moses 9.5;
#X obj 43 263 i;
#X obj -59 232 + 48;
#X obj -1 232 + 55;
#X obj 101 232 + 55;
#X obj 43 233 + 48;
#X obj -59 44 inlet;
#X obj -59 287 outlet;
#X obj 43 287 outlet;
#X text 199 13 convert the decimal float to a 2 digit hexadecimal number
;
#X text 258 37 then to 2 ascii char;
#X text 255 59 then to 2 decimal int = ascii value of this 2 chars
;
#X obj -59 68 min 255;
#X obj -59 92 max 0;
#X connect 0 0 1 0;
#X connect 1 0 4 0;
#X connect 2 0 6 0;
#X connect 3 0 0 0;
#X connect 3 1 2 0;
#X connect 4 0 8 0;
#X connect 4 1 9 0;
#X connect 5 0 13 0;
#X connect 6 0 11 0;
#X connect 6 1 10 0;
#X connect 7 0 14 0;
#X connect 8 0 5 0;
#X connect 9 0 5 0;
#X connect 10 0 7 0;
#X connect 11 0 7 0;
#X connect 12 0 18 0;
#X connect 18 0 19 0;
#X connect 19 0 3 0;
#X restore 51 178 pd i2decascii;
#X obj 164 151 div 256;
#X obj 258 153 mod 256;
#N canvas 0 22 790 364 i2decascii 0;
#X obj -59 155 / 16;
#X obj -59 182 i;
#X obj 43 156 % 16;
#X obj -59 118 t f f;
#X obj -59 210 moses 9.5;
#X obj -59 263 i;
#X obj 43 210 moses 9.5;
#X obj 43 263 i;
#X obj -59 232 + 48;
#X obj -1 232 + 55;
#X obj 101 232 + 55;
#X obj 43 233 + 48;
#X obj -59 44 inlet;
#X obj -59 287 outlet;
#X obj 43 287 outlet;
#X text 199 13 convert the decimal float to a 2 digit hexadecimal number
;
#X text 258 37 then to 2 ascii char;
#X text 255 59 then to 2 decimal int = ascii value of this 2 chars
;
#X obj -59 68 min 255;
#X obj -59 92 max 0;
#X connect 0 0 1 0;
#X connect 1 0 4 0;
#X connect 2 0 6 0;
#X connect 3 0 0 0;
#X connect 3 1 2 0;
#X connect 4 0 8 0;
#X connect 4 1 9 0;
#X connect 5 0 13 0;
#X connect 6 0 11 0;
#X connect 6 1 10 0;
#X connect 7 0 14 0;
#X connect 8 0 5 0;
#X connect 9 0 5 0;
#X connect 10 0 7 0;
#X connect 11 0 7 0;
#X connect 12 0 18 0;
#X connect 18 0 19 0;
#X connect 19 0 3 0;
#X restore 164 177 pd i2decascii;
#N canvas 0 22 790 364 i2decascii 0;
#X obj -59 155 / 16;
#X obj -59 182 i;
#X obj 43 156 % 16;
#X obj -59 118 t f f;
#X obj -59 210 moses 9.5;
#X obj -59 263 i;
#X obj 43 210 moses 9.5;
#X obj 43 263 i;
#X obj -59 232 + 48;
#X obj -1 232 + 55;
#X obj 101 232 + 55;
#X obj 43 233 + 48;
#X obj -59 44 inlet;
#X obj -59 287 outlet;
#X obj 43 287 outlet;
#X text 199 13 convert the decimal float to a 2 digit hexadecimal number
;
#X text 258 37 then to 2 ascii char;
#X text 255 59 then to 2 decimal int = ascii value of this 2 chars
;
#X obj -59 68 min 255;
#X obj -59 92 max 0;
#X connect 0 0 1 0;
#X connect 1 0 4 0;
#X connect 2 0 6 0;
#X connect 3 0 0 0;
#X connect 3 1 2 0;
#X connect 4 0 8 0;
#X connect 4 1 9 0;
#X connect 5 0 13 0;
#X connect 6 0 11 0;
#X connect 6 1 10 0;
#X connect 7 0 14 0;
#X connect 8 0 5 0;
#X connect 9 0 5 0;
#X connect 10 0 7 0;
#X connect 11 0 7 0;
#X connect 12 0 18 0;
#X connect 18 0 19 0;
#X connect 19 0 3 0;
#X restore 258 180 pd i2decascii;
#X obj 66 248 pack f f f f f f f f;
#X text 103 303 * CC LA CHA1 B1 CHA2 B2 .. .. CHAn Bn #;
#X msg 67 283 send 42 67 67 \$1 \$2 \$3 \$4 \$5 \$6 \$7 \$8 35 10;
#X connect 0 0 8 0;
#X connect 1 0 9 0;
#X connect 1 0 10 0;
#X connect 2 0 7 0;
#X connect 7 0 13 6;
#X connect 7 1 13 7;
#X connect 8 0 13 0;
#X connect 8 1 13 1;
#X connect 9 0 11 0;
#X connect 10 0 12 0;
#X connect 11 0 13 2;
#X connect 11 1 13 3;
#X connect 12 0 13 4;
#X connect 12 1 13 5;
#X connect 13 0 15 0;
#X connect 15 0 6 0;
#X restore 577 -154 pd ChannelSetActive;
#X obj 577 -196 unpack f f f;
#X obj 575 -117 print CSA;
#N canvas 814 101 625 545 ChannelSetSolo 0;
#X obj 67 86 inlet;
#X obj 197 87 inlet;
#X obj 376 89 inlet;
#X text 61 59 Layer (8bit);
#X text 193 57 Channel (16bit);
#X text 376 59 On/Off (8bit);
#X obj 67 331 outlet;
#N canvas 412 327 790 364 i2decascii 0;
#X obj -59 155 / 16;
#X obj -59 182 i;
#X obj 43 156 % 16;
#X obj -59 118 t f f;
#X obj -59 210 moses 9.5;
#X obj -59 263 i;
#X obj 43 210 moses 9.5;
#X obj 43 263 i;
#X obj -59 232 + 48;
#X obj -1 232 + 55;
#X obj 101 232 + 55;
#X obj 43 233 + 48;
#X obj -59 44 inlet;
#X obj -59 287 outlet;
#X obj 43 287 outlet;
#X text 199 13 convert the decimal float to a 2 digit hexadecimal number
;
#X text 258 37 then to 2 ascii char;
#X text 255 59 then to 2 decimal int = ascii value of this 2 chars
;
#X obj -59 68 min 255;
#X obj -59 92 max 0;
#X connect 0 0 1 0;
#X connect 1 0 4 0;
#X connect 2 0 6 0;
#X connect 3 0 0 0;
#X connect 3 1 2 0;
#X connect 4 0 8 0;
#X connect 4 1 9 0;
#X connect 5 0 13 0;
#X connect 6 0 11 0;
#X connect 6 1 10 0;
#X connect 7 0 14 0;
#X connect 8 0 5 0;
#X connect 9 0 5 0;
#X connect 10 0 7 0;
#X connect 11 0 7 0;
#X connect 12 0 18 0;
#X connect 18 0 19 0;
#X connect 19 0 3 0;
#X restore 69 185 pd i2decascii;
#N canvas 100 22 790 364 i2decascii 0;
#X obj -59 155 / 16;
#X obj -59 182 i;
#X obj 43 156 % 16;
#X obj -59 118 t f f;
#X obj -59 210 moses 9.5;
#X obj -59 263 i;
#X obj 43 210 moses 9.5;
#X obj 43 263 i;
#X obj -59 232 + 48;
#X obj -1 232 + 55;
#X obj 101 232 + 55;
#X obj 43 233 + 48;
#X obj -59 44 inlet;
#X obj -59 287 outlet;
#X obj 43 287 outlet;
#X text 199 13 convert the decimal float to a 2 digit hexadecimal number
;
#X text 258 37 then to 2 ascii char;
#X text 255 59 then to 2 decimal int = ascii value of this 2 chars
;
#X obj -59 68 min 255;
#X obj -59 92 max 0;
#X connect 0 0 1 0;
#X connect 1 0 4 0;
#X connect 2 0 6 0;
#X connect 3 0 0 0;
#X connect 3 1 2 0;
#X connect 4 0 8 0;
#X connect 4 1 9 0;
#X connect 5 0 13 0;
#X connect 6 0 11 0;
#X connect 6 1 10 0;
#X connect 7 0 14 0;
#X connect 8 0 5 0;
#X connect 9 0 5 0;
#X connect 10 0 7 0;
#X connect 11 0 7 0;
#X connect 12 0 18 0;
#X connect 18 0 19 0;
#X connect 19 0 3 0;
#X restore 378 189 pd i2decascii;
#X obj 169 159 div 256;
#X obj 263 161 mod 256;
#N canvas 0 22 790 364 i2decascii 0;
#X obj -59 155 / 16;
#X obj -59 182 i;
#X obj 43 156 % 16;
#X obj -59 118 t f f;
#X obj -59 210 moses 9.5;
#X obj -59 263 i;
#X obj 43 210 moses 9.5;
#X obj 43 263 i;
#X obj -59 232 + 48;
#X obj -1 232 + 55;
#X obj 101 232 + 55;
#X obj 43 233 + 48;
#X obj -59 44 inlet;
#X obj -59 287 outlet;
#X obj 43 287 outlet;
#X text 199 13 convert the decimal float to a 2 digit hexadecimal number
;
#X text 258 37 then to 2 ascii char;
#X text 255 59 then to 2 decimal int = ascii value of this 2 chars
;
#X obj -59 68 min 255;
#X obj -59 92 max 0;
#X connect 0 0 1 0;
#X connect 1 0 4 0;
#X connect 2 0 6 0;
#X connect 3 0 0 0;
#X connect 3 1 2 0;
#X connect 4 0 8 0;
#X connect 4 1 9 0;
#X connect 5 0 13 0;
#X connect 6 0 11 0;
#X connect 6 1 10 0;
#X connect 7 0 14 0;
#X connect 8 0 5 0;
#X connect 9 0 5 0;
#X connect 10 0 7 0;
#X connect 11 0 7 0;
#X connect 12 0 18 0;
#X connect 18 0 19 0;
#X connect 19 0 3 0;
#X restore 169 185 pd i2decascii;
#N canvas 0 22 790 364 i2decascii 0;
#X obj -59 155 / 16;
#X obj -59 182 i;
#X obj 43 156 % 16;
#X obj -59 118 t f f;
#X obj -59 210 moses 9.5;
#X obj -59 263 i;
#X obj 43 210 moses 9.5;
#X obj 43 263 i;
#X obj -59 232 + 48;
#X obj -1 232 + 55;
#X obj 101 232 + 55;
#X obj 43 233 + 48;
#X obj -59 44 inlet;
#X obj -59 287 outlet;
#X obj 43 287 outlet;
#X text 199 13 convert the decimal float to a 2 digit hexadecimal number
;
#X text 258 37 then to 2 ascii char;
#X text 255 59 then to 2 decimal int = ascii value of this 2 chars
;
#X obj -59 68 min 255;
#X obj -59 92 max 0;
#X connect 0 0 1 0;
#X connect 1 0 4 0;
#X connect 2 0 6 0;
#X connect 3 0 0 0;
#X connect 3 1 2 0;
#X connect 4 0 8 0;
#X connect 4 1 9 0;
#X connect 5 0 13 0;
#X connect 6 0 11 0;
#X connect 6 1 10 0;
#X connect 7 0 14 0;
#X connect 8 0 5 0;
#X connect 9 0 5 0;
#X connect 10 0 7 0;
#X connect 11 0 7 0;
#X connect 12 0 18 0;
#X connect 18 0 19 0;
#X connect 19 0 3 0;
#X restore 263 188 pd i2decascii;
#X obj 68 236 pack f f f f f f f f;
#X text 97 301 * CB LA CHA1 B1 CHA2 B2 .. .. CHAn Bn #;
#X msg 67 283 send 42 67 66 \$1 \$2 \$3 \$4 \$5 \$6 \$7 \$8 35 10;
#X connect 0 0 7 0;
#X connect 1 0 9 0;
#X connect 1 0 10 0;
#X connect 2 0 8 0;
#X connect 7 0 13 0;
#X connect 7 1 13 1;
#X connect 8 0 13 6;
#X connect 8 1 13 7;
#X connect 9 0 11 0;
#X connect 10 0 12 0;
#X connect 11 0 13 2;
#X connect 11 1 13 3;
#X connect 12 0 13 4;
#X connect 12 1 13 5;
#X connect 13 0 15 0;
#X connect 15 0 6 0;
#X restore 652 -97 pd ChannelSetSolo;
#X obj 651 -75 print Solo;
#X obj 652 -121 unpack f f f;
#X text 854 -293 After deactivation the channel does not respond anymore!!!
;
#X obj 522 -83 unpack f f f;
#N canvas 811 27 625 545 ChannelSetOutputEnable 0;
#X obj 47 78 inlet;
#X obj 159 80 inlet;
#X obj 283 80 inlet;
#X text 41 51 Layer (8bit);
#X text 155 50 Channel (16bit);
#X text 283 53 On/Off (8bit);
#X obj 67 331 outlet;
#N canvas 412 327 790 364 i2decascii 0;
#X obj -59 155 / 16;
#X obj -59 182 i;
#X obj 43 156 % 16;
#X obj -59 118 t f f;
#X obj -59 210 moses 9.5;
#X obj -59 263 i;
#X obj 43 210 moses 9.5;
#X obj 43 263 i;
#X obj -59 232 + 48;
#X obj -1 232 + 55;
#X obj 101 232 + 55;
#X obj 43 233 + 48;
#X obj -59 44 inlet;
#X obj -59 287 outlet;
#X obj 43 287 outlet;
#X text 199 13 convert the decimal float to a 2 digit hexadecimal number
;
#X text 258 37 then to 2 ascii char;
#X text 255 59 then to 2 decimal int = ascii value of this 2 chars
;
#X obj -59 68 min 255;
#X obj -59 92 max 0;
#X connect 0 0 1 0;
#X connect 1 0 4 0;
#X connect 2 0 6 0;
#X connect 3 0 0 0;
#X connect 3 1 2 0;
#X connect 4 0 8 0;
#X connect 4 1 9 0;
#X connect 5 0 13 0;
#X connect 6 0 11 0;
#X connect 6 1 10 0;
#X connect 7 0 14 0;
#X connect 8 0 5 0;
#X connect 9 0 5 0;
#X connect 10 0 7 0;
#X connect 11 0 7 0;
#X connect 12 0 18 0;
#X connect 18 0 19 0;
#X connect 19 0 3 0;
#X restore 370 179 pd i2decascii;
#N canvas 100 22 790 364 i2decascii 0;
#X obj -59 155 / 16;
#X obj -59 182 i;
#X obj 43 156 % 16;
#X obj -59 118 t f f;
#X obj -59 210 moses 9.5;
#X obj -59 263 i;
#X obj 43 210 moses 9.5;
#X obj 43 263 i;
#X obj -59 232 + 48;
#X obj -1 232 + 55;
#X obj 101 232 + 55;
#X obj 43 233 + 48;
#X obj -59 44 inlet;
#X obj -59 287 outlet;
#X obj 43 287 outlet;
#X text 199 13 convert the decimal float to a 2 digit hexadecimal number
;
#X text 258 37 then to 2 ascii char;
#X text 255 59 then to 2 decimal int = ascii value of this 2 chars
;
#X obj -59 68 min 255;
#X obj -59 92 max 0;
#X connect 0 0 1 0;
#X connect 1 0 4 0;
#X connect 2 0 6 0;
#X connect 3 0 0 0;
#X connect 3 1 2 0;
#X connect 4 0 8 0;
#X connect 4 1 9 0;
#X connect 5 0 13 0;
#X connect 6 0 11 0;
#X connect 6 1 10 0;
#X connect 7 0 14 0;
#X connect 8 0 5 0;
#X connect 9 0 5 0;
#X connect 10 0 7 0;
#X connect 11 0 7 0;
#X connect 12 0 18 0;
#X connect 18 0 19 0;
#X connect 19 0 3 0;
#X restore 53 178 pd i2decascii;
#X obj 164 151 div 256;
#X obj 258 153 mod 256;
#N canvas 0 22 790 364 i2decascii 0;
#X obj -59 155 / 16;
#X obj -59 182 i;
#X obj 43 156 % 16;
#X obj -59 118 t f f;
#X obj -59 210 moses 9.5;
#X obj -59 263 i;
#X obj 43 210 moses 9.5;
#X obj 43 263 i;
#X obj -59 232 + 48;
#X obj -1 232 + 55;
#X obj 101 232 + 55;
#X obj 43 233 + 48;
#X obj -59 44 inlet;
#X obj -59 287 outlet;
#X obj 43 287 outlet;
#X text 199 13 convert the decimal float to a 2 digit hexadecimal number
;
#X text 258 37 then to 2 ascii char;
#X text 255 59 then to 2 decimal int = ascii value of this 2 chars
;
#X obj -59 68 min 255;
#X obj -59 92 max 0;
#X connect 0 0 1 0;
#X connect 1 0 4 0;
#X connect 2 0 6 0;
#X connect 3 0 0 0;
#X connect 3 1 2 0;
#X connect 4 0 8 0;
#X connect 4 1 9 0;
#X connect 5 0 13 0;
#X connect 6 0 11 0;
#X connect 6 1 10 0;
#X connect 7 0 14 0;
#X connect 8 0 5 0;
#X connect 9 0 5 0;
#X connect 10 0 7 0;
#X connect 11 0 7 0;
#X connect 12 0 18 0;
#X connect 18 0 19 0;
#X connect 19 0 3 0;
#X restore 164 177 pd i2decascii;
#N canvas 0 22 790 364 i2decascii 0;
#X obj -59 155 / 16;
#X obj -59 182 i;
#X obj 43 156 % 16;
#X obj -59 118 t f f;
#X obj -59 210 moses 9.5;
#X obj -59 263 i;
#X obj 43 210 moses 9.5;
#X obj 43 263 i;
#X obj -59 232 + 48;
#X obj -1 232 + 55;
#X obj 101 232 + 55;
#X obj 43 233 + 48;
#X obj -59 44 inlet;
#X obj -59 287 outlet;
#X obj 43 287 outlet;
#X text 199 13 convert the decimal float to a 2 digit hexadecimal number
;
#X text 258 37 then to 2 ascii char;
#X text 255 59 then to 2 decimal int = ascii value of this 2 chars
;
#X obj -59 68 min 255;
#X obj -59 92 max 0;
#X connect 0 0 1 0;
#X connect 1 0 4 0;
#X connect 2 0 6 0;
#X connect 3 0 0 0;
#X connect 3 1 2 0;
#X connect 4 0 8 0;
#X connect 4 1 9 0;
#X connect 5 0 13 0;
#X connect 6 0 11 0;
#X connect 6 1 10 0;
#X connect 7 0 14 0;
#X connect 8 0 5 0;
#X connect 9 0 5 0;
#X connect 10 0 7 0;
#X connect 11 0 7 0;
#X connect 12 0 18 0;
#X connect 18 0 19 0;
#X connect 19 0 3 0;
#X restore 258 180 pd i2decascii;
#X obj 66 248 pack f f f f f f f f;
#X text 103 303 * CA LA CHA1 B1 CHA2 B2 .. .. CHAn Bn #;
#X msg 67 283 send 42 67 65 \$1 \$2 \$3 \$4 \$5 \$6 \$7 \$8 35 10;
#X connect 0 0 8 0;
#X connect 1 0 9 0;
#X connect 1 0 10 0;
#X connect 2 0 7 0;
#X connect 7 0 13 6;
#X connect 7 1 13 7;
#X connect 8 0 13 0;
#X connect 8 1 13 1;
#X connect 9 0 11 0;
#X connect 10 0 12 0;
#X connect 11 0 13 2;
#X connect 11 1 13 3;
#X connect 12 0 13 4;
#X connect 12 1 13 5;
#X connect 13 0 15 0;
#X connect 15 0 6 0;
#X restore 521 -60 pd ChannelSetOutputEnable;
#X obj 382 -72 unpack f f f;
#N canvas 756 165 609 672 ChannelReadStatus 0;
#X obj 68 307 outlet;
#N canvas 0 22 790 364 i2decascii 0;
#X obj -59 155 / 16;
#X obj -59 182 i;
#X obj 43 156 % 16;
#X obj -59 118 t f f;
#X obj -59 210 moses 9.5;
#X obj -59 263 i;
#X obj 43 210 moses 9.5;
#X obj 43 263 i;
#X obj -59 232 + 48;
#X obj -1 232 + 55;
#X obj 101 232 + 55;
#X obj 43 233 + 48;
#X obj -59 44 inlet;
#X obj -59 287 outlet;
#X obj 43 287 outlet;
#X text 199 13 convert the decimal float to a 2 digit hexadecimal number
;
#X text 258 37 then to 2 ascii char;
#X text 255 59 then to 2 decimal int = ascii value of this 2 chars
;
#X obj -59 68 min 255;
#X obj -59 92 max 0;
#X connect 0 0 1 0;
#X connect 1 0 4 0;
#X connect 2 0 6 0;
#X connect 3 0 0 0;
#X connect 3 1 2 0;
#X connect 4 0 8 0;
#X connect 4 1 9 0;
#X connect 5 0 13 0;
#X connect 6 0 11 0;
#X connect 6 1 10 0;
#X connect 7 0 14 0;
#X connect 8 0 5 0;
#X connect 9 0 5 0;
#X connect 10 0 7 0;
#X connect 11 0 7 0;
#X connect 12 0 18 0;
#X connect 18 0 19 0;
#X connect 19 0 3 0;
#X restore 75 108 pd i2decascii;
#X text 97 212 * CE LA CHAN NR #;
#X obj 78 15 inlet;
#X obj 190 15 inlet;
#X obj 193 79 div 256;
#X obj 287 81 mod 256;
#N canvas 0 22 790 364 i2decascii 0;
#X obj -59 155 / 16;
#X obj -59 182 i;
#X obj 43 156 % 16;
#X obj -59 118 t f f;
#X obj -59 210 moses 9.5;
#X obj -59 263 i;
#X obj 43 210 moses 9.5;
#X obj 43 263 i;
#X obj -59 232 + 48;
#X obj -1 232 + 55;
#X obj 101 232 + 55;
#X obj 43 233 + 48;
#X obj -59 44 inlet;
#X obj -59 287 outlet;
#X obj 43 287 outlet;
#X text 199 13 convert the decimal float to a 2 digit hexadecimal number
;
#X text 258 37 then to 2 ascii char;
#X text 255 59 then to 2 decimal int = ascii value of this 2 chars
;
#X obj -59 68 min 255;
#X obj -59 92 max 0;
#X connect 0 0 1 0;
#X connect 1 0 4 0;
#X connect 2 0 6 0;
#X connect 3 0 0 0;
#X connect 3 1 2 0;
#X connect 4 0 8 0;
#X connect 4 1 9 0;
#X connect 5 0 13 0;
#X connect 6 0 11 0;
#X connect 6 1 10 0;
#X connect 7 0 14 0;
#X connect 8 0 5 0;
#X connect 9 0 5 0;
#X connect 10 0 7 0;
#X connect 11 0 7 0;
#X connect 12 0 18 0;
#X connect 18 0 19 0;
#X connect 19 0 3 0;
#X restore 193 105 pd i2decascii;
#N canvas 0 22 790 364 i2decascii 0;
#X obj -59 155 / 16;
#X obj -59 182 i;
#X obj 43 156 % 16;
#X obj -59 118 t f f;
#X obj -59 210 moses 9.5;
#X obj -59 263 i;
#X obj 43 210 moses 9.5;
#X obj 43 263 i;
#X obj -59 232 + 48;
#X obj -1 232 + 55;
#X obj 101 232 + 55;
#X obj 43 233 + 48;
#X obj -59 44 inlet;
#X obj -59 287 outlet;
#X obj 43 287 outlet;
#X text 199 13 convert the decimal float to a 2 digit hexadecimal number
;
#X text 258 37 then to 2 ascii char;
#X text 255 59 then to 2 decimal int = ascii value of this 2 chars
;
#X obj -59 68 min 255;
#X obj -59 92 max 0;
#X connect 0 0 1 0;
#X connect 1 0 4 0;
#X connect 2 0 6 0;
#X connect 3 0 0 0;
#X connect 3 1 2 0;
#X connect 4 0 8 0;
#X connect 4 1 9 0;
#X connect 5 0 13 0;
#X connect 6 0 11 0;
#X connect 6 1 10 0;
#X connect 7 0 14 0;
#X connect 8 0 5 0;
#X connect 9 0 5 0;
#X connect 10 0 7 0;
#X connect 11 0 7 0;
#X connect 12 0 18 0;
#X connect 18 0 19 0;
#X connect 19 0 3 0;
#X restore 287 108 pd i2decascii;
#X text 188 -7 Channel Offset (16bit);
#X text 402 -7 Number Of Channels (8bit);
#N canvas 0 22 790 364 i2decascii 0;
#X obj -59 155 / 16;
#X obj -59 182 i;
#X obj 43 156 % 16;
#X obj -59 118 t f f;
#X obj -59 210 moses 9.5;
#X obj -59 263 i;
#X obj 43 210 moses 9.5;
#X obj 43 263 i;
#X obj -59 232 + 48;
#X obj -1 232 + 55;
#X obj 101 232 + 55;
#X obj 43 233 + 48;
#X obj -59 44 inlet;
#X obj -59 287 outlet;
#X obj 43 287 outlet;
#X text 199 13 convert the decimal float to a 2 digit hexadecimal number
;
#X text 258 37 then to 2 ascii char;
#X text 255 59 then to 2 decimal int = ascii value of this 2 chars
;
#X obj -59 68 min 255;
#X obj -59 92 max 0;
#X connect 0 0 1 0;
#X connect 1 0 4 0;
#X connect 2 0 6 0;
#X connect 3 0 0 0;
#X connect 3 1 2 0;
#X connect 4 0 8 0;
#X connect 4 1 9 0;
#X connect 5 0 13 0;
#X connect 6 0 11 0;
#X connect 6 1 10 0;
#X connect 7 0 14 0;
#X connect 8 0 5 0;
#X connect 9 0 5 0;
#X connect 10 0 7 0;
#X connect 11 0 7 0;
#X connect 12 0 18 0;
#X connect 18 0 19 0;
#X connect 19 0 3 0;
#X restore 405 108 pd i2decascii;
#X obj 407 21 inlet;
#X msg 65 193 send 42 67 69 \$1 \$2 \$3 \$4 \$5 \$6 \$7 \$8 35 10;
#X text 75 -93 16-Bit Mode;
#X obj 83 161 pack f f f f f f f f;
#X text 73 -7 Layer (8bit);
#X obj 66 241 t a b;
#X msg 132 268 ChannelReadStatus;
#X obj 132 292 s lbx-answer;
#X connect 1 0 15 0;
#X connect 1 1 15 1;
#X connect 3 0 1 0;
#X connect 4 0 5 0;
#X connect 4 0 6 0;
#X connect 5 0 7 0;
#X connect 6 0 8 0;
#X connect 7 0 15 2;
#X connect 7 1 15 3;
#X connect 8 0 15 4;
#X connect 8 1 15 5;
#X connect 11 0 15 6;
#X connect 11 1 15 7;
#X connect 12 0 11 0;
#X connect 13 0 17 0;
#X connect 15 0 13 0;
#X connect 17 0 0 0;
#X connect 17 1 18 0;
#X connect 18 0 19 0;
#X restore 381 -51 pd ChannelReadStatus;
#N canvas 448 59 708 412 CommonGetAppID 0;
#X obj 126 50 inlet;
#X text 157 96 * 5 0 0 #;
#X obj 129 184 outlet;
#X msg 126 80 send 42 48 48 48 53 48 48 48 48 35 10;
#X msg 188 159 CommonGetAppID;
#X obj 127 119 t a b;
#X obj 188 183 s lbx-answer;
#X connect 0 0 3 0;
#X connect 3 0 5 0;
#X connect 4 0 6 0;
#X connect 5 0 2 0;
#X connect 5 1 4 0;
#X restore 66 -277 pd CommonGetAppID;
#N canvas 322 22 519 420 Common16BitMode 0;
#X obj 24 -46 inlet;
#X msg 24 49 send 42 54 53 48 48 35 10;
#X msg 219 53 send 42 54 53 70 70 35 10;
#X obj 219 31 r sixteen-bits;
#X text 22 -72 Boolian 16-Bit Mode Yes/No (8 bit);
#X obj 24 -22 sel 0;
#X obj 94 158 outlet;
#X text 252 71 * 65 FF #;
#X text 62 70 * 65 0 #;
#X obj 25 110 print Setting 8-bit mode;
#X text 23 29 comment;
#X obj 222 109 print Setting 16-bit mode;
#X connect 0 0 5 0;
#X connect 1 0 6 0;
#X connect 1 0 9 0;
#X connect 2 0 6 0;
#X connect 2 0 11 0;
#X connect 3 0 2 0;
#X connect 5 0 1 0;
#X connect 5 1 2 0;
#X restore 138 -254 pd Common16BitMode;
#N canvas 740 414 450 300 LayerSetAutoOutput 0;
#X obj 87 54 inlet;
#X obj 87 214 outlet;
#X text 118 191 * 64 LA BO #;
#X text 192 29 Boolian Off/On (8bit);
#X obj 193 56 inlet;
#X text 86 32 Layer (8bit);
#N canvas 100 22 790 364 i2decascii 0;
#X obj -59 155 / 16;
#X obj -59 182 i;
#X obj 43 156 % 16;
#X obj -59 118 t f f;
#X obj -59 210 moses 9.5;
#X obj -59 263 i;
#X obj 43 210 moses 9.5;
#X obj 43 263 i;
#X obj -59 232 + 48;
#X obj -1 232 + 55;
#X obj 101 232 + 55;
#X obj 43 233 + 48;
#X obj -59 44 inlet;
#X obj -59 287 outlet;
#X obj 43 287 outlet;
#X text 199 13 convert the decimal float to a 2 digit hexadecimal number
;
#X text 258 37 then to 2 ascii char;
#X text 255 59 then to 2 decimal int = ascii value of this 2 chars
;
#X obj -59 68 min 255;
#X obj -59 92 max 0;
#X connect 0 0 1 0;
#X connect 1 0 4 0;
#X connect 2 0 6 0;
#X connect 3 0 0 0;
#X connect 3 1 2 0;
#X connect 4 0 8 0;
#X connect 4 1 9 0;
#X connect 5 0 13 0;
#X connect 6 0 11 0;
#X connect 6 1 10 0;
#X connect 7 0 14 0;
#X connect 8 0 5 0;
#X connect 9 0 5 0;
#X connect 10 0 7 0;
#X connect 11 0 7 0;
#X connect 12 0 18 0;
#X connect 18 0 19 0;
#X connect 19 0 3 0;
#X restore 87 103 pd i2decascii;
#N canvas 100 22 790 364 i2decascii 0;
#X obj -59 155 / 16;
#X obj -59 182 i;
#X obj 43 156 % 16;
#X obj -59 118 t f f;
#X obj -59 210 moses 9.5;
#X obj -59 263 i;
#X obj 43 210 moses 9.5;
#X obj 43 263 i;
#X obj -59 232 + 48;
#X obj -1 232 + 55;
#X obj 101 232 + 55;
#X obj 43 233 + 48;
#X obj -59 44 inlet;
#X obj -59 287 outlet;
#X obj 43 287 outlet;
#X text 199 13 convert the decimal float to a 2 digit hexadecimal number
;
#X text 258 37 then to 2 ascii char;
#X text 255 59 then to 2 decimal int = ascii value of this 2 chars
;
#X obj -59 68 min 255;
#X obj -59 92 max 0;
#X connect 0 0 1 0;
#X connect 1 0 4 0;
#X connect 2 0 6 0;
#X connect 3 0 0 0;
#X connect 3 1 2 0;
#X connect 4 0 8 0;
#X connect 4 1 9 0;
#X connect 5 0 13 0;
#X connect 6 0 11 0;
#X connect 6 1 10 0;
#X connect 7 0 14 0;
#X connect 8 0 5 0;
#X connect 9 0 5 0;
#X connect 10 0 7 0;
#X connect 11 0 7 0;
#X connect 12 0 18 0;
#X connect 18 0 19 0;
#X connect 19 0 3 0;
#X restore 190 104 pd i2decascii;
#X obj 87 134 pack f f f f;
#X msg 87 174 send 42 \$1 \$2 \$3 \$4 35 10;
#X connect 0 0 6 0;
#X connect 4 0 7 0;
#X connect 6 0 8 0;
#X connect 6 1 8 1;
#X connect 7 0 8 2;
#X connect 7 1 8 3;
#X connect 8 0 9 0;
#X connect 9 0 1 0;
#X restore 958 -114 pd LayerSetAutoOutput;
#X obj 961 -177 route LayerSetAutoOutput LayerSetMixMode LayerSetTransparencyDepth
LayerSetLocked;
#X text 1258 -180 LayerConfigure:;
#N canvas 632 441 450 300 MoveLayerUnder 0;
#X obj 64 69 inlet;
#X text 60 38 Source Layer (8bit);
#X text 221 38 Destination Layer (8bit);
#X obj 227 66 inlet;
#X obj 65 225 outlet;
#N canvas 100 22 790 364 i2decascii 0;
#X obj -59 155 / 16;
#X obj -59 182 i;
#X obj 43 156 % 16;
#X obj -59 118 t f f;
#X obj -59 210 moses 9.5;
#X obj -59 263 i;
#X obj 43 210 moses 9.5;
#X obj 43 263 i;
#X obj -59 232 + 48;
#X obj -1 232 + 55;
#X obj 101 232 + 55;
#X obj 43 233 + 48;
#X obj -59 44 inlet;
#X obj -59 287 outlet;
#X obj 43 287 outlet;
#X text 199 13 convert the decimal float to a 2 digit hexadecimal number
;
#X text 258 37 then to 2 ascii char;
#X text 255 59 then to 2 decimal int = ascii value of this 2 chars
;
#X obj -59 68 min 255;
#X obj -59 92 max 0;
#X connect 0 0 1 0;
#X connect 1 0 4 0;
#X connect 2 0 6 0;
#X connect 3 0 0 0;
#X connect 3 1 2 0;
#X connect 4 0 8 0;
#X connect 4 1 9 0;
#X connect 5 0 13 0;
#X connect 6 0 11 0;
#X connect 6 1 10 0;
#X connect 7 0 14 0;
#X connect 8 0 5 0;
#X connect 9 0 5 0;
#X connect 10 0 7 0;
#X connect 11 0 7 0;
#X connect 12 0 18 0;
#X connect 18 0 19 0;
#X connect 19 0 3 0;
#X restore 64 103 pd i2decascii;
#N canvas 100 22 790 364 i2decascii 0;
#X obj -59 155 / 16;
#X obj -59 182 i;
#X obj 43 156 % 16;
#X obj -59 118 t f f;
#X obj -59 210 moses 9.5;
#X obj -59 263 i;
#X obj 43 210 moses 9.5;
#X obj 43 263 i;
#X obj -59 232 + 48;
#X obj -1 232 + 55;
#X obj 101 232 + 55;
#X obj 43 233 + 48;
#X obj -59 44 inlet;
#X obj -59 287 outlet;
#X obj 43 287 outlet;
#X text 199 13 convert the decimal float to a 2 digit hexadecimal number
;
#X text 258 37 then to 2 ascii char;
#X text 255 59 then to 2 decimal int = ascii value of this 2 chars
;
#X obj -59 68 min 255;
#X obj -59 92 max 0;
#X connect 0 0 1 0;
#X connect 1 0 4 0;
#X connect 2 0 6 0;
#X connect 3 0 0 0;
#X connect 3 1 2 0;
#X connect 4 0 8 0;
#X connect 4 1 9 0;
#X connect 5 0 13 0;
#X connect 6 0 11 0;
#X connect 6 1 10 0;
#X connect 7 0 14 0;
#X connect 8 0 5 0;
#X connect 9 0 5 0;
#X connect 10 0 7 0;
#X connect 11 0 7 0;
#X connect 12 0 18 0;
#X connect 18 0 19 0;
#X connect 19 0 3 0;
#X restore 226 107 pd i2decascii;
#X obj 63 136 pack f f f f;
#X text 93 187 * 44 LD LS #;
#X msg 61 169 send 42 52 52 \$1 \$2 \$3 \$4 35 10;
#X connect 0 0 5 0;
#X connect 3 0 6 0;
#X connect 5 0 7 0;
#X connect 5 1 7 1;
#X connect 6 0 7 2;
#X connect 6 1 7 3;
#X connect 7 0 9 0;
#X connect 9 0 4 0;
#X restore 1283 -104 pd MoveLayerUnder;
#X obj 958 -135 unpack f f;
#X obj 1092 -132 unpack f f;
#X obj 1282 -125 unpack f f;
#X obj 1233 9 nop;
#N canvas 2277 459 450 300 MoveLayerTop 0;
#X obj 64 69 inlet;
#X text 60 38 Source Layer (8bit);
#X obj 65 225 outlet;
#N canvas 100 22 790 364 i2decascii 0;
#X obj -59 155 / 16;
#X obj -59 182 i;
#X obj 43 156 % 16;
#X obj -59 118 t f f;
#X obj -59 210 moses 9.5;
#X obj -59 263 i;
#X obj 43 210 moses 9.5;
#X obj 43 263 i;
#X obj -59 232 + 48;
#X obj -1 232 + 55;
#X obj 101 232 + 55;
#X obj 43 233 + 48;
#X obj -59 44 inlet;
#X obj -59 287 outlet;
#X obj 43 287 outlet;
#X text 199 13 convert the decimal float to a 2 digit hexadecimal number
;
#X text 258 37 then to 2 ascii char;
#X text 255 59 then to 2 decimal int = ascii value of this 2 chars
;
#X obj -59 68 min 255;
#X obj -59 92 max 0;
#X connect 0 0 1 0;
#X connect 1 0 4 0;
#X connect 2 0 6 0;
#X connect 3 0 0 0;
#X connect 3 1 2 0;
#X connect 4 0 8 0;
#X connect 4 1 9 0;
#X connect 5 0 13 0;
#X connect 6 0 11 0;
#X connect 6 1 10 0;
#X connect 7 0 14 0;
#X connect 8 0 5 0;
#X connect 9 0 5 0;
#X connect 10 0 7 0;
#X connect 11 0 7 0;
#X connect 12 0 18 0;
#X connect 18 0 19 0;
#X connect 19 0 3 0;
#X restore 64 103 pd i2decascii;
#X text 93 187 * 44 LD LS #;
#X msg 61 169 send 42 52 52 \$1 \$2 48 48 35 10;
#X obj 63 136 pack f f;
#X connect 0 0 3 0;
#X connect 3 0 6 0;
#X connect 3 1 6 1;
#X connect 5 0 2 0;
#X connect 6 0 5 0;
#X restore 1308 -74 pd MoveLayerTop;
#X text 119 -108 obsolete!;
#X text 1120 -90 Buggy \, makes pd crash!!!;
#N canvas 3038 499 450 300 DeleteLayer 0;
#X obj 95 38 inlet;
#X obj 99 211 outlet;
#N canvas 100 22 790 364 i2decascii 0;
#X obj -59 155 / 16;
#X obj -59 182 i;
#X obj 43 156 % 16;
#X obj -59 118 t f f;
#X obj -59 210 moses 9.5;
#X obj -59 263 i;
#X obj 43 210 moses 9.5;
#X obj 43 263 i;
#X obj -59 232 + 48;
#X obj -1 232 + 55;
#X obj 101 232 + 55;
#X obj 43 233 + 48;
#X obj -59 44 inlet;
#X obj -59 287 outlet;
#X obj 43 287 outlet;
#X text 199 13 convert the decimal float to a 2 digit hexadecimal number
;
#X text 258 37 then to 2 ascii char;
#X text 255 59 then to 2 decimal int = ascii value of this 2 chars
;
#X obj -59 68 min 255;
#X obj -59 92 max 0;
#X connect 0 0 1 0;
#X connect 1 0 4 0;
#X connect 2 0 6 0;
#X connect 3 0 0 0;
#X connect 3 1 2 0;
#X connect 4 0 8 0;
#X connect 4 1 9 0;
#X connect 5 0 13 0;
#X connect 6 0 11 0;
#X connect 6 1 10 0;
#X connect 7 0 14 0;
#X connect 8 0 5 0;
#X connect 9 0 5 0;
#X connect 10 0 7 0;
#X connect 11 0 7 0;
#X connect 12 0 18 0;
#X connect 18 0 19 0;
#X connect 19 0 3 0;
#X restore 98 85 pd i2decascii;
#X obj 97 118 pack f f;
#X text 131 188 * 44 LD 64 #;
#X msg 100 169 send 42 52 52 \$1 \$2 52 48 35 10;
#X connect 0 0 2 0;
#X connect 2 0 3 0;
#X connect 2 1 3 1;
#X connect 3 0 5 0;
#X connect 5 0 1 0;
#X restore 1483 -61 pd DeleteLayer;
#X obj 1258 -157 route MoveLayerUnder MoveLayerTop CreateLayerUnder
DeleteLayer;
#N canvas 3038 499 450 300 CreateLayerUnder 0;
#X obj 95 38 inlet;
#X obj 99 211 outlet;
#X text 131 188 * 44 64 LS #;
#N canvas 100 22 790 364 i2decascii 0;
#X obj -59 155 / 16;
#X obj -59 182 i;
#X obj 43 156 % 16;
#X obj -59 118 t f f;
#X obj -59 210 moses 9.5;
#X obj -59 263 i;
#X obj 43 210 moses 9.5;
#X obj 43 263 i;
#X obj -59 232 + 48;
#X obj -1 232 + 55;
#X obj 101 232 + 55;
#X obj 43 233 + 48;
#X obj -59 44 inlet;
#X obj -59 287 outlet;
#X obj 43 287 outlet;
#X text 199 13 convert the decimal float to a 2 digit hexadecimal number
;
#X text 258 37 then to 2 ascii char;
#X text 255 59 then to 2 decimal int = ascii value of this 2 chars
;
#X obj -59 68 min 255;
#X obj -59 92 max 0;
#X connect 0 0 1 0;
#X connect 1 0 4 0;
#X connect 2 0 6 0;
#X connect 3 0 0 0;
#X connect 3 1 2 0;
#X connect 4 0 8 0;
#X connect 4 1 9 0;
#X connect 5 0 13 0;
#X connect 6 0 11 0;
#X connect 6 1 10 0;
#X connect 7 0 14 0;
#X connect 8 0 5 0;
#X connect 9 0 5 0;
#X connect 10 0 7 0;
#X connect 11 0 7 0;
#X connect 12 0 18 0;
#X connect 18 0 19 0;
#X connect 19 0 3 0;
#X restore 98 85 pd i2decascii;
#X obj 97 118 pack f f;
#X msg 100 169 send 42 52 52 52 48 \$1 \$2 35 10;
#X connect 0 0 3 0;
#X connect 3 0 4 0;
#X connect 3 1 4 1;
#X connect 4 0 5 0;
#X connect 5 0 1 0;
#X restore 1428 -111 pd CreateLayerUnder;
#X obj 363 -278 route OneChannelSetData MultichannelSetData ChannelReadData
ChannelReadStatus ChannelSetOutputEnable ChannelSetActive ChannelSetSolo
;
#X connect 0 0 2 0;
#X connect 2 0 1 0;
#X connect 3 0 43 0;
#X connect 4 0 3 0;
#X connect 4 1 3 1;
#X connect 4 2 3 2;
#X connect 5 0 6 0;
#X connect 5 1 6 1;
#X connect 5 2 6 2;
#X connect 6 0 62 0;
#X connect 7 0 59 0;
#X connect 8 0 62 0;
#X connect 9 0 62 0;
#X connect 10 0 64 0;
#X connect 11 0 62 0;
#X connect 12 0 13 0;
#X connect 12 1 13 1;
#X connect 13 0 47 0;
#X connect 14 0 15 0;
#X connect 14 1 15 1;
#X connect 15 0 10 0;
#X connect 16 0 17 0;
#X connect 16 1 17 1;
#X connect 17 0 10 0;
#X connect 18 0 19 0;
#X connect 18 1 19 1;
#X connect 19 0 61 0;
#X connect 20 0 62 0;
#X connect 22 0 21 0;
#X connect 23 0 43 0;
#X connect 24 0 23 0;
#X connect 24 1 23 1;
#X connect 24 2 23 2;
#X connect 25 0 61 0;
#X connect 26 0 47 0;
#X connect 27 0 26 0;
#X connect 27 1 26 1;
#X connect 28 0 29 0;
#X connect 28 1 29 1;
#X connect 29 0 47 0;
#X connect 30 0 63 0;
#X connect 33 0 72 0;
#X connect 34 0 72 0;
#X connect 37 0 33 0;
#X connect 37 1 33 1;
#X connect 38 0 63 0;
#X connect 40 0 38 0;
#X connect 41 0 10 0;
#X connect 42 0 41 0;
#X connect 42 1 41 1;
#X connect 43 0 60 0;
#X connect 44 3 27 0;
#X connect 44 4 12 0;
#X connect 44 5 28 0;
#X connect 44 6 95 0;
#X connect 45 0 5 0;
#X connect 45 1 11 0;
#X connect 45 2 54 0;
#X connect 45 3 20 0;
#X connect 45 4 8 0;
#X connect 45 5 9 0;
#X connect 45 8 46 0;
#X connect 46 1 42 0;
#X connect 46 2 14 0;
#X connect 46 3 16 0;
#X connect 46 4 49 0;
#X connect 47 0 60 0;
#X connect 48 0 45 0;
#X connect 49 7 66 0;
#X connect 50 3 51 0;
#X connect 51 7 52 0;
#X connect 52 6 53 0;
#X connect 53 0 37 0;
#X connect 53 1 34 0;
#X connect 53 2 35 0;
#X connect 53 3 36 0;
#X connect 53 6 80 0;
#X connect 54 0 62 0;
#X connect 55 6 56 0;
#X connect 56 6 57 0;
#X connect 57 7 58 0;
#X connect 58 4 22 0;
#X connect 59 0 92 0;
#X connect 59 1 93 0;
#X connect 59 4 108 0;
#X connect 60 0 2 0;
#X connect 61 0 60 0;
#X connect 62 0 64 0;
#X connect 63 0 60 0;
#X connect 64 0 2 0;
#X connect 65 0 64 0;
#X connect 66 0 50 0;
#X connect 70 0 73 0;
#X connect 71 0 73 0;
#X connect 72 0 73 0;
#X connect 73 0 2 0;
#X connect 74 0 73 0;
#X connect 75 0 2 0;
#X connect 76 0 75 0;
#X connect 77 0 75 0;
#X connect 78 0 75 0;
#X connect 79 0 75 0;
#X connect 80 0 55 0;
#X connect 81 0 43 0;
#X connect 81 0 83 0;
#X connect 82 0 81 0;
#X connect 82 1 81 1;
#X connect 82 2 81 2;
#X connect 84 0 85 0;
#X connect 84 0 43 0;
#X connect 86 0 84 0;
#X connect 86 1 84 1;
#X connect 86 2 84 2;
#X connect 88 0 89 0;
#X connect 88 1 89 1;
#X connect 88 2 89 2;
#X connect 89 0 43 0;
#X connect 90 0 91 0;
#X connect 90 1 91 1;
#X connect 90 2 91 2;
#X connect 91 0 43 0;
#X connect 92 0 63 0;
#X connect 93 0 63 0;
#X connect 94 0 61 0;
#X connect 95 0 98 0;
#X connect 95 1 18 0;
#X connect 95 2 99 0;
#X connect 95 4 106 0;
#X connect 97 0 101 0;
#X connect 98 0 94 0;
#X connect 98 1 94 1;
#X connect 99 0 25 0;
#X connect 99 1 25 1;
#X connect 100 0 97 0;
#X connect 100 1 97 1;
#X connect 101 0 60 0;
#X connect 102 0 101 0;
#X connect 105 0 101 0;
#X connect 106 0 100 0;
#X connect 106 1 102 0;
#X connect 106 2 107 0;
#X connect 106 3 105 0;
#X connect 106 4 48 0;
#X connect 107 0 101 0;
#X connect 108 0 4 0;
#X connect 108 1 24 0;
#X connect 108 3 90 0;
#X connect 108 4 88 0;
#X connect 108 5 82 0;
#X connect 108 6 86 0;
#X connect 108 7 44 0;
