#N canvas 141 175 892 596 10;
#X obj 6 569 outlet;
#X obj 439 100 inlet smoothlevel;
#X obj 45 222 t f f f f;
#X obj 176 266 number.round;
#X obj 153 299 -;
#X obj 140 566 outlet;
#X obj 47 366 number.round;
#X obj 85 177 f;
#X obj 46 153 t a b;
#X obj 46 198 line 40;
#X obj 153 324 anal.sign;
#X obj 154 348 scale.linear 0 1 0 255;
#X obj 155 372 number.round;
#X obj 6 432 f;
#X obj 6 452 t f f;
#X obj 6 517 spigot;
#X obj 33 476 flow.variation;
#X obj 33 496 != 0;
#X obj 140 433 f;
#X obj 140 453 t f f;
#X obj 140 518 spigot;
#X obj 167 477 flow.variation;
#X obj 167 497 != 0;
#X obj -26 35 inlet dmx-sync;
#X floatatom 87 449 5 0 0 0 - - -;
#X floatatom 52 450 5 0 0 0 - - -;
#X obj -33 361 route bang;
#X obj 47 94 inlet intensity;
#X connect 1 0 7 1;
#X connect 2 0 6 0;
#X connect 2 2 4 0;
#X connect 2 3 3 0;
#X connect 3 0 4 1;
#X connect 4 0 10 0;
#X connect 6 0 13 1;
#X connect 6 0 25 0;
#X connect 7 0 9 1;
#X connect 8 0 9 0;
#X connect 8 1 7 0;
#X connect 9 0 2 0;
#X connect 10 0 11 0;
#X connect 11 0 12 0;
#X connect 12 0 18 1;
#X connect 12 0 24 0;
#X connect 13 0 14 0;
#X connect 14 0 15 0;
#X connect 14 1 16 0;
#X connect 15 0 0 0;
#X connect 16 0 17 0;
#X connect 17 0 15 1;
#X connect 18 0 19 0;
#X connect 19 0 20 0;
#X connect 19 1 21 0;
#X connect 20 0 5 0;
#X connect 21 0 22 0;
#X connect 22 0 20 1;
#X connect 23 0 26 0;
#X connect 26 0 13 0;
#X connect 26 0 18 0;
#X connect 27 0 8 0;
